<?xml version="1.0" encoding="utf-8"?>
<svg xmlns="http://www.w3.org/2000/svg" viewBox="0 0 48 48" width="48" height="48">
  <path d="M20.472656 5C18.87426 5 17.390847 5.8519349 16.585938 7.2324219L14.388672 11L10.5 11C6.9280619 11 4 13.928062 4 17.5L4 36.5C4 40.071938 6.9280619 43 10.5 43L37.5 43C41.071938 43 44 40.071938 44 36.5L44 17.5C44 13.928062 41.071938 11 37.5 11L33.611328 11L31.414062 7.2324219C30.609153 5.8519349 29.12574 5 27.527344 5L20.472656 5 z M 20.472656 8L27.527344 8C28.062947 8 28.553175 8.2826276 28.822266 8.7441406L31.455078 13.255859 A 1.50015 1.50015 0 0 0 32.75 14L37.5 14C39.450062 14 41 15.549938 41 17.5L41 36.5C41 38.450062 39.450062 40 37.5 40L10.5 40C8.5499381 40 7 38.450062 7 36.5L7 17.5C7 15.549938 8.5499381 14 10.5 14L15.25 14 A 1.50015 1.50015 0 0 0 16.544922 13.255859L19.177734 8.7441406C19.446825 8.2826276 19.937053 8 20.472656 8 z M 24 17C19.047202 17 15 21.047206 15 26C15 30.952794 19.047202 35 24 35C28.952798 35 33 30.952794 33 26C33 21.047206 28.952798 17 24 17 z M 24 20C27.331479 20 30 22.668523 30 26C30 29.331477 27.331479 32 24 32C20.668521 32 18 29.331477 18 26C18 22.668523 20.668521 20 24 20 z" fill="#EE663E" />
</svg>