<svg xmlns="http://www.w3.org/2000/svg" viewBox="0 0 64 64">
  <path d="M23.5625 4C20.148438 4 17.210938 6.425781 16.542969 9.792969L15.703125 14L8.140625 14C4.195313 14 1 17.195313 1 21.140625L1 51.863281C1 55.804688 4.195313 59 8.136719 59L55.875 59C59.8125 59 63 55.8125 63 51.875L63 21.128906C63 17.191406 59.808594 14 55.871094 14L48.296875 14L47.457031 9.796875C46.789063 6.425781 43.851563 4 40.4375 4 Z M 23.5625 6L40.4375 6C42.886719 6 45.015625 7.757813 45.496094 10.183594L46.332031 14.390625C46.519531 15.328125 47.339844 16 48.296875 16L55.871094 16C58.699219 16 61 18.300781 61 21.128906L61 51.875C61 54.703125 58.703125 57 55.875 57L8.136719 57C5.304688 57 3 54.695313 3 51.863281L3 21.140625C3 18.304688 5.304688 16 8.140625 16L15.703125 16C16.660156 16 17.480469 15.328125 17.667969 14.390625L18.503906 10.183594C18.984375 7.757813 21.113281 6 23.5625 6 Z M 31.941406 22C24.242188 22 18 28.253906 18 35.96875C18 43.683594 24.242188 49.9375 31.941406 49.9375C39.644531 49.9375 45.886719 43.683594 45.886719 35.96875C45.886719 28.253906 39.644531 22 31.941406 22 Z M 31.941406 24C38.53125 24 43.886719 29.367188 43.886719 35.96875C43.886719 42.570313 38.527344 47.9375 31.941406 47.9375C25.359375 47.9375 20 42.570313 20 35.96875C20 29.367188 25.359375 24 31.941406 24 Z M 31.886719 25.96875C26.363281 25.96875 21.886719 30.445313 21.886719 35.96875C21.886719 41.492188 26.363281 45.96875 31.886719 45.96875C37.410156 45.96875 41.886719 41.492188 41.886719 35.96875C41.886719 30.445313 37.410156 25.96875 31.886719 25.96875 Z M 31.886719 27.96875C36.296875 27.96875 39.886719 31.558594 39.886719 35.96875C39.886719 40.378906 36.296875 43.96875 31.886719 43.96875C27.476563 43.96875 23.886719 40.378906 23.886719 35.96875C23.886719 31.558594 27.476563 27.96875 31.886719 27.96875 Z M 5.984375 33.984375C5.433594 33.996094 4.992188 34.449219 5 35L5 37C4.996094 37.359375 5.183594 37.695313 5.496094 37.878906C5.808594 38.058594 6.191406 38.058594 6.503906 37.878906C6.816406 37.695313 7.003906 37.359375 7 37L7 35C7.003906 34.730469 6.898438 34.46875 6.707031 34.277344C6.515625 34.085938 6.253906 33.980469 5.984375 33.984375 Z M 10.984375 33.984375C10.433594 33.996094 9.992188 34.449219 10 35L10 37C9.996094 37.359375 10.183594 37.695313 10.496094 37.878906C10.808594 38.058594 11.191406 38.058594 11.503906 37.878906C11.816406 37.695313 12.003906 37.359375 12 37L12 35C12.003906 34.730469 11.898438 34.46875 11.707031 34.277344C11.515625 34.085938 11.253906 33.980469 10.984375 33.984375 Z M 15.984375 33.984375C15.433594 33.996094 14.992188 34.449219 15 35L15 37C14.996094 37.359375 15.183594 37.695313 15.496094 37.878906C15.808594 38.058594 16.191406 38.058594 16.503906 37.878906C16.816406 37.695313 17.003906 37.359375 17 37L17 35C17.003906 34.730469 16.898438 34.46875 16.707031 34.277344C16.515625 34.085938 16.253906 33.980469 15.984375 33.984375 Z M 47.984375 33.984375C47.433594 33.996094 46.992188 34.449219 47 35L47 37C46.996094 37.359375 47.183594 37.695313 47.496094 37.878906C47.808594 38.058594 48.191406 38.058594 48.503906 37.878906C48.816406 37.695313 49.003906 37.359375 49 37L49 35C49.003906 34.730469 48.898438 34.46875 48.707031 34.277344C48.515625 34.085938 48.253906 33.980469 47.984375 33.984375 Z M 52.984375 33.984375C52.433594 33.996094 51.992188 34.449219 52 35L52 37C51.996094 37.359375 52.183594 37.695313 52.496094 37.878906C52.808594 38.058594 53.191406 38.058594 53.503906 37.878906C53.816406 37.695313 54.003906 37.359375 54 37L54 35C54.003906 34.730469 53.898438 34.46875 53.707031 34.277344C53.515625 34.085938 53.253906 33.980469 52.984375 33.984375 Z M 57.984375 33.984375C57.433594 33.996094 56.992188 34.449219 57 35L57 37C56.996094 37.359375 57.183594 37.695313 57.496094 37.878906C57.808594 38.058594 58.191406 38.058594 58.503906 37.878906C58.816406 37.695313 59.003906 37.359375 59 37L59 35C59.003906 34.730469 58.898438 34.46875 58.707031 34.277344C58.515625 34.085938 58.253906 33.980469 57.984375 33.984375Z" fill="#9D9D9D" />
</svg>