<?xml version="1.0" encoding="utf-8"?>
<svg xmlns="http://www.w3.org/2000/svg" viewBox="0 0 80 80" width="240" height="240">
  <path d="M40 7C21.785156 7 7 21.785156 7 40C7 58.214844 21.785156 73 40 73C58.214844 73 73 58.214844 73 40C73 21.785156 58.214844 7 40 7 Z M 40 9C57.132813 9 71 22.867188 71 40C71 57.132813 57.132813 71 40 71C22.867188 71 9 57.132813 9 40C9 22.867188 22.867188 9 40 9 Z M 40 11C38.894531 11 38 11.894531 38 13C38 14.105469 38.894531 15 40 15C41.105469 15 42 14.105469 42 13C42 11.894531 41.105469 11 40 11 Z M 33.019531 12.921875C32.996094 12.917969 32.972656 12.921875 32.953125 12.921875C32.882813 12.925781 32.820313 12.9375 32.753906 12.953125C32.21875 13.097656 31.902344 13.644531 32.046875 14.179688C32.191406 14.714844 32.738281 15.03125 33.269531 14.886719C33.804688 14.742188 34.121094 14.195313 33.980469 13.660156C33.863281 13.226563 33.472656 12.925781 33.019531 12.921875 Z M 46.980469 12.921875C46.53125 12.925781 46.140625 13.230469 46.023438 13.664063C45.878906 14.199219 46.195313 14.746094 46.730469 14.890625C47.265625 15.03125 47.8125 14.714844 47.953125 14.183594C48.023438 13.925781 47.988281 13.652344 47.855469 13.421875C47.722656 13.191406 47.503906 13.023438 47.25 12.953125C47.160156 12.933594 47.070313 12.921875 46.980469 12.921875 Z M 26.476563 15.617188C26.308594 15.621094 26.144531 15.667969 26 15.75C25.769531 15.882813 25.601563 16.101563 25.53125 16.359375C25.464844 16.613281 25.5 16.886719 25.632813 17.117188C25.765625 17.347656 25.984375 17.515625 26.242188 17.582031C26.496094 17.652344 26.769531 17.617188 27 17.484375C27.476563 17.207031 27.640625 16.59375 27.363281 16.117188C27.183594 15.800781 26.84375 15.609375 26.476563 15.617188 Z M 53.453125 15.621094C53.113281 15.636719 52.804688 15.824219 52.632813 16.121094C52.355469 16.597656 52.523438 17.207031 53 17.484375C53.476563 17.761719 54.089844 17.597656 54.363281 17.121094C54.5 16.890625 54.535156 16.617188 54.464844 16.359375C54.398438 16.101563 54.230469 15.882813 54 15.75C53.835938 15.65625 53.644531 15.609375 53.453125 15.621094 Z M 40 17C39.449219 17 39 17.449219 39 18C39 18.550781 39.449219 19 40 19C40.550781 19 41 18.550781 41 18C41 17.449219 40.550781 17 40 17 Z M 20.921875 19.90625C20.652344 19.90625 20.390625 20.011719 20.203125 20.203125C19.8125 20.589844 19.8125 21.226563 20.203125 21.613281C20.589844 22.003906 21.226563 22.003906 21.613281 21.613281C22.003906 21.226563 22.003906 20.589844 21.613281 20.203125C21.429688 20.015625 21.183594 19.910156 20.921875 19.90625 Z M 59.105469 19.90625C58.835938 19.90625 58.574219 20.011719 58.386719 20.203125C57.996094 20.589844 57.996094 21.226563 58.386719 21.613281C58.773438 22.003906 59.410156 22.003906 59.796875 21.613281C60.1875 21.226563 60.1875 20.589844 59.796875 20.203125C59.613281 20.015625 59.367188 19.910156 59.105469 19.90625 Z M 40 21C39.449219 21 39 21.449219 39 22C39 22.550781 39.449219 23 40 23C40.550781 23 41 22.550781 41 22C41 21.449219 40.550781 21 40 21 Z M 47.191406 21.3125L40.652344 36.066406C40.4375 36.03125 40.222656 36 40 36C37.800781 36 36 37.800781 36 40C36 42.199219 37.800781 44 40 44C40.738281 44 41.421875 43.785156 42.015625 43.433594L50.4375 51.847656L51.847656 50.4375L43.433594 42.015625C43.785156 41.421875 44 40.738281 44 40C44 38.738281 43.394531 37.621094 42.472656 36.886719L49.019531 22.121094 Z M 63.359375 25.5C63.191406 25.503906 63.027344 25.550781 62.878906 25.632813C62.402344 25.910156 62.238281 26.519531 62.515625 27C62.792969 27.476563 63.402344 27.640625 63.878906 27.363281C64.109375 27.234375 64.277344 27.015625 64.347656 26.757813C64.417969 26.5 64.382813 26.226563 64.25 26C64.066406 25.683594 63.722656 25.492188 63.359375 25.5 Z M 16.570313 25.5C16.230469 25.515625 15.921875 25.703125 15.75 26C15.472656 26.476563 15.640625 27.089844 16.117188 27.363281C16.59375 27.640625 17.207031 27.476563 17.484375 27C17.757813 26.523438 17.59375 25.910156 17.117188 25.636719C16.953125 25.539063 16.761719 25.492188 16.570313 25.5 Z M 13.910156 32.015625C13.460938 32.015625 13.070313 32.320313 12.953125 32.753906C12.808594 33.289063 13.125 33.835938 13.660156 33.980469C14.195313 34.121094 14.742188 33.804688 14.886719 33.269531C15.027344 32.738281 14.710938 32.191406 14.175781 32.046875C14.089844 32.023438 14 32.011719 13.910156 32.015625 Z M 66.117188 32.015625C66.015625 32.011719 65.917969 32.019531 65.820313 32.046875C65.285156 32.191406 64.96875 32.738281 65.113281 33.269531C65.257813 33.804688 65.804688 34.121094 66.339844 33.980469C66.871094 33.835938 67.1875 33.289063 67.046875 32.753906C66.929688 32.332031 66.554688 32.03125 66.117188 32.015625 Z M 13 38C11.894531 38 11 38.894531 11 40C11 41.105469 11.894531 42 13 42C14.105469 42 15 41.105469 15 40C15 38.894531 14.105469 38 13 38 Z M 40 38C41.117188 38 42 38.882813 42 40C42 41.117188 41.117188 42 40 42C38.882813 42 38 41.117188 38 40C38 38.882813 38.882813 38 40 38 Z M 67 38C65.894531 38 65 38.894531 65 40C65 41.105469 65.894531 42 67 42C68.105469 42 69 41.105469 69 40C69 38.894531 68.105469 38 67 38 Z M 18 39C17.449219 39 17 39.449219 17 40C17 40.550781 17.449219 41 18 41C18.550781 41 19 40.550781 19 40C19 39.449219 18.550781 39 18 39 Z M 22 39C21.449219 39 21 39.449219 21 40C21 40.550781 21.449219 41 22 41C22.550781 41 23 40.550781 23 40C23 39.449219 22.550781 39 22 39 Z M 58 39C57.449219 39 57 39.449219 57 40C57 40.550781 57.449219 41 58 41C58.550781 41 59 40.550781 59 40C59 39.449219 58.550781 39 58 39 Z M 62 39C61.449219 39 61 39.449219 61 40C61 40.550781 61.449219 41 62 41C62.550781 41 63 40.550781 63 40C63 39.449219 62.550781 39 62 39 Z M 13.957031 45.988281C13.855469 45.984375 13.757813 45.996094 13.660156 46.019531C13.402344 46.089844 13.183594 46.257813 13.050781 46.488281C12.917969 46.71875 12.882813 46.992188 12.953125 47.25C13.097656 47.78125 13.644531 48.097656 14.175781 47.953125C14.710938 47.8125 15.027344 47.265625 14.886719 46.730469C14.773438 46.304688 14.394531 46.003906 13.957031 45.988281 Z M 66.070313 45.988281C65.621094 45.996094 65.230469 46.296875 65.113281 46.734375C64.96875 47.265625 65.285156 47.8125 65.820313 47.957031C66.355469 48.101563 66.902344 47.785156 67.046875 47.25C67.1875 46.714844 66.871094 46.167969 66.339844 46.027344C66.25 46 66.160156 45.988281 66.070313 45.988281 Z M 16.59375 52.5C16.425781 52.503906 16.261719 52.550781 16.117188 52.632813C15.640625 52.910156 15.472656 53.519531 15.75 54C15.882813 54.226563 16.101563 54.394531 16.359375 54.464844C16.613281 54.535156 16.886719 54.5 17.117188 54.363281C17.347656 54.234375 17.515625 54.015625 17.582031 53.757813C17.652344 53.5 17.617188 53.226563 17.484375 53C17.300781 52.683594 16.957031 52.492188 16.59375 52.5 Z M 63.332031 52.5C62.992188 52.519531 62.683594 52.707031 62.515625 53C62.238281 53.480469 62.402344 54.089844 62.878906 54.367188C63.109375 54.5 63.382813 54.535156 63.640625 54.46875C63.898438 54.398438 64.117188 54.230469 64.25 54C64.382813 53.773438 64.417969 53.5 64.347656 53.242188C64.277344 52.984375 64.109375 52.765625 63.878906 52.636719C63.714844 52.539063 63.523438 52.492188 63.332031 52.5 Z M 40 57C39.449219 57 39 57.449219 39 58C39 58.550781 39.449219 59 40 59C40.550781 59 41 58.550781 41 58C41 57.449219 40.550781 57 40 57 Z M 20.921875 58.09375C20.652344 58.089844 20.390625 58.195313 20.203125 58.386719C19.8125 58.773438 19.8125 59.410156 20.203125 59.796875C20.589844 60.1875 21.226563 60.1875 21.613281 59.796875C22.003906 59.410156 22.003906 58.773438 21.613281 58.386719C21.429688 58.199219 21.183594 58.09375 20.921875 58.09375 Z M 59.105469 58.09375C58.835938 58.089844 58.574219 58.195313 58.386719 58.386719C57.996094 58.773438 57.996094 59.410156 58.386719 59.796875C58.773438 60.1875 59.410156 60.1875 59.796875 59.796875C60.1875 59.410156 60.1875 58.773438 59.796875 58.386719C59.613281 58.199219 59.367188 58.09375 59.105469 58.09375 Z M 40 61C39.449219 61 39 61.449219 39 62C39 62.550781 39.449219 63 40 63C40.550781 63 41 62.550781 41 62C41 61.449219 40.550781 61 40 61 Z M 53.472656 62.378906C53.308594 62.386719 53.144531 62.429688 53 62.515625C52.519531 62.792969 52.355469 63.402344 52.632813 63.878906C52.910156 64.359375 53.519531 64.523438 54 64.25C54.226563 64.117188 54.394531 63.898438 54.464844 63.640625C54.535156 63.382813 54.5 63.109375 54.363281 62.878906C54.183594 62.5625 53.839844 62.371094 53.472656 62.378906 Z M 26.453125 62.386719C26.113281 62.402344 25.804688 62.589844 25.632813 62.882813C25.5 63.113281 25.464844 63.386719 25.53125 63.640625C25.601563 63.898438 25.769531 64.117188 26 64.25C26.476563 64.527344 27.089844 64.359375 27.363281 63.882813C27.640625 63.40625 27.476563 62.792969 27 62.515625C26.832031 62.421875 26.644531 62.375 26.453125 62.386719 Z M 40 65C38.894531 65 38 65.894531 38 67C38 68.105469 38.894531 69 40 69C41.105469 69 42 68.105469 42 67C42 65.894531 41.105469 65 40 65 Z M 33 65.082031C32.554688 65.085938 32.160156 65.386719 32.046875 65.824219C31.902344 66.355469 32.21875 66.902344 32.75 67.046875C33.285156 67.191406 33.832031 66.875 33.976563 66.339844C34.121094 65.804688 33.804688 65.257813 33.269531 65.113281C33.183594 65.09375 33.09375 65.082031 33 65.082031 Z M 47.027344 65.082031C46.925781 65.078125 46.824219 65.089844 46.730469 65.113281C46.195313 65.257813 45.878906 65.804688 46.019531 66.339844C46.164063 66.875 46.710938 67.191406 47.246094 67.046875C47.78125 66.902344 48.097656 66.355469 47.953125 65.824219C47.839844 65.398438 47.464844 65.097656 47.027344 65.082031Z" fill="#FFFFFF" />
</svg>