<?xml version="1.0" encoding="utf-8"?>
<svg xmlns="http://www.w3.org/2000/svg" viewBox="0 0 64 64" width="128" height="128">
  <path d="M21 1.101563C20.398438 1.101563 20 1.5 20 2.101563L20 8L16.097656 8C15.097656 8 14.199219 8.5 13.597656 9.300781L10.5 14C9 14.300781 8 15.5 8 17C8 18.300781 8.800781 19.402344 10 19.800781L10 56L7 56C6.398438 56 6 56.398438 6 57C6 57.601563 6.398438 58 7 58L61 58C61.601563 58 62 57.601563 62 57C62 56.398438 61.601563 56 61 56L58 56L58 32L59 32C59.601563 32 60 31.601563 60 31C60 30.398438 59.601563 30 59 30L50 30L50 28C50 26.898438 49.101563 26 48 26L44 26L44 19.800781C45.199219 19.402344 46 18.300781 46 17C46 15.5 45 14.300781 43.597656 14.097656L40.5 9.398438C39.898438 8.5 38.902344 8 37.902344 8L26 8L26 7.101563C26 6.5 25.601563 6.101563 25 6.101563C24.398438 6.101563 24 6.5 24 7.101563L24 8L22 8L22 2.101563C22 1.5 21.601563 1.101563 21 1.101563 Z M 16 10L20 10L20 12.097656C20 12.699219 20.398438 13.097656 21 13.097656C21.601563 13.097656 22 12.699219 22 12.097656L22 10L24 10L24 12.097656C24 12.699219 24.398438 13.097656 25 13.097656C25.601563 13.097656 26 12.699219 26 12.097656L26 10L37.902344 10C38.199219 10 38.5 10.199219 38.699219 10.402344L41.097656 14L12.902344 14L15.199219 10.402344C15.398438 10.101563 15.699219 10 16 10 Z M 11 16L43 16C43.601563 16 44 16.398438 44 17C44 17.601563 43.601563 18 43 18L11 18C10.398438 18 10 17.601563 10 17C10 16.398438 10.398438 16 11 16 Z M 12 20L42 20L42 56L26 56L26 50C26 48.898438 25.101563 48 24 48L18 48C16.898438 48 16 48.898438 16 50L16 56L12 56L12 38L31 38C31.601563 38 32 37.601563 32 37C32 36.398438 31.601563 36 31 36L12 36 Z M 17 22C16.398438 22 16 22.398438 16 23C16 23.601563 16.398438 24 17 24L19 24C19.601563 24 20 23.601563 20 23C20 22.398438 19.601563 22 19 22 Z M 23 22C22.398438 22 22 22.398438 22 23C22 23.601563 22.398438 24 23 24L25 24C25.601563 24 26 23.601563 26 23C26 22.398438 25.601563 22 25 22 Z M 29 22C28.398438 22 28 22.398438 28 23C28 23.601563 28.398438 24 29 24L31 24C31.601563 24 32 23.601563 32 23C32 22.398438 31.601563 22 31 22 Z M 35 22C34.398438 22 34 22.398438 34 23C34 23.601563 34.398438 24 35 24L37 24C37.601563 24 38 23.601563 38 23C38 22.398438 37.601563 22 37 22 Z M 17 26C16.398438 26 16 26.398438 16 27C16 27.601563 16.398438 28 17 28L19 28C19.601563 28 20 27.601563 20 27C20 26.398438 19.601563 26 19 26 Z M 23 26C22.398438 26 22 26.398438 22 27C22 27.601563 22.398438 28 23 28L25 28C25.601563 28 26 27.601563 26 27C26 26.398438 25.601563 26 25 26 Z M 29 26C28.398438 26 28 26.398438 28 27C28 27.601563 28.398438 28 29 28L31 28C31.601563 28 32 27.601563 32 27C32 26.398438 31.601563 26 31 26 Z M 35 26C34.398438 26 34 26.398438 34 27C34 27.601563 34.398438 28 35 28L37 28C37.601563 28 38 27.601563 38 27C38 26.398438 37.601563 26 37 26 Z M 44 28L48 28L48 31C48 31.601563 48.398438 32 49 32L56 32L56 44L46 44C45.398438 44 45 44.398438 45 45C45 45.601563 45.398438 46 46 46L56 46L56 56L44 56 Z M 17 30C16.398438 30 16 30.398438 16 31C16 31.601563 16.398438 32 17 32L19 32C19.601563 32 20 31.601563 20 31C20 30.398438 19.601563 30 19 30 Z M 23 30C22.398438 30 22 30.398438 22 31C22 31.601563 22.398438 32 23 32L25 32C25.601563 32 26 31.601563 26 31C26 30.398438 25.601563 30 25 30 Z M 29 30C28.398438 30 28 30.398438 28 31C28 31.601563 28.398438 32 29 32L31 32C31.601563 32 32 31.601563 32 31C32 30.398438 31.601563 30 31 30 Z M 35 30C34.398438 30 34 30.398438 34 31C34 31.601563 34.398438 32 35 32L37 32C37.601563 32 38 31.601563 38 31C38 30.398438 37.601563 30 37 30 Z M 48 34C47.398438 34 47 34.398438 47 35C47 35.601563 47.398438 36 48 36L50 36C50.601563 36 51 35.601563 51 35C51 34.398438 50.601563 34 50 34 Z M 35 36C34.398438 36 34 36.398438 34 37C34 37.601563 34.398438 38 35 38L39 38C39.601563 38 40 37.601563 40 37C40 36.398438 39.601563 36 39 36 Z M 48 38C47.398438 38 47 38.398438 47 39C47 39.601563 47.398438 40 48 40L50 40C50.601563 40 51 39.601563 51 39C51 38.398438 50.601563 38 50 38 Z M 17 42C16.398438 42 16 42.398438 16 43C16 43.601563 16.398438 44 17 44L19 44C19.601563 44 20 43.601563 20 43C20 42.398438 19.601563 42 19 42 Z M 23 42C22.398438 42 22 42.398438 22 43C22 43.601563 22.398438 44 23 44L25 44C25.601563 44 26 43.601563 26 43C26 42.398438 25.601563 42 25 42 Z M 29 42C28.398438 42 28 42.398438 28 43C28 43.601563 28.398438 44 29 44L31 44C31.601563 44 32 43.601563 32 43C32 42.398438 31.601563 42 31 42 Z M 35 42C34.398438 42 34 42.398438 34 43C34 43.601563 34.398438 44 35 44L37 44C37.601563 44 38 43.601563 38 43C38 42.398438 37.601563 42 37 42 Z M 29 46C28.398438 46 28 46.398438 28 47C28 47.601563 28.398438 48 29 48L31 48C31.601563 48 32 47.601563 32 47C32 46.398438 31.601563 46 31 46 Z M 35 46C34.398438 46 34 46.398438 34 47C34 47.601563 34.398438 48 35 48L37 48C37.601563 48 38 47.601563 38 47C38 46.398438 37.601563 46 37 46 Z M 18 50L24 50L24 56L18 56 Z M 29 50C28.398438 50 28 50.398438 28 51C28 51.601563 28.398438 52 29 52L31 52C31.601563 52 32 51.601563 32 51C32 50.398438 31.601563 50 31 50 Z M 35 50C34.398438 50 34 50.398438 34 51C34 51.601563 34.398438 52 35 52L37 52C37.601563 52 38 51.601563 38 51C38 50.398438 37.601563 50 37 50 Z M 50 50C49.398438 50 49 50.398438 49 51C49 51.601563 49.398438 52 50 52L52 52C52.601563 52 53 51.601563 53 51C53 50.398438 52.601563 50 52 50Z" fill="#FFFFFF" />
</svg>