<?xml version="1.0" encoding="UTF-8"?>
<svg version="1.1" xmlns="http://www.w3.org/2000/svg" width="2000" height="2000">
<path d="M0 0 C660 0 1320 0 2000 0 C2000 660 2000 1320 2000 2000 C1340 2000 680 2000 0 2000 C0 1340 0 680 0 0 Z " fill="#FEFEFE" transform="translate(0,0)"/>
<path d="M0 0 C15.30120618 11.27457298 28.64939203 24.8063022 41.984375 38.28125 C52.0635109 48.56649755 52.0635109 48.56649755 62.71948242 58.23901367 C67.75664532 62.70172458 72.384534 67.63447891 77.10839844 72.42578125 C82.19369801 77.57703352 87.30503865 82.62039966 92.80859375 87.328125 C96.08758081 90.21528342 99.11452081 93.35072768 102.171875 96.46875 C106.55702416 100.90130618 110.94999404 105.21203301 115.71875 109.234375 C118.31261791 111.5377297 120.73653339 114.0008051 123.171875 116.46875 C128.69528924 122.05962724 134.37109915 127.26859744 140.671875 131.96875 C140.66521317 131.28938385 140.65855133 130.6100177 140.65168762 129.9100647 C140.58503455 122.80418659 140.53995034 115.69839811 140.50708008 108.59228516 C140.49204481 105.94446197 140.47161124 103.29666347 140.44555664 100.64892578 C140.40894239 96.83099248 140.39209534 93.01339007 140.37890625 89.1953125 C140.36342239 88.02199371 140.34793854 86.84867493 140.33198547 85.63980103 C140.33006157 76.12692299 141.52296956 67.56445672 147.671875 59.96875 C154.82865659 52.81196841 163.865946 52.58059116 173.4125824 52.5519104 C174.92479742 52.55728151 176.43700983 52.56343481 177.94921875 52.5703125 C179.52665847 52.56828723 181.10409727 52.56537204 182.68153381 52.56161499 C185.9755247 52.55721161 189.26927024 52.56355729 192.56323242 52.57763672 C196.7603434 52.59471343 200.95687805 52.58488461 205.15396786 52.56691933 C208.40817002 52.55601537 211.66223832 52.55955816 214.91644478 52.5673027 C216.46281568 52.56928723 218.00919921 52.56690772 219.55555534 52.55986404 C230.70835856 52.52020437 242.24443201 52.6487999 250.671875 60.96875 C255.94371326 67.62865205 257.92349255 74.55365169 257.91670227 83.04524231 C257.92009913 84.06043482 257.92009913 84.06043482 257.92356461 85.09613627 C257.92882652 87.34519472 257.92005729 89.59397317 257.91137695 91.84301758 C257.9124908 93.46327299 257.91455011 95.08352798 257.91748047 96.70378113 C257.92219195 100.18445399 257.92109373 103.66505932 257.91570473 107.14573097 C257.90807635 112.656097 257.91877169 118.16633381 257.9329071 123.67668152 C257.97059292 139.34313465 257.98884462 155.00952892 257.97729492 170.67602539 C257.97106864 179.33513274 257.98270837 187.9940309 258.01374024 196.65308684 C258.03234328 202.12402297 258.02912524 207.5943642 258.00957263 213.06529009 C258.00266381 216.47801549 258.01670092 219.89042225 258.03652191 223.30308723 C258.0415454 224.87758272 258.03814613 226.45213281 258.02538872 228.02658463 C257.94812035 238.29819917 258.82191243 246.52961944 265.890625 254.45703125 C266.6434375 255.05902344 267.39625 255.66101563 268.171875 256.28125 C272.44157809 259.86907514 276.3933449 263.61971834 280.296875 267.59375 C283.64435514 270.98210585 286.96974551 274.32776253 290.609375 277.40625 C294.51457479 280.71447658 298.07468426 284.33388741 301.671875 287.96875 C307.01652694 293.38369868 307.01652694 293.38369868 312.671875 298.46875 C316.55902261 301.75271954 320.09541917 305.35488844 323.671875 308.96875 C328.9838906 314.35413279 328.9838906 314.35413279 334.609375 319.40625 C339.37314414 323.42921703 343.68090389 327.92836905 348.04272461 332.37670898 C351.14697276 335.5236103 354.29060579 338.55203423 357.640625 341.4375 C362.58414722 345.70014913 367.1040299 350.35075168 371.671875 355.0078125 C374.84367299 358.21677999 378.03509662 361.33492705 381.45703125 364.27734375 C394.74848223 375.74555933 409.96153495 388.96493493 417.671875 404.96875 C418.05988281 405.74863281 418.44789063 406.52851562 418.84765625 407.33203125 C423.74551582 419.82480961 421.64431069 436.87951573 416.671875 448.96875 C409.97662643 463.57276094 398.38863591 471.35455443 383.89453125 477.0625 C371.82988177 480.98124329 358.18081967 480.15823778 346.671875 474.96875 C338.70878329 470.76717426 331.67531364 465.49928631 325.1484375 459.3046875 C323.13082092 457.4016359 321.08050965 455.59349303 318.9765625 453.7890625 C313.27117595 448.82131519 308.04160613 443.38454423 302.73828125 437.99609375 C299.15281441 434.37576013 295.57245608 430.81767946 291.703125 427.5 C285.8350014 422.46265761 280.51704138 416.85702496 275.09375 411.3515625 C271.37969653 407.60333062 267.67904148 403.90461363 263.671875 400.46875 C257.81220545 395.44449519 252.50650692 389.84633088 247.09375 384.3515625 C243.37969653 380.60333062 239.67904148 376.90461363 235.671875 373.46875 C229.81220545 368.44449519 224.50650692 362.84633088 219.09375 357.3515625 C215.37969653 353.60333062 211.67904148 349.90461363 207.671875 346.46875 C201.81220545 341.44449519 196.50650692 335.84633088 191.09375 330.3515625 C187.37969653 326.60333062 183.67904148 322.90461363 179.671875 319.46875 C173.81220545 314.44449519 168.50650692 308.84633088 163.09375 303.3515625 C158.75798236 298.97589516 154.37062827 294.77828594 149.6953125 290.76953125 C144.81312684 286.42457451 140.32067998 281.65204623 135.73828125 276.99609375 C131.5172609 272.7340262 127.23219109 268.66216441 122.68164062 264.75585938 C118.0284565 260.61818836 113.74639138 256.07866768 109.3828125 251.640625 C105.90547236 248.127436 102.42184601 244.69149736 98.671875 241.46875 C93.27510043 236.83072988 88.36833136 231.71122097 83.3828125 226.640625 C79.90547236 223.127436 76.42184601 219.69149736 72.671875 216.46875 C67.27510043 211.83072988 62.36833136 206.71122097 57.3828125 201.640625 C53.90547236 198.127436 50.42184601 194.69149736 46.671875 191.46875 C41.27510043 186.83072988 36.36833136 181.71122097 31.3828125 176.640625 C27.90547236 173.127436 24.42184601 169.69149736 20.671875 166.46875 C15.27510043 161.83072988 10.36833136 156.71122097 5.3828125 151.640625 C1.90953648 148.13154201 -1.56782042 144.70315952 -5.3203125 141.4921875 C-8.31536928 138.92139334 -11.09306268 136.22151848 -13.8359375 133.3828125 C-14.59519531 132.59777344 -15.35445312 131.81273437 -16.13671875 131.00390625 C-17.69646779 129.38103077 -19.24843378 127.75064303 -20.79296875 126.11328125 C-21.54964844 125.33597656 -22.30632812 124.55867187 -23.0859375 123.7578125 C-23.7577002 123.05350098 -24.42946289 122.34918945 -25.12158203 121.62353516 C-27.86549961 119.56574877 -29.93491666 119.20382516 -33.328125 118.96875 C-35.337493 119.95217536 -35.337493 119.95217536 -36.953125 121.71875 C-37.62859375 122.36585938 -38.3040625 123.01296875 -39 123.6796875 C-39.76828125 124.43507813 -40.5365625 125.19046875 -41.328125 125.96875 C-42.77010702 127.29521412 -44.21237474 128.62139375 -45.66137695 129.94018555 C-47.2206572 131.35971083 -48.77294228 132.78658027 -50.32421875 134.21484375 C-52.95428892 136.63123637 -55.6054933 139.02294502 -58.265625 141.40625 C-62.72099304 145.40392373 -67.11896019 149.46075885 -71.51147461 153.52709961 C-75.55262384 157.26401882 -79.63523096 160.95174106 -83.734375 164.625 C-86.78704181 167.38343387 -89.80895156 170.17377044 -92.828125 172.96875 C-97.45432307 177.25102279 -102.11491175 181.49082859 -106.80859375 185.69921875 C-111.68022745 190.08746554 -116.50024824 194.53248809 -121.328125 198.96875 C-132.60473346 209.33065257 -132.60473346 209.33065257 -138.265625 214.40625 C-142.15183098 217.89323097 -145.99655307 221.42206985 -149.828125 224.96875 C-154.45434817 229.25099608 -159.11491123 233.49082812 -163.80859375 237.69921875 C-168.68022745 242.08746554 -173.50024824 246.53248809 -178.328125 250.96875 C-189.60473346 261.33065257 -189.60473346 261.33065257 -195.265625 266.40625 C-199.72099304 270.40392373 -204.11896019 274.46075885 -208.51147461 278.52709961 C-212.55262384 282.26401882 -216.63523096 285.95174106 -220.734375 289.625 C-223.78704181 292.38343387 -226.80895156 295.17377044 -229.828125 297.96875 C-234.45432307 302.25102279 -239.11491175 306.49082859 -243.80859375 310.69921875 C-248.68022745 315.08746554 -253.50024824 319.53248809 -258.328125 323.96875 C-262.32372743 327.6402478 -266.32312477 331.3075032 -270.328125 334.96875 C-271.59269531 336.12697266 -271.59269531 336.12697266 -272.8828125 337.30859375 C-275.34737448 339.54874673 -277.83402922 341.76155174 -280.328125 343.96875 C-281.71257812 345.22365234 -281.71257812 345.22365234 -283.125 346.50390625 C-298.03147148 359.57664513 -314.42396275 365.38148343 -334.23046875 364.18017578 C-346.76981273 362.91631732 -357.56683019 355.63815132 -366.06640625 346.73828125 C-369.77550418 342.19639795 -372.16273966 337.39293309 -374.328125 331.96875 C-374.66714844 331.16566406 -375.00617187 330.36257813 -375.35546875 329.53515625 C-379.27535217 318.24516943 -379.67286668 301.27172673 -374.63671875 290.328125 C-374.20488281 289.54953125 -373.77304687 288.7709375 -373.328125 287.96875 C-372.86535156 287.08703125 -372.40257812 286.2053125 -371.92578125 285.296875 C-366.07165374 275.1630797 -357.27528481 267.33007299 -348.4453125 259.80078125 C-345.73137824 257.45237688 -343.09273887 255.02479872 -340.453125 252.59375 C-334.3140684 246.94624118 -328.11645823 241.36602947 -321.90625 235.796875 C-317.31364396 231.67230524 -312.74633051 227.52253107 -308.203125 223.34375 C-304.96595284 220.36656719 -301.71674771 217.40922144 -298.390625 214.53125 C-294.20702643 210.90662911 -290.1637789 207.13489933 -286.10571289 203.37133789 C-283.21448372 200.69473962 -280.30923096 198.04563821 -277.328125 195.46875 C-273.21608207 191.91191962 -269.2404288 188.21291316 -265.25268555 184.51831055 C-260.32148242 179.95264615 -255.33505971 175.45122674 -250.328125 170.96875 C-244.45009561 165.69846517 -238.60312115 160.39642815 -232.78955078 155.05517578 C-228.85019954 151.4389498 -224.87886235 147.85992595 -220.8984375 144.2890625 C-217.98384053 141.65795217 -215.09273276 139.00222525 -212.203125 136.34375 C-208.96599409 133.3665236 -205.71674644 130.40922034 -202.390625 127.53125 C-198.25823739 123.94870191 -194.2571971 120.22907872 -190.24633789 116.51196289 C-186.96310317 113.47133406 -183.66144732 110.45462504 -180.328125 107.46875 C-176.46149933 104.00385167 -172.63798714 100.49570432 -168.828125 96.96875 C-164.20192693 92.68647721 -159.54133825 88.44667141 -154.84765625 84.23828125 C-149.97602255 79.85003446 -145.15600176 75.40501191 -140.328125 70.96875 C-129.05151654 60.60684743 -129.05151654 60.60684743 -123.390625 55.53125 C-118.42162968 51.0710798 -113.51855144 46.54191486 -108.6171875 42.0078125 C-105.52937593 39.15208542 -102.43061729 36.30851056 -99.328125 33.46875 C-95.70255344 30.1493963 -92.08284053 26.82390258 -88.47290039 23.48754883 C-87.37700466 22.4755899 -86.27983639 21.4650073 -85.18139648 20.45581055 C-82.53760981 18.02475592 -79.91393953 15.57881232 -77.33203125 13.08203125 C-55.83707456 -7.51878654 -26.82893631 -18.29950569 0 0 Z " fill="#FE7B01" transform="translate(1017.328125,459.03125)"/>
<path d="M0 0 C10.17459859 1.85149345 20.25827983 3.43914245 30.5559082 4.4609375 C79.46414595 9.4458852 126.66331874 35.3903028 158.2746582 73.1171875 C183.57205599 104.22436666 204.5453957 147.54806318 200.3684082 188.7109375 C197.92759639 202.13540249 186.80823366 210.29879456 177.31811523 219.11010742 C160.96730846 234.34512623 149.04680735 251.96562742 138.7434082 271.7109375 C133.44680482 281.2855667 124.88024968 289.29839766 114.3684082 292.7109375 C102.95109125 294.1524535 93.91266764 292.49422908 84.3684082 285.7109375 C77.96708525 280.73192525 72.47147663 274.99518632 67.3684082 268.7109375 C64.04137176 268.99201472 62.70877792 269.32975109 60.4465332 271.86328125 C59.84325195 272.78238281 59.2399707 273.70148438 58.6184082 274.6484375 C55.1948137 279.6317414 51.49193182 284.06407065 47.3918457 288.5 C45.78330811 290.25759127 44.27915447 292.02968888 42.8059082 293.8984375 C39.61721398 297.57770006 36.11328257 300.60836931 32.3684082 303.7109375 C31.83393066 304.15775879 31.29945313 304.60458008 30.7487793 305.06494141 C22.34805038 312.06054153 13.92146028 318.34486542 4.3684082 323.7109375 C3.40676758 324.26523438 2.44512695 324.81953125 1.4543457 325.390625 C-15.1997028 334.41343834 -34.463199 336.56610526 -52.77294922 331.69067383 C-83.15675608 322.54692178 -107.6807193 298.32837233 -126.16650391 273.54833984 C-128.80253195 270.02522999 -131.3879564 266.71169199 -134.6315918 263.7109375 C-134.8378418 264.5153125 -135.0440918 265.3196875 -135.2565918 266.1484375 C-139.25352963 276.50414008 -146.83215649 284.37124918 -156.5065918 289.7109375 C-165.06937667 293.26165506 -176.00942911 293.37450013 -184.8659668 290.75390625 C-192.16458238 287.27047609 -197.78308153 282.11428551 -202.3815918 275.5234375 C-203.01883179 274.6252832 -203.01883179 274.6252832 -203.66894531 273.70898438 C-207.00099546 268.89404614 -209.80926812 263.86936861 -212.5690918 258.7109375 C-218.72954023 247.23854378 -226.66205131 237.6147323 -235.4675293 228.0625 C-236.91120296 226.49374269 -238.33331517 224.90486864 -239.7331543 223.296875 C-243.47625532 219.00932291 -247.30258949 215.074482 -251.5925293 211.34521484 C-259.75466028 204.21027512 -266.05772422 195.9989096 -266.8347168 184.77734375 C-267.39046855 143.23490019 -249.79580011 102.6850621 -222.6315918 71.7109375 C-221.52364258 70.43863281 -221.52364258 70.43863281 -220.39331055 69.140625 C-218.17204166 66.63162698 -215.91556742 64.16291133 -213.6315918 61.7109375 C-212.94709961 60.97230469 -212.26260742 60.23367188 -211.55737305 59.47265625 C-183.99522624 30.78968277 -143.66781582 10.54412541 -104.3737793 5.37890625 C-102.60719942 5.13796986 -100.84068141 4.89657948 -99.07421875 4.65478516 C-98.16435211 4.531297 -97.25448547 4.40780884 -96.31704712 4.28057861 C-77.51057996 1.72522518 -77.51057996 1.72522518 -58.9440918 -2.1640625 C-38.77329113 -6.85507417 -20.05667117 -3.65308906 0 0 Z " fill="#FEFEFE" transform="translate(868.631591796875,962.2890625)"/>
<path d="M0 0 C5.84018493 4.9293304 6.91069824 10.0406733 7.77294922 17.30517578 C9.0890008 32.92515141 9.5814024 49.86902915 5 65 C4.76313477 65.78761719 4.52626953 66.57523438 4.28222656 67.38671875 C-0.86164106 83.8720351 -8.31160564 100.09481619 -17.69018555 114.6171875 C-20.50149103 119.73151024 -17.42251848 126.64559085 -16 132.0625 C-14.1156788 139.27890401 -12.88065325 145.85945844 -12.96484375 153.34765625 C-12.96112704 154.77279366 -12.95519424 156.19792668 -12.94726562 157.62304688 C-12.93678906 159.83311461 -12.93710511 162.03996632 -12.97583008 164.24975586 C-13.13542908 174.45605445 -11.84423395 180.95321057 -5.79638672 189.30615234 C-4.03250216 191.95126001 -3.34284023 193.42777712 -3.1875 196.5625 C-4 200 -4 200 -5.9375 202.4375 C-9.93282525 204.47593125 -13.56355516 204.80669086 -18 205 C-17.49210937 205.46148438 -16.98421875 205.92296875 -16.4609375 206.3984375 C-10.47556113 212.06997391 -5.0790742 218.1441661 -3.25 226.375 C-4 229 -4 229 -6.5625 231.375 C-10.66321315 233.31351894 -12.52187136 233.83490534 -17 233 C-19.45978202 231.3573659 -21.66586899 229.58151839 -23.88671875 227.62890625 C-26.00144485 225.99888632 -27.39492643 225.41751743 -30 225 C-30.49886719 225.64324219 -30.99773437 226.28648437 -31.51171875 226.94921875 C-54.5458533 255.93831806 -86.67368886 277.45416928 -124.10546875 281.75683594 C-141.32088057 283.20306993 -159.14066769 283.03077923 -176 279 C-176.78955078 278.81195801 -177.57910156 278.62391602 -178.39257812 278.43017578 C-208.39763259 270.96454762 -238.06379014 253.7873975 -255.875 227.9375 C-257.73566424 224.76405691 -257.73566424 224.76405691 -261 224 C-261.226875 224.5775 -261.45375 225.155 -261.6875 225.75 C-263.66629537 229.14222063 -266.50986942 231.25493471 -270 233 C-274.5240181 233.54217113 -278.01209205 233.49395398 -282.125 231.4375 C-284 229 -284 229 -284.125 225.8125 C-281.84972004 218.10182903 -278.06373698 212.25523872 -272 207 C-271.34 207 -270.68 207 -270 207 C-270 206.01 -270 205.02 -270 204 C-270.67546875 203.98582031 -271.3509375 203.97164062 -272.046875 203.95703125 C-279.27866162 203.57036058 -279.27866162 203.57036058 -282.6875 200.875 C-284.47861653 196.95160189 -284.17669011 195.15302393 -283 191 C-282.17427659 189.60717972 -281.32399259 188.22875239 -280.45532227 186.86230469 C-277.65739558 181.90722675 -277.39327181 178.04760959 -277.65234375 172.453125 C-277.66890518 171.56123474 -277.68546661 170.66934448 -277.70252991 169.75042725 C-277.75649673 166.91574085 -277.84317564 164.08361036 -277.9375 161.25 C-278.36546784 147.93052132 -277.86264153 135.73848706 -274.97485352 122.69042969 C-273.20052043 114.52252072 -272.2237566 108.98665036 -276.4375 101.4375 C-289.13524549 76.62892704 -295.82580144 47.26351347 -296.5 19.4375 C-296.53061523 18.75365234 -296.56123047 18.06980469 -296.59277344 17.36523438 C-296.59462926 13.69442177 -296.03478426 12.04685865 -293.828125 9.07421875 C-288.81516369 5.39758552 -283.96292603 6.25231705 -278 7 C-252.99809878 11.73859341 -225.60230096 26.2458546 -205.29589844 41.10522461 C-199.55651208 45.04012017 -194.15111627 44.66270684 -187.54858398 43.60864258 C-185.85210317 43.27704628 -184.15814238 42.93236752 -182.46655273 42.57666016 C-170.6026978 40.1148816 -159.00284183 39.60321622 -146.9375 39.625 C-146.15821136 39.6235498 -145.37892273 39.62209961 -144.57601929 39.62060547 C-131.38226349 39.62338533 -118.63443209 40.90636248 -105.6875 43.5625 C-104.45386719 43.81128906 -103.22023438 44.06007813 -101.94921875 44.31640625 C-99 45 -99 45 -97 46 C-90.24765437 46.5194112 -86.32909917 44.8839685 -81.09765625 40.65234375 C-80.0832138 39.75045014 -79.071621 38.8453438 -78.0625 37.9375 C-61.14717889 23.24498643 -23.43832319 -4.36061827 0 0 Z " fill="#E9811B" transform="translate(1391,986)"/>
<path d="M0 0 C1.20418057 29.83691858 -8.61640782 55.21313588 -24.40698242 80.0625 C-24.85920166 80.77921875 -25.3114209 81.4959375 -25.77734375 82.234375 C-26.18202881 82.86569336 -26.58671387 83.49701172 -27.00366211 84.14746094 C-29.62190214 89.01568082 -29.81816667 94.79389352 -28.46582031 100.09326172 C-27.74096254 102.2333418 -26.94976582 104.33398857 -26.125 106.4375 C-25.56980113 107.9441681 -25.01767337 109.45197174 -24.46875 110.9609375 C-24.08009766 112.02199707 -24.08009766 112.02199707 -23.68359375 113.10449219 C-20.47874942 121.99106769 -20.79396484 130.67118568 -21 140 C-25.59756302 139.42703043 -29.19096394 138.15031977 -33.375 136.1875 C-51.01642821 128.26018885 -75.67078574 123.64766301 -94.41796875 130.1484375 C-96.19424321 130.90880822 -96.19424321 130.90880822 -97 133 C-97.35341636 136.74621343 -97.3446294 139.26379478 -95.73828125 142.6953125 C-91.3038038 146.42761163 -86.4830022 145.60823578 -80.875 145.5625 C-61.379047 145.87055032 -43.15328634 149.67624759 -26.5390625 160.41015625 C-24.5361782 162.47912556 -24.33194574 164.18794534 -24 167 C-28.21025842 168.40341947 -31.16395909 166.77774762 -35.1875 165.375 C-62.95812376 155.95208725 -62.95812376 155.95208725 -91.3125 158.75 C-94.30080882 160.38985589 -96.69478737 161.73696842 -98 165 C-98.3309316 168.60030189 -98.3309316 168.60030189 -97 172 C-93.15011044 174.22109013 -89.38024518 175.33632649 -85 176 C-89.88191769 187.03217674 -105.22245807 194.73825199 -116 199 C-129.26850564 203.87414493 -143.07159763 203.05989447 -156.06640625 197.74609375 C-163.22001201 194.39312655 -169.00734155 190.09186327 -175 185 C-176.87163365 183.51657608 -178.74655554 182.03728996 -180.625 180.5625 C-182.10348384 179.40018425 -183.56930477 178.220657 -185 177 C-185 176.67 -185 176.34 -185 176 C-183.94039062 175.95101563 -182.88078125 175.90203125 -181.7890625 175.8515625 C-180.40101503 175.77653291 -179.01299549 175.70098515 -177.625 175.625 C-176.57699219 175.57859375 -176.57699219 175.57859375 -175.5078125 175.53125 C-171.29814173 175.40500502 -171.29814173 175.40500502 -168 173 C-167.71896929 170.92645161 -167.71896929 170.92645161 -167.8125 168.625 C-167.81894531 167.85414063 -167.82539062 167.08328125 -167.83203125 166.2890625 C-167.99404849 164.08110656 -168.39365106 162.12464668 -169 160 C-188.25551707 152.73050142 -209.53650855 157.59917763 -228.08764648 164.57446289 C-232.76924237 166.32231545 -237.02099052 167.50544067 -242 168 C-242.495 166.02 -242.495 166.02 -243 164 C-225.10620181 149.84841441 -204.59459821 145.56397753 -182.22460938 146.21484375 C-175.08236725 146.42972157 -175.08236725 146.42972157 -169 143 C-167.2122777 139.99337613 -166.9813524 138.31700917 -167.1875 134.8125 C-167.76080804 131.69333098 -167.76080804 131.69333098 -171 130 C-192.99534227 124.24172042 -220.00561837 129.92662771 -239.75 140.4375 C-243.19015409 142.09142024 -243.62922446 142.12114926 -247 141 C-247.27120851 124.07241653 -247.34706137 108.51999904 -241.58911133 92.4140625 C-239.59432608 86.64629183 -240.06827215 83.97019301 -242.63671875 78.5390625 C-243.31679519 77.23253813 -244.00059052 75.92794484 -244.6875 74.625 C-253.27406262 57.82069356 -259.70845292 39.95601277 -262.875 21.3125 C-262.99512451 20.60697998 -263.11524902 19.90145996 -263.23901367 19.17456055 C-264.01890772 14.08202734 -264.090967 9.14974304 -264 4 C-257.62546375 5.19776018 -251.87951335 7.04319458 -245.9375 9.625 C-245.11459473 9.97836426 -244.29168945 10.33172852 -243.44384766 10.69580078 C-228.67919303 17.11212304 -214.37533844 24.54418454 -200.8984375 33.37744141 C-190.50906035 40.15534265 -178.50685406 38.81196177 -166.73828125 36.51171875 C-156.76833679 34.72334149 -146.98186435 34.49329593 -136.875 34.5625 C-135.98556702 34.56421204 -135.09613403 34.56592407 -134.17974854 34.56768799 C-118.50073095 34.61936431 -103.24979271 35.69007255 -88.11328125 40.10546875 C-79.3662516 42.61873072 -72.82384443 40.16022387 -65 36 C-60.17140769 32.87462477 -55.58344728 29.47130531 -51 26 C-11.6660015 -3.62048322 -11.6660015 -3.62048322 0 0 Z " fill="#FEFEFD" transform="translate(1380,1011)"/>
<path d="M0 0 C10.17459859 1.85149345 20.25827983 3.43914245 30.5559082 4.4609375 C79.46414595 9.4458852 126.66331874 35.3903028 158.2746582 73.1171875 C183.57205599 104.22436666 204.5453957 147.54806318 200.3684082 188.7109375 C197.92759639 202.13540249 186.80823366 210.29879456 177.31811523 219.11010742 C160.96730846 234.34512623 149.04680735 251.96562742 138.7434082 271.7109375 C133.44680482 281.2855667 124.88024968 289.29839766 114.3684082 292.7109375 C102.95109125 294.1524535 93.91266764 292.49422908 84.3684082 285.7109375 C77.96708525 280.73192525 72.47147663 274.99518632 67.3684082 268.7109375 C64.04137176 268.99201472 62.70877792 269.32975109 60.4465332 271.86328125 C59.84325195 272.78238281 59.2399707 273.70148438 58.6184082 274.6484375 C55.1948137 279.6317414 51.49193182 284.06407065 47.3918457 288.5 C45.78330811 290.25759127 44.27915447 292.02968888 42.8059082 293.8984375 C39.61721398 297.57770006 36.11328257 300.60836931 32.3684082 303.7109375 C31.83393066 304.15775879 31.29945313 304.60458008 30.7487793 305.06494141 C22.34805038 312.06054153 13.92146028 318.34486542 4.3684082 323.7109375 C3.40676758 324.26523438 2.44512695 324.81953125 1.4543457 325.390625 C-15.1997028 334.41343834 -34.463199 336.56610526 -52.77294922 331.69067383 C-83.15675608 322.54692178 -107.6807193 298.32837233 -126.16650391 273.54833984 C-128.80253195 270.02522999 -131.3879564 266.71169199 -134.6315918 263.7109375 C-134.8378418 264.5153125 -135.0440918 265.3196875 -135.2565918 266.1484375 C-139.25352963 276.50414008 -146.83215649 284.37124918 -156.5065918 289.7109375 C-165.06937667 293.26165506 -176.00942911 293.37450013 -184.8659668 290.75390625 C-192.16458238 287.27047609 -197.78308153 282.11428551 -202.3815918 275.5234375 C-203.01883179 274.6252832 -203.01883179 274.6252832 -203.66894531 273.70898438 C-207.00099546 268.89404614 -209.80926812 263.86936861 -212.5690918 258.7109375 C-218.72954023 247.23854378 -226.66205131 237.6147323 -235.4675293 228.0625 C-236.91120296 226.49374269 -238.33331517 224.90486864 -239.7331543 223.296875 C-243.47625532 219.00932291 -247.30258949 215.074482 -251.5925293 211.34521484 C-259.75466028 204.21027512 -266.05772422 195.9989096 -266.8347168 184.77734375 C-267.39046855 143.23490019 -249.79580011 102.6850621 -222.6315918 71.7109375 C-221.52364258 70.43863281 -221.52364258 70.43863281 -220.39331055 69.140625 C-218.17204166 66.63162698 -215.91556742 64.16291133 -213.6315918 61.7109375 C-212.94709961 60.97230469 -212.26260742 60.23367188 -211.55737305 59.47265625 C-183.99522624 30.78968277 -143.66781582 10.54412541 -104.3737793 5.37890625 C-102.60719942 5.13796986 -100.84068141 4.89657948 -99.07421875 4.65478516 C-98.16435211 4.531297 -97.25448547 4.40780884 -96.31704712 4.28057861 C-77.51057996 1.72522518 -77.51057996 1.72522518 -58.9440918 -2.1640625 C-38.77329113 -6.85507417 -20.05667117 -3.65308906 0 0 Z M-57.29956055 17.93994141 C-65.27981528 19.7911455 -73.31195424 20.76721336 -81.43127441 21.77841187 C-120.68435276 26.70484626 -158.39100284 38.14443879 -188.6315918 64.7109375 C-189.45916992 65.41734375 -190.28674805 66.12375 -191.1394043 66.8515625 C-215.85150449 88.38749935 -232.57430626 117.36765853 -243.0065918 148.2109375 C-243.24539063 148.91605469 -243.48418945 149.62117188 -243.73022461 150.34765625 C-246.75522048 159.6809286 -248.01141385 168.65568688 -248.0690918 178.4609375 C-248.10196289 179.46253906 -248.13483398 180.46414063 -248.16870117 181.49609375 C-248.25864715 187.75527618 -248.25864715 187.75527618 -245.4362793 193.140625 C-242.79205676 195.56388187 -240.14908019 197.88256014 -237.3190918 200.0859375 C-219.40267112 214.44312293 -205.80863231 233.32437033 -194.38549805 253.0546875 C-187.12896889 265.94700982 -187.12896889 265.94700982 -175.6315918 274.7109375 C-169.68704981 275.49606569 -165.43094138 274.10515431 -160.6315918 270.7109375 C-154.8356348 265.51742764 -151.1254865 260.40494288 -149.6315918 252.7109375 C-149.35047278 246.68959308 -149.65833046 240.6821008 -149.92456055 234.6640625 C-150.17665243 224.4050191 -150.17665243 224.4050191 -147.3112793 221.38671875 C-144.0149432 219.3253074 -142.45115411 218.99476957 -138.6315918 219.7109375 C-134.07833558 222.64735273 -132.07557807 226.15909277 -129.8815918 230.9609375 C-129.19070462 232.39994119 -128.49659285 233.83740036 -127.79956055 235.2734375 C-127.4442627 236.00820312 -127.08896484 236.74296875 -126.72290039 237.5 C-121.38174249 248.32092304 -115.25634479 258.33322683 -107.6315918 267.7109375 C-107.18976563 268.25959473 -106.74793945 268.80825195 -106.29272461 269.37353516 C-90.68914508 288.63098003 -67.11154065 312.75506912 -41.22875977 316.01342773 C-38.75051899 316.14717802 -36.30068101 316.17873891 -33.8190918 316.1484375 C-32.94325439 316.14086426 -32.06741699 316.13329102 -31.16503906 316.12548828 C-24.07924207 315.94613416 -18.08007695 314.75447031 -11.6315918 311.7109375 C-10.73698242 311.2984375 -9.84237305 310.8859375 -8.9206543 310.4609375 C2.29652797 304.80413498 11.80028462 296.45584379 20.9387207 287.953125 C22.95403456 286.09333375 25.00138175 284.32660369 27.1184082 282.5859375 C43.33517098 268.74609976 55.06792351 248.32648027 63.9699707 229.27319336 C64.35668945 228.46245361 64.7434082 227.65171387 65.1418457 226.81640625 C65.47619629 226.09606201 65.81054688 225.37571777 66.1550293 224.63354492 C67.61463301 222.32079256 69.03682823 221.12862774 71.3684082 219.7109375 C77.4369658 219.07214196 77.4369658 219.07214196 80.06005859 220.87109375 C81.90437779 223.46463536 81.73730784 225.36001653 81.73950195 228.5234375 C81.7569043 229.68230469 81.77430664 230.84117187 81.79223633 232.03515625 C81.80123464 234.45441596 81.8065422 236.87369267 81.80786133 239.29296875 C81.98265463 250.22659144 83.92013818 258.99799688 91.63012695 267.0546875 C96.65423631 271.84170406 100.10950449 274.12434948 107.2512207 273.98046875 C111.73149575 273.41010163 114.94707081 271.34022958 117.84350586 268.02001953 C121.41084888 263.24459767 124.34456227 258.35422848 127.1184082 253.0859375 C138.51369374 232.05832877 154.452748 212.08368735 173.27075195 197.20703125 C178.44662325 193.01599804 181.87176339 189.40297628 182.7824707 182.6328125 C184.01626597 152.63210664 167.23907367 119.56566348 150.3684082 95.7109375 C149.73926514 94.81713379 149.73926514 94.81713379 149.09741211 93.90527344 C134.89457663 74.06266583 116.44067272 57.8576104 95.3684082 45.7109375 C93.69584961 44.72480469 93.69584961 44.72480469 91.98950195 43.71875 C68.93426094 30.5195764 43.02686328 24.8073549 16.87231445 22 C14.62100905 21.75784333 12.369707 21.51565559 10.1184082 21.2734375 C8.99708496 21.15436035 7.87576172 21.0352832 6.72045898 20.91259766 C0.72423888 20.2357335 -4.79682249 19.26554641 -10.5690918 17.5234375 C-25.47614074 13.44643045 -42.35925316 14.41166183 -57.29956055 17.93994141 Z " fill="#E9811B" transform="translate(868.631591796875,962.2890625)"/>
<path d="M0 0 C5.7870844 3.78627848 10.38760126 8.39529697 15.0078125 13.51953125 C17.17500805 15.64754076 17.17500805 15.64754076 19.9296875 15.96484375 C22.97067389 15.32697831 23.6363492 14.43935286 25.45703125 11.9609375 C33.32669416 2.35756915 44.95555816 -4.69182771 57.33203125 -6.5390625 C74.02028157 -7.66515019 87.33413204 -3.90998562 100.51953125 6.6484375 C109.64869209 15.03988837 115.52099717 27.58815728 116.53515625 39.93359375 C116.84659581 57.14062946 109.94894251 69.30842937 98.33203125 81.4609375 C96.66421325 83.31406861 94.99761384 85.16829695 93.33203125 87.0234375 C87.90406391 92.99271987 82.1867355 98.6680867 76.43359375 104.32250977 C73.15429477 107.56150837 69.97185546 110.8188889 66.97265625 114.3203125 C61.69638771 120.44943264 55.82536976 126.00993759 50.0703125 131.68359375 C45.51995854 136.19455071 41.10493418 140.74029855 36.93212891 145.60302734 C34.29796308 148.66161781 31.56209977 151.60959942 28.76953125 154.5234375 C28.23134766 155.11576172 27.69316406 155.70808594 27.13867188 156.31835938 C26.60306641 156.87201172 26.06746094 157.42566406 25.515625 157.99609375 C25.04697021 158.4950415 24.57831543 158.99398926 24.09545898 159.50805664 C22.33203125 160.4609375 22.33203125 160.4609375 19.44140625 160.390625 C15.70874887 159.2745792 14.10920878 157.82839123 11.3984375 155.05078125 C10.05362305 153.68856445 10.05362305 153.68856445 8.68164062 152.29882812 C7.75249081 151.3321402 6.82345496 150.36534271 5.89453125 149.3984375 C4.52071289 148.00334961 4.52071289 148.00334961 3.11914062 146.58007812 C-0.78591712 142.59092007 -4.62372666 138.57141275 -8.265625 134.33984375 C-12.16545771 129.80972341 -16.40782949 125.64959792 -20.66796875 121.4609375 C-25.68919265 116.52396232 -30.55383351 111.54874175 -35.14453125 106.20703125 C-37.05399187 104.01849561 -39.08387502 101.98281947 -41.16796875 99.9609375 C-44.56302771 96.60602282 -47.76719003 93.16628627 -50.86328125 89.53515625 C-52.13741093 88.07073448 -53.44879585 86.63833183 -54.78515625 85.23046875 C-67.92993069 71.28973046 -76.13193754 56.8009012 -75.94140625 37.34765625 C-75.0615726 24.84144938 -68.56394897 14.5493395 -59.60546875 6.05078125 C-42.25647559 -8.18518693 -19.54950898 -11.27746199 0 0 Z " fill="#F9A43C" transform="translate(1204.66796875,309.5390625)"/>
<path d="M0 0 C1.10472656 0.44601562 2.20945312 0.89203125 3.34765625 1.3515625 C17.5882806 7.79675026 28.0341302 18.59938052 34.375 32.8125 C41.66066059 53.56660653 40.94007815 76.5090071 32.5625 96.8046875 C25.5557525 111.13348613 15.12944511 121.46931537 0 127 C-8.44052376 129.66390719 -16.24466624 130.41686616 -25.0625 130.25 C-26.15626953 130.24484375 -27.25003906 130.2396875 -28.37695312 130.234375 C-35.34832287 130.1680205 -42.00275016 129.63611362 -49 129 C-49.33 142.86 -49.66 156.72 -50 171 C-57.24900997 173.71837874 -61.11783183 174.49555072 -68.4375 174.4375 C-69.32759766 174.45748047 -70.21769531 174.47746094 -71.13476562 174.49804688 C-78.17454123 174.4929046 -84.51968022 173.12089243 -89.88647461 168.30834961 C-96.62389677 161.26762149 -96.29174577 153.06214244 -96.25878906 143.8293457 C-96.2622937 142.61864914 -96.26579834 141.40795258 -96.26940918 140.16056824 C-96.27668231 136.85440867 -96.2750058 133.54850083 -96.26865101 130.24235559 C-96.26356261 126.76729528 -96.26829085 123.29224521 -96.27142334 119.81718445 C-96.27505716 113.97746875 -96.27028177 108.1378037 -96.26074219 102.2980957 C-96.24988425 95.57429018 -96.25336614 88.85060622 -96.264395 82.1268037 C-96.27351512 76.33203264 -96.27472944 70.53729787 -96.26951766 64.74252194 C-96.2664205 61.29149114 -96.26592533 57.84051714 -96.27259064 54.38949013 C-96.27770554 50.53212063 -96.26987483 46.67497958 -96.25878906 42.81762695 C-96.26283752 41.69357452 -96.26688599 40.56952209 -96.27105713 39.41140747 C-96.21653916 29.10103719 -96.12254113 18.10621689 -89 10 C-83.33028359 4.46183154 -76.40267428 1.55294073 -69 -1 C-67.89269531 -1.39574219 -66.78539062 -1.79148437 -65.64453125 -2.19921875 C-45.74730901 -8.07560045 -19.21478408 -7.95529943 0 0 Z " fill="#F9A43D" transform="translate(1203,1398)"/>
<path d="M0 0 C0.7577774 -0.0043103 1.51555481 -0.00862061 2.29629517 -0.01306152 C23.41705435 -0.06458465 44.28649578 4.64443026 60.5 18.9375 C72.80891155 31.90627072 74.90840519 48.58036951 74.625 65.61328125 C74.11264667 79.11592627 68.45620926 90.69422118 59.3515625 100.62109375 C40.82326325 117.69410513 14.91647131 117.22417157 -8.6875 118.5 C-8.70208252 119.81718018 -8.71666504 121.13436035 -8.73168945 122.49145508 C-8.78960713 127.37259238 -8.86684036 132.25326518 -8.94995117 137.1340332 C-8.98323128 139.24756336 -9.01125353 141.36118306 -9.03393555 143.47485352 C-9.06742472 146.51096806 -9.11973764 149.54625975 -9.17578125 152.58203125 C-9.18217117 153.52899368 -9.1885611 154.47595612 -9.19514465 155.45161438 C-9.21493881 156.33230087 -9.23473297 157.21298737 -9.25512695 158.12036133 C-9.26623001 158.89535477 -9.27733307 159.67034821 -9.28877258 160.46882629 C-9.79363604 163.04067196 -10.62245579 163.92403073 -12.6875 165.5 C-23.69969276 167.92810995 -40.20410573 169.26669781 -49.97265625 163.06640625 C-54.00502121 159.38308427 -56.52331001 154.52926505 -56.82172108 149.02365398 C-56.82599456 148.03130151 -56.83026804 147.03894903 -56.83467102 146.01652527 C-56.84182632 144.87674728 -56.84898163 143.7369693 -56.85635376 142.56265259 C-56.85904266 141.31116425 -56.86173157 140.0596759 -56.86450195 138.77026367 C-56.87107315 137.45297775 -56.87764435 136.13569183 -56.88441467 134.77848816 C-56.90543824 130.40832738 -56.91581484 126.03816631 -56.92578125 121.66796875 C-56.92982932 120.16272781 -56.93394626 118.65748704 -56.93813133 117.15224648 C-56.95717856 110.08079973 -56.97141107 103.00936341 -56.9797433 95.93789595 C-56.98951708 87.77804058 -57.01584198 79.61845637 -57.05624419 71.45869654 C-57.08641069 65.14946265 -57.10121264 58.84030648 -57.10452431 52.53100187 C-57.10687404 48.7636555 -57.11582411 44.99659899 -57.14098549 41.22933006 C-57.16428118 37.68419957 -57.16849382 34.13954948 -57.15822411 30.59436226 C-57.15749342 28.67751069 -57.17657381 26.76068343 -57.19628906 24.84393311 C-57.15774533 18.47029746 -57.11018589 14.28393387 -52.6875 9.5 C-38.47725238 -0.29485182 -16.58328633 0.01627051 0 0 Z " fill="#F9A43C" transform="translate(561.6875,1359.5)"/>
<path d="M0 0 C10.73184016 9.96272495 18.51308153 24.24516143 19.63427734 38.9987793 C19.67498808 42.5298886 19.71511793 46.06020896 19.71435547 49.59155273 C19.71870712 51.84111536 19.75504266 54.08867647 19.79296875 56.33789062 C19.92992953 74.01897926 14.57491481 88.68363915 2.17578125 101.41015625 C-15.11972257 118.30011032 -34.63948413 120.70618584 -57.87109375 120.453125 C-75.4344066 119.96599572 -89.98667855 113.40316735 -102.65625 101.17578125 C-105.64914228 97.68832244 -108.21500315 94.06617006 -110.65625 90.17578125 C-111.13835937 89.42039062 -111.62046875 88.665 -112.1171875 87.88671875 C-121.43332741 71.45643564 -122.44287954 48.44267466 -118.03125 30.42578125 C-113.20358642 14.02518199 -103.05531447 1.31541732 -88.65625 -7.82421875 C-61.50895058 -22.45300065 -23.65445101 -19.8742302 0 0 Z " fill="#F9A43D" transform="translate(1377.65625,1407.82421875)"/>
<path d="M0 0 C4.80112968 4.88438626 7.13316536 9.28451997 7.25 16.1875 C7.18271108 22.54630285 6.15549209 27.45260026 1.9375 32.4375 C-1.19442992 34.96324993 -3.4957772 35.32958384 -7.5234375 35.29296875 C-11.50579196 34.82187004 -15.12432276 33.44624029 -18.875 32.0703125 C-25.68937308 29.73638972 -31.70771174 28.63526813 -38.875 28.6875 C-39.66221436 28.69168945 -40.44942871 28.69587891 -41.26049805 28.70019531 C-48.66259314 28.84364381 -54.63589281 30.11609997 -61.125 33.75 C-63.70248631 36.84298357 -63.13665951 39.08242751 -63 43 C-54.35786529 46.94229759 -45.58907485 50.23958971 -36.625 53.375 C-16.88374238 60.33298424 2.81034601 68.57516595 13 88 C15.83155249 93.94878331 16.51634049 99.26123063 16.4375 105.8125 C16.42614014 107.13580322 16.42614014 107.13580322 16.41455078 108.48583984 C16.24267283 115.29697423 15.21315775 120.92294077 12 127 C11.56429688 127.85722656 11.12859375 128.71445313 10.6796875 129.59765625 C3.37653445 142.82713841 -7.53453815 149.43305934 -21.23828125 154.921875 C-32.23073934 158.07236143 -43.39884451 158.40746683 -54.75 158.375 C-55.49979126 158.37412384 -56.24958252 158.37324768 -57.02209473 158.37234497 C-73.91882655 158.30719801 -92.08764378 156.6978581 -105.3515625 144.91015625 C-110.44430821 139.28298661 -112.28943299 135.32938172 -112.3125 127.625 C-112.32925781 126.33851563 -112.34601562 125.05203125 -112.36328125 123.7265625 C-111.83376466 118.29474714 -110.01888611 115.11592288 -106.375 111.125 C-102.01834034 108.38191799 -99.0329532 108.35747421 -94 109 C-90.71596514 110.01482956 -87.66504491 111.40389995 -84.5625 112.875 C-73.63683321 117.97304402 -64.04597774 119.45399414 -52 119 C-51.15953125 118.98195313 -50.3190625 118.96390625 -49.453125 118.9453125 C-43.7830266 118.61292742 -39.27941309 116.80734354 -35 113 C-33.13592954 109.87297626 -32.4521293 107.65247134 -33 104 C-36.17925449 99.89978106 -40.10993379 98.61168708 -44.88671875 97.08203125 C-46.48244962 96.54370204 -48.07815174 96.00528759 -49.67382812 95.46679688 C-52.15750146 94.6445602 -54.64268079 93.82716786 -57.12915039 93.01342773 C-75.14304997 87.0827089 -96.98991225 79.36869392 -107 62 C-113.5203253 48.41008286 -115.30639468 35.50056931 -110.2578125 20.97265625 C-104.93307168 8.38840853 -95.37337198 0.9521984 -82.95263672 -4.23632812 C-60.78824878 -12.90477092 -20.00028035 -14.38222407 0 0 Z " fill="#F9A43D" transform="translate(1071,1370)"/>
<path d="M0 0 C12.28520284 9.43592387 20.71081227 21.92084171 24.28125 37.1171875 C25.09440187 44.44500957 24.94383277 51.13237976 20.28125 57.1171875 C12.53628777 65.35834508 -1.73338813 65.7714264 -12.25390625 67.5625 C-13.49498642 67.77784393 -14.73606659 67.99318787 -16.01475525 68.21505737 C-19.27294593 68.77996391 -22.53171627 69.34133125 -25.79089355 69.9005127 C-30.40932421 70.69333621 -35.02695745 71.49073898 -39.64414978 72.29074097 C-42.09437153 72.71505325 -44.5450131 73.13694979 -46.99610901 73.55618286 C-48.64944496 73.84185623 -48.64944496 73.84185623 -50.33618164 74.13330078 C-51.30592422 74.29968048 -52.27566681 74.46606018 -53.27479553 74.63748169 C-55.84213119 75.08743498 -55.84213119 75.08743498 -58.71875 76.1171875 C-58.33421761 78.62477193 -57.95092468 79.8803809 -56.15234375 81.71484375 C-49.07713165 86.90702484 -42.55697333 89.61825554 -33.71875 90.1171875 C-32.67203125 90.19324219 -31.6253125 90.26929688 -30.546875 90.34765625 C-18.53265264 90.82461572 -7.64270986 87.83817604 3.6484375 83.9609375 C7.13020901 82.84511755 8.84515453 82.80123604 12.28125 84.1171875 C17.38070778 90.25846999 18.96373856 96.26856901 18.28125 104.1171875 C16.27573288 111.38718708 11.54529136 115.50535786 5.28515625 119.33984375 C-6.08064483 124.99051612 -18.41802108 125.38717004 -30.84375 125.4296875 C-32.01075439 125.43516602 -33.17775879 125.44064453 -34.38012695 125.44628906 C-55.67227165 125.27258565 -73.60466525 119.58389685 -89.46875 104.9921875 C-103.31589719 90.24196549 -107.48787358 71.47292283 -107.24267578 51.76708984 C-106.64349285 34.66138347 -100.81351158 18.52637096 -88.71875 6.1171875 C-63.8061541 -15.37904317 -27.46849239 -19.0227203 0 0 Z " fill="#F9A43D" transform="translate(756.71875,1402.8828125)"/>
<path d="M0 0 C5.24941941 4.59040139 7.50242624 9.31089225 8.2487793 16.34448242 C8.41642148 18.87545838 8.53247511 21.4027034 8.625 23.9375 C8.68300781 25.24944336 8.68300781 25.24944336 8.7421875 26.58789062 C8.8356107 28.72494631 8.91885398 30.86244294 9 33 C9.88260498 33.01458252 10.76520996 33.02916504 11.67456055 33.04418945 C14.96438643 33.10542067 18.2533993 33.1796033 21.54272461 33.26245117 C22.96351202 33.29560557 24.38442813 33.32366692 25.80541992 33.34643555 C27.8539082 33.38015847 29.9012272 33.43247745 31.94921875 33.48828125 C33.79519653 33.52755737 33.79519653 33.52755737 35.6784668 33.56762695 C40.13674496 34.1479732 42.80497381 35.63425578 45.75 39 C48.41354256 43.26166809 48.21717691 47.51718295 48.25 52.375 C48.270625 53.13039063 48.29125 53.88578125 48.3125 54.6640625 C48.34489342 59.29632094 47.94649382 62.20960747 45 66 C40.63609657 69.8184155 37.04225632 70.12245527 31.36328125 70.09765625 C29.41518555 70.09282227 29.41518555 70.09282227 27.42773438 70.08789062 C26.05598892 70.07953531 24.68424413 70.07107037 23.3125 70.0625 C21.92903805 70.05748335 20.54557437 70.05292073 19.16210938 70.04882812 C15.77469605 70.03702529 12.38736967 70.02056019 9 70 C9.01629 76.31769802 9.07112239 82.63422453 9.15258789 88.95141602 C9.17576522 91.09977624 9.19016297 93.24825004 9.19555664 95.39672852 C9.20484791 98.48786173 9.24584351 101.57720912 9.29296875 104.66796875 C9.2890361 105.62648239 9.28510345 106.58499603 9.28105164 107.57255554 C9.379033 112.06460281 9.55477187 114.35834033 12.16918945 118.1262207 C15.49294552 120.3262921 17.05741234 120.53427056 21 120.3125 C22.134375 120.27382812 23.26875 120.23515625 24.4375 120.1953125 C25.613125 120.13085938 26.78875 120.06640625 28 120 C39.94907944 119.34489696 39.94907944 119.34489696 44.27734375 122.04296875 C47.53839312 127.64073377 46.70769854 133.77622123 46 140 C44.44947179 145.72569356 41.12256714 149.94825787 36 153 C21.23734028 160.11685224 4.63706031 159.40048044 -10.75 154.25 C-20.09686144 150.56295568 -28.07829174 145.19180449 -32.44140625 135.9453125 C-36.50178898 125.92738816 -37.14978123 116.97252073 -37.14526367 106.29150391 C-37.14862228 105.14262695 -37.1519809 103.99375 -37.15544128 102.81005859 C-37.16490142 99.03221543 -37.16689131 95.25441675 -37.16796875 91.4765625 C-37.17118263 88.8471983 -37.1745468 86.21783428 -37.17805481 83.58847046 C-37.18443134 78.08941356 -37.18593886 72.59036869 -37.18530273 67.09130859 C-37.18469984 60.73140142 -37.1953003 54.37157847 -37.2110464 48.01169264 C-37.22567159 41.88636143 -37.22929169 35.76107089 -37.22869301 29.63572311 C-37.22987644 27.03049753 -37.23431836 24.42527137 -37.24202538 21.82005692 C-37.25176455 18.19067488 -37.24897232 14.5615141 -37.24291992 10.93212891 C-37.24853943 9.84850067 -37.25415894 8.76487244 -37.25994873 7.64840698 C-37.25575424 6.66434875 -37.25155975 5.68029053 -37.24723816 4.66641235 C-37.24778293 3.80847391 -37.24832769 2.95053547 -37.24888897 2.06659889 C-37 0 -37 0 -35 -2 C-24.30966502 -5.26145813 -9.52204946 -6.77300589 0 0 Z " fill="#F9A43D" transform="translate(1457,1371)"/>
<path d="M0 0 C1.72573242 -0.0299707 1.72573242 -0.0299707 3.48632812 -0.06054688 C11.04905079 -0.05621294 16.82933648 0.57747253 22.7019043 5.77880859 C28.39679703 11.93660934 28.50173859 19.39235545 28.75 27.3125 C28.809655 29.01837924 28.87323731 30.72412727 28.94140625 32.4296875 C28.96533447 33.17589355 28.9892627 33.92209961 29.01391602 34.69091797 C29.00395969 36.46519602 29.00395969 36.46519602 30.1875 37.4375 C32.27603621 37.46397547 34.36545409 37.42506095 36.453125 37.359375 C37.73574219 37.33359375 39.01835938 37.3078125 40.33984375 37.28125 C42.38567451 37.2381283 44.43008437 37.187763 46.47509766 37.11523438 C48.44628645 37.04830097 50.41855306 37.01595974 52.390625 36.984375 C53.57301758 36.95182617 54.75541016 36.91927734 55.97363281 36.88574219 C60.13547852 37.60024927 61.54494931 39.22819684 64.1875 42.4375 C66.43799766 46.52375105 66.48604888 50.25717842 66.5 54.875 C66.51675781 56.15246094 66.53351563 57.42992187 66.55078125 58.74609375 C66.14584669 62.86075137 65.59026751 65.06793847 63.1875 68.4375 C56.9941357 73.51338562 49.30715503 73.09383139 41.6875 73.1875 C37.5625 73.27 33.4375 73.3525 29.1875 73.4375 C29.1875 88.9475 29.1875 104.4575 29.1875 120.4375 C37.12906676 123.14451758 37.12906676 123.14451758 44.58203125 123.51953125 C45.47470703 123.48279297 46.36738281 123.44605469 47.28710938 123.40820312 C49.11587964 123.30155777 50.94404933 123.18413609 52.77148438 123.05664062 C59.29678804 122.81461118 59.29678804 122.81461118 61.89990234 124.63500977 C65.67404928 128.91593978 66.50578848 132.92656235 66.1875 138.4375 C64.56302519 146.44101003 60.89798254 152.85309457 54.0390625 157.40625 C42.38367143 163.89786022 24.64627893 162.73348119 12.2578125 159.4765625 C0.19806153 155.39527273 -7.71997462 148.65712913 -13.52734375 137.4140625 C-17.20086472 128.90578596 -18.93569015 119.41667516 -18.9453125 110.17578125 C-18.94764893 108.86456299 -18.94998535 107.55334473 -18.95239258 106.20239258 C-18.94833717 104.71825896 -18.94333432 103.23412769 -18.9375 101.75 C-18.93495209 100.98513275 -18.93240417 100.2202655 -18.92977905 99.43222046 C-18.9124737 94.82453964 -18.88517378 90.21698127 -18.85400391 85.609375 C-18.81903762 80.19008765 -18.80204858 74.7709344 -18.79052734 69.3515625 C-18.77361776 61.73979153 -18.73488519 54.12837484 -18.6771965 46.51680279 C-18.64497838 42.1962454 -18.62131946 37.87601199 -18.61749268 33.55532837 C-18.61327811 29.41696635 -18.58504357 25.27943016 -18.53919411 21.1413269 C-18.52616072 19.5899129 -18.52176538 18.03840057 -18.52631187 16.48693848 C-18.53118496 14.34363824 -18.50535888 12.20281026 -18.47192383 10.05981445 C-18.46526199 8.84872513 -18.45860016 7.6376358 -18.45173645 6.3898468 C-17.8125 3.4375 -17.8125 3.4375 -15.44799805 1.54885864 C-10.4895172 -0.54207463 -5.30402653 -0.03235956 0 0 Z " fill="#F9A43D" transform="translate(819.8125,1367.5625)"/>
<path d="M0 0 C6.26182924 5.27886767 10.55952134 12.31257476 11.4140625 20.53125 C11.30885511 38.39897137 5.71534472 50.9546237 -6.984375 63.69921875 C-7.83128906 64.5809375 -7.83128906 64.5809375 -8.6953125 65.48046875 C-15.23634625 71.73433516 -23.6235265 74.95441969 -32.609375 75.26171875 C-44.18509243 74.70983711 -51.00182745 69.77877643 -58.984375 61.69921875 C-59.561875 61.14363281 -60.139375 60.58804687 -60.734375 60.015625 C-70.46324185 49.85605311 -73.39233553 35.90351372 -73.35229492 22.3684082 C-73.18675218 14.76991772 -71.55661576 9.66718886 -66.546875 3.88671875 C-65.70125 3.16484375 -64.855625 2.44296875 -63.984375 1.69921875 C-63.23929688 1.04953125 -62.49421875 0.39984375 -61.7265625 -0.26953125 C-58.75024715 -2.47420929 -56.01096539 -3.69485763 -52.546875 -4.98828125 C-50.90912109 -5.61283203 -50.90912109 -5.61283203 -49.23828125 -6.25 C-33.9551499 -11.18536895 -13.49246501 -9.10970852 0 0 Z " fill="#E9811B" transform="translate(866.984375,1117.30078125)"/>
<path d="M0 0 C-1.31148918 2.92468244 -2.16851221 4.14499888 -4.6875 6.3125 C-7.35428967 8.82165332 -7.35428967 8.82165332 -7.00390625 12.265625 C-5.73678268 16.97912745 -3.73146639 19.15141948 -0.25 22.4375 C0.33128662 22.99953125 0.91257324 23.5615625 1.51147461 24.140625 C18.41627331 39.98673933 37.67262935 44.73405496 60.18359375 44.37890625 C80.03342404 43.6147138 96.47799862 34.07997458 110.0625 19.9375 C113.59404014 15.91477735 115.11645928 13.35712672 115 8 C112.61426621 6.10786631 110.92824652 4.97608217 108 4 C108.33 2.68 108.66 1.36 109 0 C116.65345576 0.69809051 124.16110148 2.0299324 131.70385742 3.47412109 C133.82357869 3.8771062 135.9457804 4.26473175 138.06835938 4.65234375 C139.42726225 4.91051839 140.78599306 5.16960068 142.14453125 5.4296875 C143.36503174 5.65897949 144.58553223 5.88827148 145.84301758 6.12451172 C148.91826315 6.9773329 150.64249326 7.8970322 153 10 C152.66961431 15.64197108 150.26184178 18.51193509 146.4375 22.375 C145.88956787 22.94444336 145.34163574 23.51388672 144.77709961 24.10058594 C143.68443906 25.23262019 142.5866495 26.35972979 141.48339844 27.48144531 C140.26011801 28.73371724 139.06712053 30.0154961 137.8828125 31.3046875 C123.58139086 46.58818101 102.96220742 55.89029322 83 61 C82.26507324 61.19432617 81.53014648 61.38865234 80.77294922 61.58886719 C72.93039364 63.42550826 65.01056733 63.39730446 57 63.375 C55.90100876 63.37418427 55.90100876 63.37418427 54.77981567 63.37335205 C43.43778552 63.33462883 32.81618332 62.6181569 22 59 C21.32275879 58.78037598 20.64551758 58.56075195 19.94775391 58.33447266 C-2.41572271 50.9323662 -20.63780193 38.82968944 -37 22 C-37.928125 21.195625 -38.85625 20.39125 -39.8125 19.5625 C-42.50088168 16.41325288 -42.1930427 15.00977261 -42 11 C-34.71483665 6.61080221 -27.53833575 4.09760685 -19.3125 2.125 C-18.43440674 1.91012939 -17.55631348 1.69525879 -16.65161133 1.47387695 C-10.97767394 0.18441836 -5.81576768 -0.20034053 0 0 Z " fill="#FEFDFB" transform="translate(1192,1186)"/>
<path d="M0 0 C3.96509139 -0.09990539 7.92968163 -0.17194834 11.89575195 -0.21972656 C13.89756051 -0.24940781 15.89901919 -0.30027058 17.90039062 -0.3515625 C25.55034336 -0.42864011 31.36798235 0.04851468 38 4 C38.79792969 4.44601562 39.59585938 4.89203125 40.41796875 5.3515625 C47.61984036 10.53436635 52.51017026 18.21000455 54 27 C54.83618112 38.55450278 53.62535254 47.92673053 46.01171875 56.9609375 C38.48058953 64.59443159 29.47347462 68.07524212 18.80859375 68.328125 C16.68476197 68.31765633 14.5609529 68.29145851 12.4375 68.25 C11.34630859 68.24484375 10.25511719 68.2396875 9.13085938 68.234375 C1.15486351 68.15486351 1.15486351 68.15486351 0 67 C-0.09417773 64.91380978 -0.11742878 62.82439523 -0.11352539 60.73608398 C-0.11367142 60.08244873 -0.11381744 59.42881348 -0.1139679 58.75537109 C-0.11326883 56.58557872 -0.10547678 54.41587121 -0.09765625 52.24609375 C-0.09579205 50.74536689 -0.09436816 49.24463943 -0.09336853 47.74391174 C-0.08954352 43.78681774 -0.0797134 39.82976022 -0.06866455 35.87268066 C-0.05845006 31.83765151 -0.05387083 27.80261647 -0.04882812 23.76757812 C-0.03809111 15.84503531 -0.0210149 7.92252219 0 0 Z " fill="#FEFDFD" transform="translate(544,1588)"/>
<path d="M0 0 C6.18518917 5.56494736 10.34889693 14.12037321 11.1484375 22.3203125 C11.26926327 33.70210034 10.05541452 42.57521678 2.4375 51.375 C-3.63928259 57.58107583 -9.47926412 61.77768528 -18.4375 62.25 C-26.39429378 62.04873203 -33.71953376 58.59151016 -39.1875 52.875 C-44.78014666 44.84901429 -47.58289145 37.83816214 -47.5625 28.0625 C-47.56088867 27.26295898 -47.55927734 26.46341797 -47.55761719 25.63964844 C-47.43228231 19.61620161 -46.49652775 14.99939714 -43.1875 9.875 C-42.61 8.84375 -42.0325 7.8125 -41.4375 6.75 C-30.17199374 -7.64481356 -15.2331733 -10.15544887 0 0 Z " fill="#FEFDFB" transform="translate(656.1875,1594.125)"/>
<path d="M0 0 C6.72320272 4.41286579 11.36722977 11.28099288 14.5234375 18.59765625 C16.46778259 30.45816131 15.18027594 40.18065284 9.3359375 50.66015625 C3.18262705 58.39574653 -2.51143941 63.2986519 -12.5859375 64.82421875 C-20.76676349 65.26330263 -26.98043146 62.80658901 -33.11328125 57.42578125 C-41.3613679 48.82703658 -43.56780748 40.32441361 -43.53125 28.66943359 C-43.10557708 18.66809074 -39.31521807 10.27014167 -31.9765625 3.28515625 C-21.8509732 -4.3916341 -11.38360228 -6.4459199 0 0 Z " fill="#FEFDFC" transform="translate(1007.8515625,1591.58984375)"/>
<path d="M0 0 C9.45132009 5.37721697 14.12440708 12.57573911 17.36328125 22.890625 C19.39014705 33.61868239 17.16164612 42.99463256 11.8125 52.3125 C6.95633966 58.49306771 1.28359457 63.42630181 -6.25 65.9375 C-15.55265867 66.86776587 -22.4478599 64.9768837 -29.9375 59.4375 C-35.75114038 54.16592399 -39.93184355 45.1144397 -40.5234375 37.34765625 C-40.9029963 25.91989464 -39.35827204 16.89504891 -32.1875 7.5625 C-23.47130397 -1.47511758 -11.63767305 -5.27386996 0 0 Z " fill="#FEFDFB" transform="translate(847.25,1590.0625)"/>
<path d="M0 0 C8.77125133 4.03477561 12.92243912 13.92332597 16.421875 22.4140625 C28.79382632 56.49202001 31.60519175 93.98505937 27.6875 129.8125 C27.56987305 130.90755859 27.45224609 132.00261719 27.33105469 133.13085938 C26.59453834 139.1849861 25.81678399 145.50630524 23 151 C19.28709862 153.47526759 16.30174607 153.75322402 12 153 C9 151.3125 9 151.3125 7 148 C6.09856949 141.44327914 6.95075428 135.0494425 8 128.5625 C13.22325363 92.1876114 5.93512001 55.28686748 -7.10058594 21.38720703 C-11.73150847 9.09590395 -11.73150847 9.09590395 -11 3 C-8.81403292 -1.23531122 -4.19009904 -0.68637813 0 0 Z " fill="#E9821C" transform="translate(934,1007)"/>
<path d="M0 0 C2.69989251 4.61231637 3.37619636 7.68271708 3 13 C1.86328125 16.2265625 1.86328125 16.2265625 0.3125 19.625 C-3.76696458 29.07122147 -5.86822158 38.96775704 -8 49 C-8.18111328 49.81645996 -8.36222656 50.63291992 -8.54882812 51.47412109 C-11.01785129 63.0197654 -11.20357859 74.55499328 -11.1875 86.3125 C-11.18722809 87.06122375 -11.18695618 87.80994751 -11.18667603 88.58135986 C-11.15813967 105.7282874 -9.86673203 122.49554799 -6.87768555 139.39599609 C-5.98853242 144.69077754 -5.10693333 150.15448416 -8.25 154.87890625 C-10.51952091 156.33281808 -12.32533847 156.64694897 -15 156.9375 C-16.299375 157.10572266 -16.299375 157.10572266 -17.625 157.27734375 C-20 157 -20 157 -21.69140625 155.4140625 C-24.74914155 149.77322544 -25.72384374 143.23833753 -27 137 C-27.18771973 136.0939502 -27.37543945 135.18790039 -27.56884766 134.25439453 C-33.4816275 104.39962067 -33.05885018 72.78313525 -27 43 C-26.83983398 42.18112305 -26.67966797 41.36224609 -26.51464844 40.51855469 C-24.8705485 32.27012976 -22.56961173 24.25520463 -20 16.25 C-19.76297363 15.498396 -19.52594727 14.74679199 -19.28173828 13.97241211 C-17.48865229 8.62662993 -15.22084728 4.78901587 -10.75 1.1875 C-6.97439922 -0.44287306 -4.09303313 -0.20812033 0 0 Z " fill="#E9821D" transform="translate(735,1006)"/>
<path d="M0 0 C2.23046567 1.63337834 4.08610545 3.1736871 6.0625 5.0625 C16.11079921 14.05701754 26.83140004 19.67971198 40 23 C41.00546875 23.28617188 41.00546875 23.28617188 42.03125 23.578125 C55.88680691 26.54717291 70.23326354 20.9896426 82 14 C86.06041784 11.22559874 89.76632703 8.18774944 93.30859375 4.77734375 C99.16066474 -0.81814403 99.16066474 -0.81814403 103.75 -1.8125 C107.94290606 -0.76427348 109.47132908 0.50448432 112 4 C113.24340706 8.02278753 113.44425045 10.02687998 111.6875 13.875 C99.82577684 29.03388011 80.56200286 39.1571145 62 43 C57.76132148 43.442338 53.57214384 43.52498789 49.3125 43.5 C48.17272705 43.49427979 47.0329541 43.48855957 45.85864258 43.48266602 C26.87219472 43.08299382 11.31833241 35.26169921 -3 23 C-3.58523438 22.54753906 -4.17046875 22.09507813 -4.7734375 21.62890625 C-8.59031475 18.67421701 -11.88652203 15.37237874 -14 11 C-14.09777072 6.11146392 -12.29724917 3.49708246 -9 0 C-5.76920674 -1.61539663 -3.45429821 -0.80875869 0 0 Z " fill="#E9811C" transform="translate(786,1195)"/>
<path d="M0 0 C7.71752478 5.18748718 12.10185396 12.63225965 14.8984375 21.3203125 C17.28723607 33.89530874 14.74272956 45.59647507 7.99609375 56.296875 C4.86457763 60.39472904 1.23174718 62.86025094 -3.6875 64.5 C-9.26055482 65.09432927 -14.21187659 65.13361626 -19.03125 61.8828125 C-26.05892166 56.01536965 -30.77846803 48.99291933 -32.0690918 39.77441406 C-32.22109991 36.98420976 -32.23422322 34.23115934 -32.1875 31.4375 C-32.20296875 30.50873047 -32.2184375 29.57996094 -32.234375 28.62304688 C-32.17910642 18.7783318 -28.41216626 10.66052426 -21.6875 3.5 C-15.09021997 -2.35792968 -8.14440096 -3.31297666 0 0 Z " fill="#FEFEFD" transform="translate(1336.6875,1428.5)"/>
<path d="M0 0 C0.74540039 -0.0103125 1.49080078 -0.020625 2.25878906 -0.03125 C3.4242627 0.00355469 3.4242627 0.00355469 4.61328125 0.0390625 C5.41475586 0.05453125 6.21623047 0.07 7.04199219 0.0859375 C14.58566567 0.4036945 20.47714476 2.00532 25.78515625 7.63671875 C27.32016085 9.59202222 28.6657371 11.52283883 29.92578125 13.6640625 C30.27342529 14.24051514 30.62106934 14.81696777 30.97924805 15.41088867 C32.99108208 20.19995657 32.2518157 25.79804183 32.23828125 30.9140625 C32.25439453 32.11675781 32.27050781 33.31945313 32.28710938 34.55859375 C32.29206264 43.58344956 31.49816557 50.90389577 24.92578125 57.6640625 C18.21146244 62.66408715 13.05217469 64.02584395 4.86328125 64.0390625 C4.06083984 64.06355469 3.25839844 64.08804687 2.43164062 64.11328125 C-3.44510543 64.14254306 -3.44510543 64.14254306 -6.5703125 61.765625 C-8.88957739 58.52467822 -9.21094039 56.69094738 -9.26708984 52.74291992 C-9.28315277 51.71813034 -9.2992157 50.69334076 -9.31576538 49.63749695 C-9.36016318 44.94868585 -9.40127783 40.26001698 -9.42431641 35.57104492 C-9.44088265 33.09666544 -9.46818107 30.62233393 -9.50634766 28.14819336 C-9.56105726 24.58421961 -9.58298218 21.02136813 -9.59765625 17.45703125 C-9.62032562 16.35167526 -9.642995 15.24631927 -9.66635132 14.10746765 C-9.64529159 6.46513124 -9.64529159 6.46513124 -6.79614258 2.46850586 C-4.2106858 0.75453052 -3.03410268 0.02575951 0 0 Z " fill="#FEFEFD" transform="translate(1162.07421875,1428.3359375)"/>
<path d="M0 0 C7.44385226 4.97875926 11.59819674 11.88561993 13.39453125 20.6015625 C14.14607555 27.14674044 14.79727562 34.86804477 11.83203125 40.9140625 C8.11067702 45.01709408 4.21033898 46.40362377 -1.16650391 46.98974609 C-2.39675293 46.99312988 -3.62700195 46.99651367 -4.89453125 47 C-5.89400284 47.00430527 -5.89400284 47.00430527 -6.91366577 47.00869751 C-8.31029113 47.01072377 -9.70694581 47.00529539 -11.10351562 46.99267578 C-13.23241745 46.97654774 -15.35943613 46.99259739 -17.48828125 47.01171875 C-18.85286874 47.00973705 -20.21745506 47.0058949 -21.58203125 47 C-22.81002441 46.99661621 -24.03801758 46.99323242 -25.30322266 46.98974609 C-29.80612782 46.46042337 -32.4391744 44.95241332 -35.3828125 41.54296875 C-38.7381633 33.47083089 -37.87475265 22.02155113 -35.50390625 13.765625 C-31.96837272 6.25970622 -27.31965207 1.00585535 -19.66796875 -2.2734375 C-12.14835529 -4.66932202 -6.81254086 -3.74637424 0 0 Z " fill="#E9821D" transform="translate(1258.60546875,1147.3984375)"/>
<path d="M0 0 C2.875 0 2.875 0 6 1 C10.18747769 6.11644032 12.05704258 12.06327847 14.22265625 18.2421875 C14.60941025 19.32452667 14.99616425 20.40686584 15.39463806 21.52200317 C16.62497864 24.97031121 17.84398406 28.42249802 19.0625 31.875 C19.88530025 34.18907511 20.70886021 36.50288024 21.53320312 38.81640625 C22.69766012 42.08472351 23.86104136 45.35337277 25.01832581 48.62423706 C25.36556198 49.60530426 25.71279816 50.58637146 26.07055664 51.59716797 C26.39686066 52.52108337 26.72316467 53.44499878 27.05935669 54.39691162 C27.92510284 56.79273341 28.84290974 59.161231 29.77514648 61.53173828 C31.00716093 65.02027668 31.18446626 66.55427998 30 70 C27.6875 70.25 27.6875 70.25 25 70 C22.3024332 67.08222366 21.09752051 63.97212838 19.8125 60.25 C19.46832031 59.26515625 19.12414062 58.2803125 18.76953125 57.265625 C18.51558594 56.51796875 18.26164063 55.7703125 18 55 C13.92503897 54.90106547 9.85054344 54.82850306 5.7746582 54.78027344 C4.38846662 54.76016725 3.00235975 54.73287755 1.61645508 54.69824219 C-0.37641906 54.64968775 -2.36991389 54.62916028 -4.36328125 54.609375 C-5.56251221 54.58842773 -6.76174316 54.56748047 -7.99731445 54.54589844 C-11.07620363 54.70385022 -11.07620363 54.70385022 -12.83032227 56.86547852 C-14.15511641 59.28306882 -15.42874273 61.70324794 -16.625 64.1875 C-18.90368272 68.90368272 -18.90368272 68.90368272 -20 70 C-22.33297433 70.04092937 -24.66705225 70.04241723 -27 70 C-26.40678261 65.83549432 -25.45671488 62.11123462 -24.00634766 58.16577148 C-23.39033188 56.47888466 -23.39033188 56.47888466 -22.76187134 54.75791931 C-22.31709442 53.55776688 -21.8723175 52.35761444 -21.4140625 51.12109375 C-20.95153545 49.86381017 -20.48933167 48.60640763 -20.0274353 47.34889221 C-19.06079736 44.72097386 -18.09036586 42.09449719 -17.1171875 39.46899414 C-15.87385297 36.11375127 -14.6399028 32.7551486 -13.40876198 29.39541531 C-12.45676681 26.80059618 -11.49987667 24.20760331 -10.54151535 21.61512947 C-9.8636352 19.77879788 -9.18979129 17.94097794 -8.51602173 16.10313416 C-7.89054947 14.42097557 -7.89054947 14.42097557 -7.25244141 12.70483398 C-6.70736435 11.2297361 -6.70736435 11.2297361 -6.15127563 9.72483826 C-4.57521358 5.99461584 -2.87089216 2.87089216 0 0 Z " fill="#E98421" transform="translate(766,1586)"/>
<path d="M0 0 C2.76448641 2.13099072 3.75681211 4.42851428 4.92944336 7.6640625 C5.27667953 8.60934814 5.62391571 9.55463379 5.98167419 10.52856445 C6.34737015 11.55038818 6.7130661 12.57221191 7.08984375 13.625 C7.47564102 14.68227295 7.86143829 15.7395459 8.25892639 16.82885742 C9.49299126 20.21643633 10.71538447 23.60809422 11.9375 27 C12.75639432 29.25418508 13.57604738 31.50809469 14.39648438 33.76171875 C16.26150969 38.8894849 18.12295187 44.01847083 19.96432495 49.15478516 C20.67566868 51.1089944 21.4060177 53.05635796 22.15213013 54.99755859 C22.51901947 55.96129395 22.88590881 56.9250293 23.26391602 57.91796875 C23.7636367 59.20417114 23.7636367 59.20417114 24.27345276 60.51635742 C25.03896805 63.13320909 25.13480474 65.28866352 25 68 C22.69 68 20.38 68 18 68 C15.47221252 63.03159013 13.20439093 58.14357884 11 53 C1.1 53 -8.8 53 -19 53 C-20.32 56.96 -21.64 60.92 -23 65 C-26 68 -26 68 -29.1875 68.1875 C-30.5796875 68.0946875 -30.5796875 68.0946875 -32 68 C-31.49329544 60.4521891 -29.03755352 53.91061912 -26.4140625 46.85546875 C-25.9513464 45.59632167 -25.48914614 44.33698492 -25.0274353 43.07746887 C-24.06289237 40.45231273 -23.09227289 37.82950977 -22.1171875 35.20825195 C-20.86932929 31.85223948 -19.6368325 28.49082419 -18.40876198 25.12752819 C-17.4591269 22.53191239 -16.50153924 19.93928719 -15.54151535 17.34749794 C-14.86188114 15.50839124 -14.18889861 13.66683084 -13.51602173 11.82524109 C-13.09904022 10.71010635 -12.68205872 9.59497162 -12.25244141 8.44604492 C-11.70736435 6.97333382 -11.70736435 6.97333382 -11.15127563 5.47087097 C-8.56667494 -0.07620623 -6.04960495 -0.64817196 0 0 Z " fill="#E98420" transform="translate(506,1588)"/>
<path d="M0 0 C2.54077148 0.47045898 2.54077148 0.47045898 4.40771484 2.32958984 C4.99689697 3.2101001 5.5860791 4.09061035 6.19311523 4.99780273 C6.88002441 6.00439941 7.56693359 7.01099609 8.2746582 8.0480957 C8.64000671 8.60035828 9.00535522 9.15262085 9.3817749 9.72161865 C10.58314066 11.53439095 11.80722525 13.32992738 13.03735352 15.12329102 C15.74597661 19.07979441 18.42589761 23.05526895 21.10327148 27.03295898 C22.47470699 29.06785895 23.84674115 31.10235035 25.2197113 33.13621521 C26.06448774 34.38788684 26.90838245 35.64015433 27.75111389 36.89320374 C31.28317355 42.13084072 34.90776639 47.30248153 38.54077148 52.47045898 C38.56360703 51.84627579 38.58644257 51.22209259 38.60997009 50.57899475 C38.84768748 44.10680102 39.09204436 37.63488262 39.34033203 31.16308594 C39.43222118 28.74485641 39.52239313 26.32656101 39.61083984 23.90820312 C39.73795863 20.44048784 39.87116713 16.97305309 40.00561523 13.50561523 C40.04420151 12.41708755 40.08278778 11.32855988 40.12254333 10.20704651 C40.16250931 9.20608444 40.20247528 8.20512238 40.24365234 7.17382812 C40.27696152 6.28780411 40.31027069 5.40178009 40.34458923 4.48890686 C40.54077148 2.47045898 40.54077148 2.47045898 41.54077148 1.47045898 C44.04077148 1.34545898 44.04077148 1.34545898 46.54077148 1.47045898 C48.36633265 3.29602015 47.66849551 6.17584501 47.67016602 8.62670898 C47.67331818 9.94477539 47.67647034 11.2628418 47.67971802 12.62084961 C47.67792824 14.07071974 47.67587729 15.52058956 47.67358398 16.97045898 C47.67425706 18.44637061 47.67522711 19.92228212 47.67648315 21.39819336 C47.67795996 24.49520928 47.67580612 27.59219641 47.67114258 30.68920898 C47.66544529 34.66754447 47.66872439 38.6458125 47.67471504 42.62414551 C47.67832112 45.67293815 47.67718186 48.72171469 47.67458725 51.77050781 C47.67391811 53.23779305 47.67474596 54.70507973 47.6770668 56.17236328 C47.67959405 58.21964491 47.67506209 60.26693165 47.67016602 62.31420898 C47.66937042 63.48145508 47.66857483 64.64870117 47.66775513 65.85131836 C47.54077148 68.47045898 47.54077148 68.47045898 46.54077148 69.47045898 C43.91577148 70.09545898 43.91577148 70.09545898 40.54077148 69.47045898 C37.70807137 66.85674566 35.69320842 63.64944276 33.54077148 60.47045898 C32.71895694 59.28219599 31.89596815 58.09474455 31.07202148 56.90795898 C29.21020905 54.21693597 27.36062225 51.51794949 25.51733398 48.81420898 C22.45979158 44.33876435 19.35247372 39.89955875 16.22827148 35.47045898 C15.74914307 34.78918945 15.27001465 34.10791992 14.77636719 33.40600586 C12.31826193 29.92613501 9.83176505 26.46721968 7.31030273 23.03295898 C6.82795166 22.37424805 6.34560059 21.71553711 5.84863281 21.03686523 C4.60611471 19.33648537 4.60611471 19.33648537 2.54077148 18.47045898 C2.54077148 35.30045898 2.54077148 52.13045898 2.54077148 69.47045898 C-0.92422852 69.96545898 -0.92422852 69.96545898 -4.45922852 70.47045898 C-5.27840914 62.09110602 -5.63074452 53.79004572 -5.66235352 45.37280273 C-5.66805359 44.17611465 -5.67375366 42.97942657 -5.67962646 41.74647522 C-5.68900063 39.24147406 -5.6955799 36.736461 -5.69946289 34.23144531 C-5.70928185 30.38707743 -5.7404208 26.54322003 -5.77172852 22.69897461 C-5.77824911 20.25692047 -5.78350327 17.81486254 -5.78735352 15.37280273 C-5.79970032 14.22287338 -5.81204712 13.07294403 -5.82476807 11.88816833 C-5.82176697 10.82598587 -5.81876587 9.76380341 -5.81567383 8.66943359 C-5.81931946 7.73522079 -5.82296509 6.801008 -5.82672119 5.83848572 C-5.24414945 2.08454573 -3.67302469 0.70266242 0 0 Z " fill="#E98420" transform="translate(1332.459228515625,1586.529541015625)"/>
<path d="M0 0 C2.23468062 -0.01716382 4.46786215 -0.06104241 6.70214844 -0.10522461 C8.13182509 -0.11535641 9.56151429 -0.12387099 10.99121094 -0.13061523 C12.93592285 -0.15248901 12.93592285 -0.15248901 14.91992188 -0.17480469 C19.10519281 0.37356494 21.25104626 1.66018369 24.50683594 4.29516602 C27.19766442 9.67682298 26.05183635 17.1879877 24.60058594 22.79907227 C21.64230008 30.98176679 18.30521249 37.40176987 10.56933594 41.73266602 C6.06259729 43.70810554 2.28971716 44.16312117 -2.49707031 42.67016602 C-10.09459798 39.44085634 -13.75401824 33.4609935 -16.80566406 26.04516602 C-19.22364086 19.63803763 -21.47615248 11.98479265 -18.66894531 5.34594727 C-14.16745027 -1.56527003 -7.41115665 0.03966215 0 0 Z " fill="#FEFCFA" transform="translate(832.4931640625,1128.704833984375)"/>
<path d="M0 0 C2.90625 -0.44921875 2.90625 -0.44921875 6 0 C7.84375 1.66796875 7.84375 1.66796875 9.5 4.1875 C10.17675781 5.19167969 10.85351562 6.19585938 11.55078125 7.23046875 C11.93186035 7.81747559 12.31293945 8.40448242 12.70556641 9.00927734 C14.17298736 11.26603904 15.66894857 13.50238691 17.16796875 15.73828125 C19.55625948 19.30422083 21.9317148 22.87829643 24.30078125 26.45703125 C26.76419591 30.16622055 29.26103851 33.84896001 31.79296875 37.51171875 C32.39471924 38.38248047 32.99646973 39.25324219 33.61645508 40.15039062 C34.76994072 41.8145615 35.92720687 43.4761197 37.08862305 45.13476562 C37.60336182 45.87791016 38.11810059 46.62105469 38.6484375 47.38671875 C39.10395996 48.03858154 39.55948242 48.69044434 40.02880859 49.36206055 C41 51 41 51 41 53 C41.66 52.67 42.32 52.34 43 52 C43.33 35.17 43.66 18.34 44 1 C45.98 1 47.96 1 50 1 C51.83482017 2.83482017 51.13732904 5.77173882 51.14526367 8.23217773 C51.14862228 8.8826004 51.1519809 9.53302307 51.15544128 10.20315552 C51.16497668 12.36332077 51.16689569 14.52340873 51.16796875 16.68359375 C51.17117958 18.17953016 51.17454351 19.67546624 51.17805481 21.17140198 C51.18405259 24.31129688 51.18589405 27.45116423 51.18530273 30.59106445 C51.18520108 34.62091682 51.19885332 38.6505931 51.21607494 42.68040371 C51.22717603 45.77127397 51.22922253 48.86210142 51.22869301 51.95298958 C51.22987599 53.438992 51.23431546 54.92499543 51.24202538 56.41097832 C51.25178726 58.48692135 51.24896258 60.56247892 51.24291992 62.63842773 C51.24434494 63.82121811 51.24576996 65.00400848 51.24723816 66.22264099 C51 69 51 69 49 71 C46.36091747 70.81650551 45.22722454 70.21826209 43.31640625 68.3828125 C34.96284486 57.62923013 27.49356835 46.23164702 19.93359375 34.9140625 C19.25756104 33.90827148 18.58152832 32.90248047 17.88500977 31.86621094 C16.56213295 29.89756199 15.24601543 27.92435128 13.93725586 25.94628906 C13.3366333 25.05393555 12.73601074 24.16158203 12.1171875 23.2421875 C11.58722168 22.4466748 11.05725586 21.65116211 10.51123047 20.83154297 C9.04001464 18.71862163 9.04001464 18.71862163 6 18 C6.00222061 18.6241832 6.00444122 19.24836639 6.00672913 19.89146423 C6.0287808 26.36342804 6.0439061 32.83538125 6.05493164 39.30737305 C6.05997349 41.72567172 6.06680678 44.14396733 6.07543945 46.56225586 C6.08751157 50.02979283 6.09322963 53.49728966 6.09765625 56.96484375 C6.10281754 58.05337143 6.10797882 59.14189911 6.11329651 60.26341248 C6.11337204 61.26437454 6.11344757 62.26533661 6.11352539 63.29663086 C6.115746 64.18265488 6.11796661 65.06867889 6.12025452 65.98155212 C6 68 6 68 5 69 C2 69.125 2 69.125 -1 69 C-2.81004432 67.18995568 -2.13714022 64.40412737 -2.14526367 61.96728516 C-2.15164352 60.67569489 -2.15802338 59.38410461 -2.16459656 58.05337524 C-2.16612527 56.63193804 -2.16723921 55.21050034 -2.16796875 53.7890625 C-2.17117994 52.34036221 -2.1745439 50.89166224 -2.17805481 49.44296265 C-2.1840531 46.40142058 -2.18589404 43.35990695 -2.18530273 40.31835938 C-2.18520118 36.41863934 -2.19884354 32.51910165 -2.21607494 28.61942482 C-2.22718875 25.62544923 -2.22922212 22.63151776 -2.22869301 19.63752365 C-2.22987444 18.19979602 -2.23430536 16.76206729 -2.24202538 15.32435989 C-2.25181039 13.31343168 -2.24768682 11.30245027 -2.24291992 9.29150391 C-2.24434494 8.14646393 -2.24576996 7.00142395 -2.24723816 5.82168579 C-2 3 -2 3 0 0 Z " fill="#E98420" transform="translate(1039,1587)"/>
<path d="M0 0 C3.96509139 -0.09990539 7.92968163 -0.17194834 11.89575195 -0.21972656 C13.89756051 -0.24940781 15.89901919 -0.30027058 17.90039062 -0.3515625 C25.55034336 -0.42864011 31.36798235 0.04851468 38 4 C38.79792969 4.44601562 39.59585938 4.89203125 40.41796875 5.3515625 C47.61984036 10.53436635 52.51017026 18.21000455 54 27 C54.83618112 38.55450278 53.62535254 47.92673053 46.01171875 56.9609375 C38.48058953 64.59443159 29.47347462 68.07524212 18.80859375 68.328125 C16.68476197 68.31765633 14.5609529 68.29145851 12.4375 68.25 C11.34630859 68.24484375 10.25511719 68.2396875 9.13085938 68.234375 C1.15486351 68.15486351 1.15486351 68.15486351 0 67 C-0.09417773 64.91380978 -0.11742878 62.82439523 -0.11352539 60.73608398 C-0.11367142 60.08244873 -0.11381744 59.42881348 -0.1139679 58.75537109 C-0.11326883 56.58557872 -0.10547678 54.41587121 -0.09765625 52.24609375 C-0.09579205 50.74536689 -0.09436816 49.24463943 -0.09336853 47.74391174 C-0.08954352 43.78681774 -0.0797134 39.82976022 -0.06866455 35.87268066 C-0.05845006 31.83765151 -0.05387083 27.80261647 -0.04882812 23.76757812 C-0.03809111 15.84503531 -0.0210149 7.92252219 0 0 Z M9 7 C9 24.82 9 42.64 9 61 C24.50295963 61.6201365 24.50295963 61.6201365 37.3828125 54.90625 C43.57254147 48.25062746 45.3602502 43.1185027 45.375 34.1875 C45.41173828 33.03411133 45.41173828 33.03411133 45.44921875 31.85742188 C45.48376743 25.03405822 43.55676947 19.97850464 39.10546875 14.79296875 C38.47253906 14.26316406 37.83960938 13.73335937 37.1875 13.1875 C36.56230469 12.64480469 35.93710937 12.10210938 35.29296875 11.54296875 C25.98893963 5.28216551 21.32015761 7 9 7 Z " fill="#E98523" transform="translate(544,1588)"/>
<path d="M0 0 C6.72320272 4.41286579 11.36722977 11.28099288 14.5234375 18.59765625 C16.46778259 30.45816131 15.18027594 40.18065284 9.3359375 50.66015625 C3.18262705 58.39574653 -2.51143941 63.2986519 -12.5859375 64.82421875 C-20.76676349 65.26330263 -26.98043146 62.80658901 -33.11328125 57.42578125 C-41.3613679 48.82703658 -43.56780748 40.32441361 -43.53125 28.66943359 C-43.10557708 18.66809074 -39.31521807 10.27014167 -31.9765625 3.28515625 C-21.8509732 -4.3916341 -11.38360228 -6.4459199 0 0 Z M-29.3828125 12.37890625 C-34.47050139 20.06959875 -35.77602951 27.25567803 -34.8515625 36.41015625 C-32.92718653 44.147338 -30.22527678 49.86265771 -23.7890625 54.72265625 C-19.0026442 57.22884952 -14.10586816 57.26445343 -8.8515625 56.41015625 C-2.41245821 54.04588276 1.30277209 49.50958637 4.1484375 43.41015625 C7.22754767 35.69606044 7.56897246 26.36934526 5.2734375 18.35546875 C2.74105145 12.87418578 -0.75310992 8.68428101 -5.8515625 5.41015625 C-15.56915121 2.17096001 -23.15471127 4.37134753 -29.3828125 12.37890625 Z " fill="#E98420" transform="translate(1007.8515625,1591.58984375)"/>
<path d="M0 0 C12.87 0 25.74 0 39 0 C40 5 40 5 38.94995117 6.78051758 C36.19648402 8.50251187 34.03583248 8.43577858 30.80078125 8.51171875 C29.59228516 8.54716797 28.38378906 8.58261719 27.13867188 8.61914062 C25.2447168 8.65297852 25.2447168 8.65297852 23.3125 8.6875 C22.03826172 8.72166016 20.76402344 8.75582031 19.45117188 8.79101562 C16.30086897 8.87360784 13.15084843 8.94272335 10 9 C9.97315688 11.81256281 9.95323812 14.62487241 9.9375 17.4375 C9.92912109 18.23994141 9.92074219 19.04238281 9.91210938 19.86914062 C9.9034857 21.91295221 9.9477185 23.95683902 10 26 C11.73128845 27.73128845 14.10248605 27.17044747 16.4609375 27.2109375 C17.57210938 27.23929688 18.68328125 27.26765625 19.828125 27.296875 C22.18474 27.34878282 24.54153478 27.39310586 26.8984375 27.4296875 C28.0121875 27.460625 29.1259375 27.4915625 30.2734375 27.5234375 C31.29872559 27.54325684 32.32401367 27.56307617 33.38037109 27.58349609 C36 28 36 28 37.87353516 29.39697266 C39 31 39 31 38.75 33.125 C38 35 38 35 37 36 C35.00035018 36.08758003 32.9976389 36.10696576 30.99609375 36.09765625 C29.78115234 36.09443359 28.56621094 36.09121094 27.31445312 36.08789062 C26.03505859 36.07951172 24.75566406 36.07113281 23.4375 36.0625 C22.15423828 36.05798828 20.87097656 36.05347656 19.54882812 36.04882812 C16.3658658 36.03699555 13.18292726 36.01905944 10 36 C10 43.92 10 51.84 10 60 C13.21363281 59.96519531 13.21363281 59.96519531 16.4921875 59.9296875 C18.56395882 59.91409627 20.63572363 59.90194855 22.70751953 59.89013672 C24.14895547 59.88007037 25.59037095 59.8664162 27.03173828 59.84912109 C29.10193934 59.82489988 31.17187076 59.81352359 33.2421875 59.8046875 C35.11173096 59.78897705 35.11173096 59.78897705 37.01904297 59.77294922 C40 60 40 60 42 62 C42.1875 64.5625 42.1875 64.5625 42 67 C41 68 41 68 37.12280273 68.11352539 C35.39305834 68.11327423 33.66330895 68.10771043 31.93359375 68.09765625 C31.1286145 68.09664917 30.32363525 68.09564209 29.4942627 68.09460449 C26.47532739 68.08935614 23.45641233 68.075395 20.4375 68.0625 C10.3209375 68.0315625 10.3209375 68.0315625 0 68 C0 45.56 0 23.12 0 0 Z " fill="#E9821E" transform="translate(1457,1588)"/>
<path d="M0 0 C9.45132009 5.37721697 14.12440708 12.57573911 17.36328125 22.890625 C19.39014705 33.61868239 17.16164612 42.99463256 11.8125 52.3125 C6.95633966 58.49306771 1.28359457 63.42630181 -6.25 65.9375 C-15.55265867 66.86776587 -22.4478599 64.9768837 -29.9375 59.4375 C-35.75114038 54.16592399 -39.93184355 45.1144397 -40.5234375 37.34765625 C-40.9029963 25.91989464 -39.35827204 16.89504891 -32.1875 7.5625 C-23.47130397 -1.47511758 -11.63767305 -5.27386996 0 0 Z M-27.92578125 15.0390625 C-32.8110832 22.04276972 -33.14275448 29.58877406 -32.25 37.9375 C-30.36540024 45.62086824 -27.65603173 51.43510934 -21.1875 56.1875 C-16.68428403 58.87026696 -13.45608363 59.36422817 -8.25 58.9375 C-1.0827174 56.64064882 3.43597982 52.14872927 7.0078125 45.6484375 C10.75394629 37.39646447 10.92061658 29.77403664 8.125 21.1875 C5.63449706 15.04893643 2.41975929 10.86221019 -2.9375 7 C-13.64017009 3.56706808 -21.04538209 6.47919583 -27.92578125 15.0390625 Z " fill="#E98420" transform="translate(847.25,1590.0625)"/>
<path d="M0 0 C0.83015625 -0.02449219 1.6603125 -0.04898437 2.515625 -0.07421875 C9.46808122 -0.10691055 14.71585947 1.5335719 19.93359375 6.2265625 C20.61615234 7.10441406 20.61615234 7.10441406 21.3125 8 C21.78558594 8.59039063 22.25867188 9.18078125 22.74609375 9.7890625 C25.29133759 13.36473377 25.07379848 16.27287068 25.125 20.625 C25.15078125 21.92953125 25.1765625 23.2340625 25.203125 24.578125 C24.78680911 29.39549458 23.46739204 32.60902968 20.2265625 36.203125 C19.65679688 36.67234375 19.08703125 37.1415625 18.5 37.625 C17.93539062 38.10453125 17.37078125 38.5840625 16.7890625 39.078125 C11.59138431 42.59981716 6.8380746 42.71193048 0.75 42.6875 C-0.06082031 42.70361328 -0.87164063 42.71972656 -1.70703125 42.73632812 C-2.48691406 42.73697266 -3.26679687 42.73761719 -4.0703125 42.73828125 C-4.77687988 42.74126221 -5.48344727 42.74424316 -6.21142578 42.74731445 C-8.125 42.375 -8.125 42.375 -9.85571289 41.37207031 C-11.89409329 38.16492438 -11.53132293 34.73930454 -11.48828125 31.05859375 C-11.48877975 30.24632828 -11.48927826 29.43406281 -11.48979187 28.59718323 C-11.48745283 26.88157706 -11.47773428 25.16596736 -11.46118164 23.45043945 C-11.43755712 20.81886265 -11.44062562 18.18829674 -11.44726562 15.55664062 C-11.4416899 13.89061894 -11.43458068 12.22460153 -11.42578125 10.55859375 C-11.42669266 9.76899765 -11.42760406 8.97940155 -11.42854309 8.1658783 C-11.31327453 -0.67314364 -7.53078444 0.01137581 0 0 Z " fill="#FEFDFB" transform="translate(563.125,1397.625)"/>
<path d="M0 0 C6.18518917 5.56494736 10.34889693 14.12037321 11.1484375 22.3203125 C11.26926327 33.70210034 10.05541452 42.57521678 2.4375 51.375 C-3.63928259 57.58107583 -9.47926412 61.77768528 -18.4375 62.25 C-26.39429378 62.04873203 -33.71953376 58.59151016 -39.1875 52.875 C-44.78014666 44.84901429 -47.58289145 37.83816214 -47.5625 28.0625 C-47.56088867 27.26295898 -47.55927734 26.46341797 -47.55761719 25.63964844 C-47.43228231 19.61620161 -46.49652775 14.99939714 -43.1875 9.875 C-42.61 8.84375 -42.0325 7.8125 -41.4375 6.75 C-30.17199374 -7.64481356 -15.2331733 -10.15544887 0 0 Z M-34.93359375 9.984375 C-40.06034088 17.71442364 -40.0555727 25.8317811 -39.1875 34.875 C-37.35633057 42.1245528 -34.19957515 47.66204683 -28.125 52.125 C-23.52703975 54.86421036 -19.46351501 55.52624336 -14.1875 54.875 C-7.50549642 52.91411297 -3.58626374 48.8148955 -0.1875 42.875 C3.47663896 35.44993351 4.14315633 27.15251833 2.12109375 19.1328125 C-0.60151609 11.63709168 -4.39705079 5.95406962 -11.6875 2.4375 C-21.1617292 -1.21616769 -28.87702665 2.12899097 -34.93359375 9.984375 Z " fill="#E98320" transform="translate(656.1875,1594.125)"/>
<path d="M0 0 C0.66 0.66 1.32 1.32 2 2 C1.625 5.125 1.625 5.125 1 8 C-2.66081659 9.34738388 -4.50214747 8.6084259 -8 7.0625 C-14.85875664 4.45617248 -21.63072708 3.21316301 -28.6171875 6.0703125 C-34.72142552 9.73285531 -37.39041912 14.12745925 -39.57421875 20.73828125 C-41.39969667 30.43508601 -41.23713902 42.43539696 -36 51 C-32.69910679 54.65316245 -28.88055304 58.69009923 -23.78515625 59.23828125 C-17.3572247 59.41350464 -12.44381545 58.44451419 -6.5078125 55.97265625 C-3.99417235 54.99773974 -1.66961159 54.36742041 1 54 C2 55 2 55 2.375 57.875 C2.189375 59.421875 2.189375 59.421875 2 61 C-2.37921156 64.21623413 -7.31712164 65.47556498 -12.453125 67.03515625 C-15.14550968 67.7260302 -15.14550968 67.7260302 -16 70 C-15.236875 70.268125 -14.47375 70.53625 -13.6875 70.8125 C-9.54401806 72.64334086 -9.54401806 72.64334086 -8 75 C-7.4375 78.375 -7.4375 78.375 -8 82 C-10.21562109 84.65603507 -12.90567794 86.45283897 -16 88 C-17.54023996 88.06950541 -19.08334988 88.08452357 -20.625 88.0625 C-21.44226563 88.05347656 -22.25953125 88.04445313 -23.1015625 88.03515625 C-23.72804688 88.02355469 -24.35453125 88.01195312 -25 88 C-25 86.35 -25 84.7 -25 83 C-19.555 82.505 -19.555 82.505 -14 82 C-20.81215631 73.70694014 -28.24382103 66.95913349 -37.9921875 62.30078125 C-42.60746593 59.31072733 -44.69578589 54.90736077 -46.6875 49.9375 C-47.10386719 48.91527344 -47.52023437 47.89304687 -47.94921875 46.83984375 C-51.59461877 36.98777752 -51.4174512 25.12268293 -47.25390625 15.4609375 C-37.53803966 -3.60758571 -19.66222268 -9.03934398 0 0 Z " fill="#E98522" transform="translate(727,1592)"/>
<path d="M0 0 C5.37514905 -0.04935509 10.75016685 -0.08569802 16.12548828 -0.10986328 C17.95493873 -0.11993484 19.78437303 -0.13359276 21.61376953 -0.15087891 C24.23994934 -0.17507677 26.86591675 -0.18647132 29.4921875 -0.1953125 C30.72350906 -0.21079636 30.72350906 -0.21079636 31.97970581 -0.22659302 C33.98789142 -0.22699184 35.99555382 -0.1224954 38 0 C40 2 40 2 40.1875 4.5625 C40 7 40 7 39 8 C36.78144736 8.08783542 34.56011504 8.10694609 32.33984375 8.09765625 C31.34314415 8.09553383 31.34314415 8.09553383 30.3263092 8.09336853 C28.19666101 8.08775518 26.06711661 8.07520054 23.9375 8.0625 C22.49674631 8.05748671 21.05599097 8.05292351 19.61523438 8.04882812 C16.07675042 8.03863076 12.53849187 8.0190583 9 8 C9 14.6 9 21.2 9 28 C11.78050781 27.96519531 11.78050781 27.96519531 14.6171875 27.9296875 C17.03645432 27.91093349 19.45572548 27.8927329 21.875 27.875 C23.09832031 27.85824219 24.32164063 27.84148437 25.58203125 27.82421875 C26.74863281 27.81777344 27.91523437 27.81132813 29.1171875 27.8046875 C30.19597168 27.79421387 31.27475586 27.78374023 32.38623047 27.77294922 C35 28 35 28 37 30 C37.1875 32.5625 37.1875 32.5625 37 35 C35.19605125 36.80394875 32.43322201 36.23705789 29.99609375 36.31640625 C28.78115234 36.35830078 27.56621094 36.40019531 26.31445312 36.44335938 C25.03505859 36.48267578 23.75566406 36.52199219 22.4375 36.5625 C21.15423828 36.60568359 19.87097656 36.64886719 18.54882812 36.69335938 C15.36602555 36.79984719 12.18302757 36.90046421 9 37 C8.67 44.59 8.34 52.18 8 60 C10.28679687 59.96519531 12.57359375 59.93039062 14.9296875 59.89453125 C17.14044953 59.87114618 19.35119788 59.85292372 21.56201172 59.83520508 C23.10048574 59.82010289 24.63891661 59.79961954 26.17724609 59.77368164 C28.38650141 59.73735926 30.59518848 59.72028881 32.8046875 59.70703125 C33.83914505 59.68380547 33.83914505 59.68380547 34.89450073 59.66011047 C36.83544922 59.65942383 36.83544922 59.65942383 40 60 C42 63 42 63 41.6875 65.125 C41 67 41 67 40 68 C37.12735944 68.10106874 34.27926372 68.13969672 31.40625 68.1328125 C30.54439087 68.13376923 29.68253174 68.13472595 28.79455566 68.13571167 C26.96866788 68.1363935 25.14277769 68.13453904 23.31689453 68.13037109 C20.51198922 68.12502286 17.70724405 68.13031599 14.90234375 68.13671875 C13.13281214 68.13605797 11.36328064 68.13477681 9.59375 68.1328125 C8.74897095 68.13483673 7.90419189 68.13686096 7.03381348 68.13894653 C1.11495031 68.11495031 1.11495031 68.11495031 0 67 C-0.09417773 64.91380978 -0.11742878 62.82439523 -0.11352539 60.73608398 C-0.11367142 60.08244873 -0.11381744 59.42881348 -0.1139679 58.75537109 C-0.11326883 56.58557872 -0.10547678 54.41587121 -0.09765625 52.24609375 C-0.09579205 50.74536689 -0.09436816 49.24463943 -0.09336853 47.74391174 C-0.08954352 43.78681774 -0.0797134 39.82976022 -0.06866455 35.87268066 C-0.05845006 31.83765151 -0.05387083 27.80261647 -0.04882812 23.76757812 C-0.03809111 15.84503531 -0.0210149 7.92252219 0 0 Z " fill="#E9821D" transform="translate(1272,1588)"/>
<path d="M0 0 C1 1 1 1 1.0625 3.5625 C1.041875 4.366875 1.02125 5.17125 1 6 C-0.625 7.125 -0.625 7.125 -3 8 C-3.88429688 7.69320313 -4.76859375 7.38640625 -5.6796875 7.0703125 C-9.45088553 5.85465572 -12.54482 5.73392203 -16.5 5.75 C-17.7684375 5.74484375 -19.036875 5.7396875 -20.34375 5.734375 C-23.90390317 5.99301861 -26.68745385 6.71178761 -30 8 C-30.62943393 10.85666166 -31.09665156 13.11656192 -31 16 C-26.97463696 22.10744737 -19.69297053 23.73934741 -13.08203125 25.99609375 C-5.8060242 28.51962116 -0.50180466 30.77207768 3.26953125 37.9453125 C5.20660179 43.39397081 4.57932769 48.42001538 2.625 53.75 C-0.58955928 58.62965473 -6.48542454 61.83083679 -11.9375 63.64453125 C-21.40016295 65.27540687 -30.29025039 63.94458082 -39 60 C-41 58 -41 58 -41.125 54.375 C-41.08375 53.26125 -41.0425 52.1475 -41 51 C-38.25847184 49.91764728 -37.17723307 49.93284631 -34.37109375 50.99609375 C-32.91896484 51.70958984 -32.91896484 51.70958984 -31.4375 52.4375 C-24.1767677 55.62016532 -17.98251879 56.39737501 -10.4375 53.75 C-7.81544684 51.8675003 -6.8570885 51.0855186 -6 48 C-5.55872388 43.2714943 -5.55872388 43.2714943 -7.15454102 38.92480469 C-9.52438681 36.45306712 -11.59635547 35.77722351 -14.83984375 34.703125 C-15.98517578 34.3009375 -17.13050781 33.89875 -18.31054688 33.484375 C-20.7202832 32.66426011 -23.1343851 31.85685784 -25.55273438 31.0625 C-35.36789521 27.57560756 -35.36789521 27.57560756 -37.78515625 22.9921875 C-39.48705214 18.27463204 -39.81499657 13.94819346 -39 9 C-36.26739855 3.42969705 -32.00567455 -0.80275359 -26.1953125 -3.1171875 C-17.06587335 -5.63950198 -8.29622443 -4.41401685 0 0 Z " fill="#E98522" transform="translate(1145,1592)"/>
<path d="M0 0 C2 2 2 2 2.125 4.625 C2.08375 5.40875 2.0425 6.1925 2 7 C-0.88846727 8.15538691 -2.1376973 7.96044148 -5.1953125 7.08203125 C-13.18018361 4.81117981 -21.92388745 3.48679254 -29.6875 7 C-35.27630264 10.35513525 -36.8261907 14.12416722 -39.25 20.0625 C-41.56536328 29.40814816 -40.97456288 39.67087992 -36 48 C-31.38980979 53.13706909 -24.71981303 54.69779855 -18.0625 55.4375 C-12.98263936 55.2444653 -8.57380628 53.04440933 -4 51 C-2.33590664 50.32693574 -0.66991953 49.65847626 1 49 C2 50 2 50 2.375 52.75 C1.87699475 57.06604547 0.30773655 58.2936701 -3 61 C-9.55576647 65.22952676 -19.3097765 64.91516556 -26.72265625 63.46875 C-36.0152483 60.88981043 -42.16077517 56.09062211 -47.265625 47.9921875 C-51.68889546 39.05219719 -51.2927326 27.47982217 -49.375 17.8671875 C-46.58888026 9.93172147 -40.75461598 3.31360912 -33.625 -1.0625 C-24.01002466 -5.36393634 -9.40286163 -4.57549963 0 0 Z " fill="#E98420" transform="translate(1210,1592)"/>
<path d="M0 0 C0.70672852 0.00418945 1.41345703 0.00837891 2.14160156 0.01269531 C8.80636023 0.15724707 13.2624736 1.21796849 18.6875 5.1875 C20.125 7.3125 20.125 7.3125 19.875 10.0625 C19.6275 10.805 19.38 11.5475 19.125 12.3125 C15.44317667 13.67391839 13.5304276 12.90347959 10 11.375 C3.34992141 8.82136982 -2.91086844 7.91332006 -9.6875 10.5625 C-16.67756704 14.40018386 -20.11393119 18.63276152 -22.46484375 26.21484375 C-24.188974 35.03253844 -22.92048537 43.34090423 -18.875 51.3125 C-14.95298247 56.5418567 -10.08845223 58.67854939 -3.74609375 59.6328125 C1.89643704 59.93563168 6.39346626 58.33649796 11.59375 56.26953125 C14.41280317 55.20368553 17.13044188 54.63623601 20.125 54.3125 C20.62 57.2825 20.62 57.2825 21.125 60.3125 C13.05887914 66.01285916 4.14413399 69.72585746 -5.875 68.3125 C-13.16417957 66.67902121 -19.87527297 65.06218608 -24.875 59.3125 C-31.5222604 48.33331709 -34.10373072 35.9745542 -31.1875 23.33203125 C-27.88348697 14.45249624 -22.12445989 7.07413677 -13.875 2.3125 C-9.24562499 0.3912438 -4.96132443 -0.039916 0 0 Z " fill="#E98421" transform="translate(932.875,1587.6875)"/>
<path d="M0 0 C18.81 0 37.62 0 57 0 C57 2.31 57 4.62 57 7 C51.55839076 12.44160924 41.68765989 8.65056091 34 9 C33.67 28.47 33.34 47.94 33 68 C28.99998285 69.00000429 26.94476647 68.80688405 23 68 C22.97483089 62.50887364 22.95692424 57.0177826 22.94506836 51.52661133 C22.94011345 49.6678814 22.93334763 47.80915521 22.92456055 45.95043945 C22.86618854 33.26311115 23.19203303 20.66240002 24 8 C23.30849854 8.00523682 22.61699707 8.01047363 21.90454102 8.01586914 C18.79053648 8.036575 15.67654639 8.04963963 12.5625 8.0625 C11.47388672 8.07087891 10.38527344 8.07925781 9.26367188 8.08789062 C8.22919922 8.09111328 7.19472656 8.09433594 6.12890625 8.09765625 C4.69140015 8.10551147 4.69140015 8.10551147 3.22485352 8.11352539 C1 8 1 8 0 7 C0 4.69 0 2.38 0 0 Z " fill="#E9831E" transform="translate(1391,1588)"/>
<path d="M0 0 C0.72614502 0.00008057 1.45229004 0.00016113 2.20043945 0.00024414 C4.4150722 -0.00194063 6.62920561 -0.02008844 8.84375 -0.0390625 C10.245441 -0.04199669 11.64713437 -0.04398131 13.04882812 -0.04492188 C14.33072021 -0.04903076 15.6126123 -0.05313965 16.93334961 -0.05737305 C19.99023438 0.18554688 19.99023438 0.18554688 21.99023438 2.18554688 C21.66023438 3.50554687 21.33023437 4.82554688 20.99023438 6.18554688 C17.36023437 6.84554688 13.73023438 7.50554687 9.99023438 8.18554688 C9.66023438 25.67554688 9.33023437 43.16554688 8.99023438 61.18554688 C12.62023438 61.18554688 16.25023437 61.18554688 19.99023438 61.18554688 C20.48523437 63.66054687 20.48523437 63.66054687 20.99023438 66.18554688 C17.75324897 68.09988797 15.33489318 68.44219808 11.59570312 68.45117188 C10.55736328 68.45375 9.51902344 68.45632813 8.44921875 68.45898438 C7.36962891 68.45125 6.29003906 68.44351562 5.17773438 68.43554688 C4.10974609 68.44328125 3.04175781 68.45101563 1.94140625 68.45898438 C-3.76491451 68.44486855 -8.62740046 68.12043421 -14.00976562 66.18554688 C-13.67976563 64.53554687 -13.34976562 62.88554688 -13.00976562 61.18554688 C-8.71976563 61.18554688 -4.42976563 61.18554688 -0.00976562 61.18554688 C-0.04005859 60.18402588 -0.07035156 59.18250488 -0.1015625 58.15063477 C-0.2159354 54.34667144 -0.32692192 50.54261488 -0.43701172 46.73852539 C-0.48462596 45.10861638 -0.5330948 43.47873206 -0.58251953 41.84887695 C-0.92214233 30.62399689 -1.07451762 19.41552209 -1.00976562 8.18554688 C-1.76717041 8.11843506 -2.5245752 8.05132324 -3.30493164 7.98217773 C-4.17690186 7.90491455 -5.04887207 7.82765137 -5.94726562 7.74804688 C-7.32205078 7.62623047 -7.32205078 7.62623047 -8.72460938 7.50195312 C-11.00976562 7.18554688 -11.00976562 7.18554688 -12.00976562 6.18554688 C-12.13476562 3.68554688 -12.13476562 3.68554688 -12.00976562 1.18554688 C-9.53488851 -1.28933024 -3.46895442 0.01217455 0 0 Z " fill="#E98420" transform="translate(1237.009765625,1587.814453125)"/>
<path d="M0 0 C6.22297984 1.97364368 10.38946684 6.7828527 14.35400391 11.74658203 C14.22900391 13.62158203 14.22900391 13.62158203 13.35400391 15.74658203 C9.13058847 17.44208506 4.89267084 18.28536411 0.41650391 19.03564453 C-0.22665771 19.14379486 -0.86981934 19.25194519 -1.5324707 19.3633728 C-2.88339168 19.5892025 -4.23471979 19.81260893 -5.58642578 20.03369141 C-7.64141989 20.37083126 -9.6944748 20.71833176 -11.74755859 21.06689453 C-13.06776756 21.28626853 -14.388077 21.50503885 -15.70849609 21.72314453 C-16.89572266 21.9198877 -18.08294922 22.11663086 -19.30615234 22.31933594 C-22.47543374 22.72476302 -25.45579615 22.90004819 -28.64599609 22.74658203 C-28.97599609 22.41658203 -29.30599609 22.08658203 -29.64599609 21.74658203 C-29.20774323 13.66438382 -25.47996153 7.48290804 -19.60400391 2.05615234 C-13.91748942 -1.74714737 -6.46696888 -1.22694973 0 0 Z " fill="#FEFDFB" transform="translate(722.64599609375,1424.25341796875)"/>
<path d="M0 0 C3 1 3 1 4.36621094 3.63623047 C4.81770508 4.78494629 5.26919922 5.93366211 5.734375 7.1171875 C5.97665833 7.73014679 6.21894165 8.34310608 6.46856689 8.97463989 C6.97819027 10.27212739 7.48218218 11.57183878 7.98095703 12.87353516 C8.74659222 14.86613111 9.5339073 16.84911275 10.32421875 18.83203125 C10.81642776 20.09323424 11.30735655 21.35493777 11.796875 22.6171875 C12.24385742 23.76815918 12.69083984 24.91913086 13.15136719 26.10498047 C14 29 14 29 13 32 C5.08 32 -2.84 32 -11 32 C-10.28590868 27.00136073 -9.68845013 23.63056111 -7.96875 19.1015625 C-7.57042969 18.04582031 -7.17210937 16.99007813 -6.76171875 15.90234375 C-6.34535156 14.82082031 -5.92898438 13.73929688 -5.5 12.625 C-5.08363281 11.52027344 -4.66726563 10.41554688 -4.23828125 9.27734375 C-1.14885603 1.14885603 -1.14885603 1.14885603 0 0 Z " fill="#FEFBF8" transform="translate(767,1600)"/>
<path d="M0 0 C0.99 0.33 1.98 0.66 3 1 C4.3503418 3.74389648 4.3503418 3.74389648 5.69921875 7.37109375 C5.9391304 8.00862076 6.17904205 8.64614777 6.42622375 9.30299377 C6.93150385 10.65190961 7.4313016 12.00288981 7.92602539 13.35571289 C8.68466441 15.42974782 9.45887792 17.49740524 10.23632812 19.56445312 C14 29.65796133 14 29.65796133 14 32 C6.08 32 -1.84 32 -10 32 C-11.34801579 27.95595264 -10.22454476 26.30809832 -8.69140625 22.36328125 C-8.44583481 21.72384079 -8.20026337 21.08440033 -7.94725037 20.42558289 C-7.16104147 18.38439558 -6.36197976 16.34852126 -5.5625 14.3125 C-5.02714057 12.92936679 -4.49262483 11.54590671 -3.95898438 10.16210938 C-2.64909099 6.77089222 -1.32762462 3.38432089 0 0 Z " fill="#FEFBF7" transform="translate(501,1600)"/>
<path d="M0 0 C1.29873047 0.00966797 2.59746094 0.01933594 3.93554688 0.02929688 C5.30729764 0.0543629 6.67904243 0.07975774 8.05078125 0.10546875 C9.43423049 0.12051855 10.81769526 0.13420645 12.20117188 0.14648438 C15.58893332 0.18189652 18.97591264 0.23128821 22.36328125 0.29296875 C21.58496094 6.06103516 21.58496094 6.06103516 19.58984375 8.1484375 C13.49515026 11.2813238 5.87056637 9.18669148 -0.41015625 7.4375 C-3.40440202 7.24313668 -4.38488006 8.43068865 -6.63671875 10.29296875 C-8.88671875 9.98046875 -8.88671875 9.98046875 -10.63671875 9.29296875 C-10.03618279 3.8881451 -10.03618279 3.8881451 -8.50854492 1.61206055 C-5.70026633 -0.36695722 -3.40085973 -0.04455275 0 0 Z " fill="#E98523" transform="translate(762.63671875,1569.70703125)"/>
<path d="M0 0 C3.5625 0.625 3.5625 0.625 6 2.75 C7.78129471 6.02758226 7.98018721 7.94935253 7.5625 11.625 C6.5625 12.625 6.5625 12.625 3.875 12.7578125 C2.781875 12.75523438 1.68875 12.75265625 0.5625 12.75 C-0.530625 12.75257812 -1.62375 12.75515625 -2.75 12.7578125 C-5.4375 12.625 -5.4375 12.625 -6.4375 11.625 C-6.74365962 8.25724415 -6.55152915 5.93354947 -5.375 2.75 C-3.4375 0.625 -3.4375 0.625 0 0 Z " fill="#FEFAF6" transform="translate(1246.4375,1163.375)"/>
</svg>
