<?xml version="1.0" encoding="utf-8"?>
<!-- Generator: Adobe Illustrator 28.0.0, SVG Export Plug-In . SVG Version: 6.00 Build 0)  -->
<svg version="1.1" id="Camada_1" xmlns="http://www.w3.org/2000/svg" xmlns:xlink="http://www.w3.org/1999/xlink" x="0px" y="0px"
	 viewBox="0 0 2000 2000" style="enable-background:new 0 0 2000 2000;" xml:space="preserve">
<style type="text/css">
	.st0{fill:#FE7B01;}
	.st1{fill:none;stroke:#E9811B;stroke-width:18;stroke-miterlimit:10;}
	.st2{fill:#E9811B;}
	.st3{fill:#F9A43C;}
	.st4{fill:#F9A43D;}
	.st5{fill:none;stroke:#E9811B;stroke-width:9;stroke-miterlimit:10;}
	.st6{fill:#E9821C;}
	.st7{fill:#E9821D;}
	.st8{fill:#E9811C;}
	.st9{fill:none;stroke:#E9821D;stroke-width:11;stroke-miterlimit:10;}
	.st10{fill:#E98420;}
	.st11{fill:#E98523;}
	.st12{fill:#E9821E;}
	.st13{fill:#E98320;}
	.st14{fill:#E98522;}
	.st15{fill:#E98421;}
	.st16{fill:#E9831E;}
	.st17{fill:none;stroke:#E9811B;stroke-width:14;stroke-miterlimit:10;}
</style>
<g>
	<path class="st0" d="M1017,424.3c15.3,11.3,28.6,24.8,42,38.3c10.1,10.3,10.1,10.3,20.7,20c5,4.5,9.7,9.4,14.4,14.2
		c5.1,5.2,10.2,10.2,15.7,14.9c3.3,2.9,6.3,6,9.4,9.1c4.4,4.4,8.8,8.7,13.5,12.8c2.6,2.3,5,4.8,7.5,7.2c5.5,5.6,11.2,10.8,17.5,15.5
		c0-0.7,0-1.4,0-2.1c-0.1-7.1-0.1-14.2-0.1-21.3c0-2.6,0-5.3-0.1-7.9c0-3.8-0.1-7.6-0.1-11.5c0-1.2,0-2.3,0-3.6
		c0-9.5,1.2-18.1,7.3-25.7c7.2-7.2,16.2-7.4,25.7-7.4c1.5,0,3,0,4.5,0c1.6,0,3.2,0,4.7,0c3.3,0,6.6,0,9.9,0c4.2,0,8.4,0,12.6,0
		c3.3,0,6.5,0,9.8,0c1.5,0,3.1,0,4.6,0c11.2,0,22.7,0.1,31.1,8.4c5.3,6.7,7.3,13.6,7.2,22.1c0,1,0,1,0,2.1c0,2.2,0,4.5,0,6.7
		c0,1.6,0,3.2,0,4.9c0,3.5,0,7,0,10.4c0,5.5,0,11,0,16.5c0,15.7,0.1,31.3,0,47c0,8.7,0,17.3,0,26c0,5.5,0,10.9,0,16.4
		c0,3.4,0,6.8,0,10.2c0,1.6,0,3.1,0,4.7c-0.1,10.3,0.8,18.5,7.9,26.4c0.8,0.6,1.5,1.2,2.3,1.8c4.3,3.6,8.2,7.3,12.1,11.3
		c3.3,3.4,6.7,6.7,10.3,9.8c3.9,3.3,7.5,6.9,11.1,10.6c5.3,5.4,5.3,5.4,11,10.5c3.9,3.3,7.4,6.9,11,10.5c5.3,5.4,5.3,5.4,10.9,10.4
		c4.8,4,9.1,8.5,13.4,13c3.1,3.1,6.2,6.2,9.6,9.1c4.9,4.3,9.5,8.9,14,13.6c3.2,3.2,6.4,6.3,9.8,9.3c13.3,11.5,28.5,24.7,36.2,40.7
		c0.4,0.8,0.8,1.6,1.2,2.4c4.9,12.5,2.8,29.5-2.2,41.6c-6.7,14.6-18.3,22.4-32.8,28.1c-12.1,3.9-25.7,3.1-37.2-2.1
		c-8-4.2-15-9.5-21.5-15.7c-2-1.9-4.1-3.7-6.2-5.5c-5.7-5-10.9-10.4-16.2-15.8c-3.6-3.6-7.2-7.2-11-10.5c-5.9-5-11.2-10.6-16.6-16.1
		c-3.7-3.7-7.4-7.4-11.4-10.9c-5.9-5-11.2-10.6-16.6-16.1c-3.7-3.7-7.4-7.4-11.4-10.9c-5.9-5-11.2-10.6-16.6-16.1
		c-3.7-3.7-7.4-7.4-11.4-10.9c-5.9-5-11.2-10.6-16.6-16.1c-3.7-3.7-7.4-7.4-11.4-10.9c-5.9-5-11.2-10.6-16.6-16.1
		c-4.3-4.4-8.7-8.6-13.4-12.6c-4.9-4.3-9.4-9.1-14-13.8c-4.2-4.3-8.5-8.3-13.1-12.2c-4.7-4.1-8.9-8.7-13.3-13.1
		c-3.5-3.5-7-6.9-10.7-10.2c-5.4-4.6-10.3-9.8-15.3-14.8c-3.5-3.5-7-6.9-10.7-10.2c-5.4-4.6-10.3-9.8-15.3-14.8
		c-3.5-3.5-7-6.9-10.7-10.2c-5.4-4.6-10.3-9.8-15.3-14.8c-3.5-3.5-7-6.9-10.7-10.2c-5.4-4.6-10.3-9.8-15.3-14.8
		c-3.5-3.5-7-6.9-10.7-10.1c-3-2.6-5.8-5.3-8.5-8.1c-0.8-0.8-1.5-1.6-2.3-2.4c-1.6-1.6-3.1-3.3-4.7-4.9c-0.8-0.8-1.5-1.6-2.3-2.4
		c-0.7-0.7-1.3-1.4-2-2.1c-2.7-2.1-4.8-2.4-8.2-2.7c-2,1-2,1-3.6,2.8c-0.7,0.6-1.4,1.3-2,2c-0.8,0.8-1.5,1.5-2.3,2.3
		c-1.4,1.3-2.9,2.7-4.3,4c-1.6,1.4-3.1,2.8-4.7,4.3c-2.6,2.4-5.3,4.8-7.9,7.2c-4.5,4-8.9,8.1-13.2,12.1c-4,3.7-8.1,7.4-12.2,11.1
		c-3.1,2.8-6.1,5.5-9.1,8.3c-4.6,4.3-9.3,8.5-14,12.7c-4.9,4.4-9.7,8.8-14.5,13.3c-11.3,10.4-11.3,10.4-16.9,15.4
		c-3.9,3.5-7.7,7-11.6,10.6c-4.6,4.3-9.3,8.5-14,12.7c-4.9,4.4-9.7,8.8-14.5,13.3c-11.3,10.4-11.3,10.4-16.9,15.4
		c-4.5,4-8.9,8.1-13.2,12.1c-4,3.7-8.1,7.4-12.2,11.1c-3.1,2.8-6.1,5.5-9.1,8.3c-4.6,4.3-9.3,8.5-14,12.7
		c-4.9,4.4-9.7,8.8-14.5,13.3c-4,3.7-8,7.3-12,11c-1.3,1.2-1.3,1.2-2.6,2.3c-2.5,2.2-5,4.5-7.4,6.7c-1.4,1.3-1.4,1.3-2.8,2.5
		c-14.9,13.1-31.3,18.9-51.1,17.7c-12.5-1.3-23.3-8.5-31.8-17.4c-3.7-4.5-6.1-9.3-8.3-14.8c-0.3-0.8-0.7-1.6-1-2.4
		c-3.9-11.3-4.3-28.3,0.7-39.2c0.4-0.8,0.9-1.6,1.3-2.4c0.5-0.9,0.9-1.8,1.4-2.7c5.9-10.1,14.7-18,23.5-25.5c2.7-2.3,5.4-4.8,8-7.2
		c6.1-5.6,12.3-11.2,18.5-16.8c4.6-4.1,9.2-8.3,13.7-12.5c3.2-3,6.5-5.9,9.8-8.8c4.2-3.6,8.2-7.4,12.3-11.2c2.9-2.7,5.8-5.3,8.8-7.9
		c4.1-3.6,8.1-7.3,12.1-11c4.9-4.6,9.9-9.1,14.9-13.5c5.9-5.3,11.7-10.6,17.5-15.9c3.9-3.6,7.9-7.2,11.9-10.8
		c2.9-2.6,5.8-5.3,8.7-7.9c3.2-3,6.5-5.9,9.8-8.8c4.1-3.6,8.1-7.3,12.1-11c3.3-3,6.6-6.1,9.9-9c3.9-3.5,7.7-7,11.5-10.5
		c4.6-4.3,9.3-8.5,14-12.7c4.9-4.4,9.7-8.8,14.5-13.3c11.3-10.4,11.3-10.4,16.9-15.4c5-4.5,9.9-9,14.8-13.5c3.1-2.9,6.2-5.7,9.3-8.5
		c3.6-3.3,7.2-6.6,10.9-10c1.1-1,2.2-2,3.3-3c2.6-2.4,5.3-4.9,7.8-7.4C961.1,416.8,990.1,406,1017,424.3z"/>
	<path class="st1" d="M1390.6,951.3c5.8,4.9,6.9,10,7.8,17.3c1.3,15.6,1.8,32.6-2.8,47.7c-0.2,0.8-0.5,1.6-0.7,2.4
		c-5.1,16.5-12.6,32.7-22,47.2c-2.8,5.1,0.3,12,1.7,17.4c1.9,7.2,3.1,13.8,3,21.3c0,1.4,0,2.9,0,4.3c0,2.2,0,4.4,0,6.6
		c-0.2,10.2,1.1,16.7,7.2,25.1c1.8,2.6,2.5,4.1,2.6,7.3c-0.8,3.4-0.8,3.4-2.8,5.9c-2.1,2.7-2.1,1-1.6,4.2c0.4,0.9-9.5-0.7-8.9-0.2
		c6,5.7,11.4,11.7,13.2,20c-0.8,2.6-0.8,2.6-3.3,5c-4.1,1.9-6,2.5-10.4,1.6c-2.5-1.6-4.7-3.4-6.9-5.4c-2.1-1.6-3.5-2.2-6.1-2.6
		c-0.5,0.6-1,1.3-1.5,1.9c-23,29-55.2,50.5-92.6,54.8c-17.2,1.4-35,1.3-51.9-2.8c-0.8-0.2-1.6-0.4-2.4-0.6
		c-30-7.5-59.7-24.6-77.5-50.5c-1.9-3.2-1.9-3.2-5.1-3.9c-0.2,0.6-0.5,1.2-0.7,1.8c-2,3.4-4.8,5.5-8.3,7.2c-4.5,0.5-8,0.5-12.1-1.6
		c-1.9-2.4-1.9-2.4-2-5.6c2.3-7.7,6.1-13.6,12.1-18.8c0.7,0-4.8-1.2-4.1-1.2c0-1,2.6,0.4,2.5-0.4c-0.1-0.7,0,2.3-0.9,2.1
		c-7.2-0.4-4.7-4-8.1-6.7c-1.8-3.9-1.5-5.7-0.3-9.9c0.8-1.4,1.7-2.8,2.5-4.1c2.8-5,3.1-8.8,2.8-14.4c0-0.9,0-1.8-0.1-2.7
		c-0.1-2.8-0.1-5.7-0.2-8.5c-0.4-13.3,0.1-25.5,3-38.6c1.8-8.2,2.8-13.7-1.5-21.3c-12.7-24.8-19.4-54.2-20.1-82
		c0-0.7-0.1-1.4-0.1-2.1c0-3.7,0.6-5.3,2.8-8.3c5-3.7,9.9-2.8,15.8-2.1c25,4.7,52.4,19.2,72.7,34.1c5.7,3.9,11.1,3.6,17.7,2.5
		c1.7-0.3,3.4-0.7,5.1-1c11.9-2.5,23.5-3,35.5-3c0.8,0,1.6,0,2.4,0c13.2,0,25.9,1.3,38.9,3.9c1.2,0.2,2.5,0.5,3.7,0.8
		c2.9,0.7,2.9,0.7,4.9,1.7c6.8,0.5,10.7-1.1,15.9-5.3c1-0.9,2-1.8,3-2.7C1329.5,974.5,1367.2,946.9,1390.6,951.3z"/>
	<path class="st2" d="M868.3,927.6c10.2,1.9,20.3,3.4,30.6,4.5c48.9,5,96.1,30.9,127.7,68.7c25.3,31.1,46.3,74.4,42.1,115.6
		c-2.4,13.4-13.6,21.6-23.1,30.4c-16.4,15.2-28.3,32.9-38.6,52.6c-5.3,9.6-13.9,17.6-24.4,21c-11.4,1.4-20.5-0.2-30-7
		c-6.4-5-11.9-10.7-17-17c-3.3,0.3-4.7,0.6-6.9,3.2c-0.6,0.9-1.2,1.8-1.8,2.8c-3.4,5-7.1,9.4-11.2,13.9c-1.6,1.8-3.1,3.5-4.6,5.4
		c-3.2,3.7-6.7,6.7-10.4,9.8c-0.5,0.4-1.1,0.9-1.6,1.4c-8.4,7-16.8,13.3-26.4,18.6c-1,0.6-1.9,1.1-2.9,1.7
		c-16.7,9-35.9,11.2-54.2,6.3c-30.4-9.1-54.9-33.4-73.4-58.1c-2.6-3.5-5.2-6.8-8.5-9.8c-0.2,0.8-0.4,1.6-0.6,2.4
		c-4,10.4-11.6,18.2-21.2,23.6c-8.6,3.6-19.5,3.7-28.4,1c-7.3-3.5-12.9-8.6-17.5-15.2c-0.6-0.9-0.6-0.9-1.3-1.8
		c-3.3-4.8-6.1-9.8-8.9-15c-6.2-11.5-14.1-21.1-22.9-30.6c-1.4-1.6-2.9-3.2-4.3-4.8c-3.7-4.3-7.6-8.2-11.9-12
		c-8.2-7.1-14.5-15.3-15.2-26.6c-0.6-41.5,17-82.1,44.2-113.1c1.1-1.3,1.1-1.3,2.2-2.6c2.2-2.5,4.5-5,6.8-7.4
		c0.7-0.7,1.4-1.5,2.1-2.2c27.6-28.7,67.9-48.9,107.2-54.1c1.8-0.2,3.5-0.5,5.3-0.7c0.9-0.1,1.8-0.2,2.8-0.4
		c18.8-2.6,18.8-2.6,37.4-6.4C829.5,920.7,848.2,923.9,868.3,927.6z M811,945.5c-8,1.9-16,2.8-24.1,3.8
		c-39.3,4.9-77,16.4-107.2,42.9c-0.8,0.7-1.7,1.4-2.5,2.1c-24.7,21.5-41.4,50.5-51.9,81.4c-0.2,0.7-0.5,1.4-0.7,2.1
		c-3,9.3-4.3,18.3-4.3,28.1c0,1-0.1,2-0.1,3c-0.1,6.3-0.1,6.3,2.7,11.6c2.6,2.4,5.3,4.7,8.1,6.9c17.9,14.4,31.5,33.2,42.9,53
		c7.3,12.9,7.3,12.9,18.8,21.7c5.9,0.8,10.2-0.6,15-4c5.8-5.2,9.5-10.3,11-18c0.3-6,0-12-0.3-18c-0.3-10.3-0.3-10.3,2.6-13.3
		c3.3-2.1,4.9-2.4,8.7-1.7c4.6,2.9,6.6,6.4,8.8,11.2c0.7,1.4,1.4,2.9,2.1,4.3c0.4,0.7,0.7,1.5,1.1,2.2c5.3,10.8,11.5,20.8,19.1,30.2
		c0.4,0.5,0.9,1.1,1.3,1.7c15.6,19.3,39.2,43.4,65.1,46.6c2.5,0.1,4.9,0.2,7.4,0.1c0.9,0,1.8,0,2.7,0c7.1-0.2,13.1-1.4,19.5-4.4
		c0.9-0.4,1.8-0.8,2.7-1.2c11.2-5.7,20.7-14,29.9-22.5c2-1.9,4.1-3.6,6.2-5.4c16.2-13.8,27.9-34.3,36.9-53.3
		c0.4-0.8,0.8-1.6,1.2-2.5c0.3-0.7,0.7-1.4,1-2.2c1.5-2.3,2.9-3.5,5.2-4.9c6.1-0.6,6.1-0.6,8.7,1.2c1.8,2.6,1.7,4.5,1.7,7.7
		c0,1.2,0,2.3,0.1,3.5c0,2.4,0,4.8,0,7.3c0.2,10.9,2.1,19.7,9.8,27.8c5,4.8,8.5,7.1,15.6,6.9c4.5-0.6,7.7-2.6,10.6-6
		c3.6-4.8,6.5-9.7,9.3-14.9c11.4-21,27.3-41,46.2-55.9c5.2-4.2,8.6-7.8,9.5-14.6c1.2-30-15.5-63.1-32.4-86.9
		c-0.6-0.9-0.6-0.9-1.3-1.8c-14.2-19.8-32.7-36-53.7-48.2c-1.7-1-1.7-1-3.4-2c-23.1-13.2-49-18.9-75.1-21.7
		c-2.3-0.2-4.5-0.5-6.8-0.7c-1.1-0.1-2.2-0.2-3.4-0.4c-6-0.7-11.5-1.6-17.3-3.4C842.8,941,825.9,942,811,945.5z"/>
	<path class="st3" d="M1204.3,274.8c5.8,3.8,10.4,8.4,15,13.5c2.2,2.1,2.2,2.1,4.9,2.4c3-0.6,3.7-1.5,5.5-4
		c7.9-9.6,19.5-16.7,31.9-18.5c16.7-1.1,30,2.6,43.2,13.2c9.1,8.4,15,20.9,16,33.3c0.3,17.2-6.6,29.4-18.2,41.5
		c-1.7,1.9-3.3,3.7-5,5.6c-5.4,6-11.1,11.6-16.9,17.3c-3.3,3.2-6.5,6.5-9.5,10c-5.3,6.1-11.1,11.7-16.9,17.4
		c-4.6,4.5-9,9.1-13.1,13.9c-2.6,3.1-5.4,6-8.2,8.9c-0.5,0.6-1.1,1.2-1.6,1.8c-0.5,0.6-1.1,1.1-1.6,1.7c-0.5,0.5-0.9,1-1.4,1.5
		c-1.8,1-1.8,1-4.7,0.9c-3.7-1.1-5.3-2.6-8-5.3c-1.3-1.4-1.3-1.4-2.7-2.8c-0.9-1-1.9-1.9-2.8-2.9c-1.4-1.4-1.4-1.4-2.8-2.8
		c-3.9-4-7.7-8-11.4-12.2c-3.9-4.5-8.1-8.7-12.4-12.9c-5-4.9-9.9-9.9-14.5-15.3c-1.9-2.2-3.9-4.2-6-6.2c-3.4-3.4-6.6-6.8-9.7-10.4
		c-1.3-1.5-2.6-2.9-3.9-4.3c-13.1-13.9-21.3-28.4-21.2-47.9c0.9-12.5,7.4-22.8,16.3-31.3C1162,266.7,1184.8,263.6,1204.3,274.8z"/>
	<path class="st4" d="M1070.6,1335.3c4.8,4.9,7.1,9.3,7.2,16.2c-0.1,6.4-1.1,11.3-5.3,16.2c-3.1,2.5-5.4,2.9-9.5,2.9
		c-4-0.5-7.6-1.8-11.4-3.2c-6.8-2.3-12.8-3.4-20-3.4c-0.8,0-1.6,0-2.4,0c-7.4,0.1-13.4,1.4-19.9,5c-2.6,3.1-2,5.3-1.9,9.2
		c8.6,3.9,17.4,7.2,26.4,10.4c19.7,7,39.4,15.2,49.6,34.6c2.8,5.9,3.5,11.3,3.4,17.8c0,1.3,0,1.3,0,2.7c-0.2,6.8-1.2,12.4-4.4,18.5
		c-0.4,0.9-0.9,1.7-1.3,2.6c-7.3,13.2-18.2,19.8-31.9,25.3c-11,3.2-22.2,3.5-33.5,3.5c-0.7,0-1.5,0-2.3,0
		c-16.9-0.1-35.1-1.7-48.3-13.5c-5.1-5.6-6.9-9.6-7-17.3c0-1.3,0-2.6-0.1-3.9c0.5-5.4,2.3-8.6,6-12.6c4.4-2.7,7.3-2.8,12.4-2.1
		c3.3,1,6.3,2.4,9.4,3.9c10.9,5.1,20.5,6.6,32.6,6.1c0.8,0,1.7,0,2.5-0.1c5.7-0.3,10.2-2.1,14.5-5.9c1.9-3.1,2.5-5.3,2-9
		c-3.2-4.1-7.1-5.4-11.9-6.9c-1.6-0.5-3.2-1.1-4.8-1.6c-2.5-0.8-5-1.6-7.5-2.5c-18-5.9-39.9-13.6-49.9-31c-6.5-13.6-8.3-26.5-3.3-41
		c5.3-12.6,14.9-20,27.3-25.2C1009.8,1322.4,1050.6,1320.9,1070.6,1335.3z"/>
	<path class="st4" d="M1456.6,1336.3c5.2,4.6,7.5,9.3,8.2,16.3c0.2,2.5,0.3,5.1,0.4,7.6c0.1,1.3,0.1,1.3,0.1,2.7
		c0.1,2.1,0.2,4.3,0.3,6.4c0.9,0,1.8,0,2.7,0c3.3,0.1,6.6,0.1,9.9,0.2c1.4,0,2.8,0.1,4.3,0.1c2,0,4.1,0.1,6.1,0.1
		c1.8,0,1.8,0,3.7,0.1c4.5,0.6,7.1,2.1,10.1,5.4c2.7,4.3,2.5,8.5,2.5,13.4c0,0.8,0,1.5,0.1,2.3c0,4.6-0.4,7.5-3.3,11.3
		c-4.4,3.8-8,4.1-13.6,4.1c-1.9,0-1.9,0-3.9,0c-1.4,0-2.7,0-4.1,0c-1.4,0-2.8,0-4.2,0c-3.4,0-6.8,0-10.2,0c0,6.3,0.1,12.6,0.2,19
		c0,2.1,0,4.3,0,6.4c0,3.1,0.1,6.2,0.1,9.3c0,1,0,1.9,0,2.9c0.1,4.5,0.3,6.8,2.9,10.6c3.3,2.2,4.9,2.4,8.8,2.2
		c1.1,0,2.3-0.1,3.4-0.1c1.2-0.1,2.4-0.1,3.6-0.2c11.9-0.7,11.9-0.7,16.3,2c3.3,5.6,2.4,11.7,1.7,18c-1.6,5.7-4.9,9.9-10,13
		c-14.8,7.1-31.4,6.4-46.8,1.2c-9.3-3.7-17.3-9.1-21.7-18.3c-4.1-10-4.7-19-4.7-29.7c0-1.1,0-2.3,0-3.5c0-3.8,0-7.6,0-11.3
		c0-2.6,0-5.3,0-7.9c0-5.5,0-11,0-16.5c0-6.4,0-12.7,0-19.1c0-6.1,0-12.3,0-18.4c0-2.6,0-5.2,0-7.8c0-3.6,0-7.3,0-10.9
		c0-1.1,0-2.2,0-3.3c0-1,0-2,0-3c0-0.9,0-1.7,0-2.6c0.2-2.1,0.2-2.1,2.2-4.1C1432.3,1331,1447.1,1329.5,1456.6,1336.3z"/>
	<path class="st4" d="M819.4,1332.9c1.7,0,1.7,0,3.5-0.1c7.6,0,13.3,0.6,19.2,5.8c5.7,6.2,5.8,13.6,6,21.5c0.1,1.7,0.1,3.4,0.2,5.1
		c0,0.7,0,1.5,0.1,2.3c0,1.8,0,1.8,1.2,2.7c2.1,0,4.2,0,6.3-0.1c1.3,0,2.6-0.1,3.9-0.1c2,0,4.1-0.1,6.1-0.2c2-0.1,3.9-0.1,5.9-0.1
		c1.2,0,2.4-0.1,3.6-0.1c4.2,0.7,5.6,2.3,8.2,5.6c2.3,4.1,2.3,7.8,2.3,12.4c0,1.3,0,2.6,0.1,3.9c-0.4,4.1-1,6.3-3.4,9.7
		c-6.2,5.1-13.9,4.7-21.5,4.8c-4.1,0.1-8.2,0.2-12.5,0.2c0,15.5,0,31,0,47c7.9,2.7,7.9,2.7,15.4,3.1c0.9,0,1.8-0.1,2.7-0.1
		c1.8-0.1,3.7-0.2,5.5-0.4c6.5-0.2,6.5-0.2,9.1,1.6c3.8,4.3,4.6,8.3,4.3,13.8c-1.6,8-5.3,14.4-12.1,19c-11.7,6.5-29.4,5.3-41.8,2.1
		c-12.1-4.1-20-10.8-25.8-22.1c-3.7-8.5-5.4-18-5.4-27.2c0-1.3,0-2.6,0-4c0-1.5,0-3,0-4.5c0-0.8,0-1.5,0-2.3c0-4.6,0-9.2,0.1-13.8
		c0-5.4,0.1-10.8,0.1-16.3c0-7.6,0.1-15.2,0.1-22.8c0-4.3,0.1-8.6,0.1-13c0-4.1,0-8.3,0.1-12.4c0-1.6,0-3.1,0-4.7
		c0-2.1,0-4.3,0.1-6.4c0-1.2,0-2.4,0-3.7c0.6-3,0.6-3,3-4.8C809,1332.3,814.1,1332.8,819.4,1332.9z"/>
	<path class="st5" d="M866.6,1082.6c6.3,5.3,10.6,12.3,11.4,20.5c-0.1,17.9-5.7,30.4-18.4,43.2c-0.8,0.9-0.8,0.9-1.7,1.8
		c-6.5,6.3-14.9,9.5-23.9,9.8c-11.6-0.6-18.4-5.5-26.4-13.6c-0.6-0.6-1.2-1.1-1.8-1.7c-9.7-10.2-12.7-24.1-12.6-37.6
		c0.2-7.6,1.8-12.7,6.8-18.5c0.8-0.7,1.7-1.4,2.6-2.2c0.7-0.6,1.5-1.3,2.3-2c3-2.2,5.7-3.4,9.2-4.7c1.6-0.6,1.6-0.6,3.3-1.3
		C832.7,1071.4,853.1,1073.5,866.6,1082.6z"/>
	<path class="st0" d="M1191.6,1151.3c-1.3,2.9-2.2,4.1-4.7,6.3c-2.7,2.5-2.7,2.5-2.3,6c1.3,4.7,3.3,6.9,6.8,10.2
		c0.6,0.6,1.2,1.1,1.8,1.7c16.9,15.8,36.2,20.6,58.7,20.2c19.8-0.8,36.3-10.3,49.9-24.4c3.5-4,5.1-6.6,4.9-11.9c-2.4-1.9-4.1-3-7-4
		c0.3-1.3,0.7-2.6,1-4c7.7,0.7,15.2,2,22.7,3.5c2.1,0.4,4.2,0.8,6.4,1.2c1.4,0.3,2.7,0.5,4.1,0.8c1.2,0.2,2.4,0.5,3.7,0.7
		c3.1,0.9,4.8,1.8,7.2,3.9c-0.3,5.6-2.7,8.5-6.6,12.4c-0.5,0.6-1.1,1.1-1.7,1.7c-1.1,1.1-2.2,2.3-3.3,3.4c-1.2,1.3-2.4,2.5-3.6,3.8
		c-14.3,15.3-34.9,24.6-54.9,29.7c-0.7,0.2-1.5,0.4-2.2,0.6c-7.8,1.8-15.8,1.8-23.8,1.8c-1.1,0-1.1,0-2.2,0c-11.3,0-22-0.8-32.8-4.4
		c-0.7-0.2-1.4-0.4-2.1-0.7c-22.4-7.4-40.6-19.5-56.9-36.3c-0.9-0.8-1.9-1.6-2.8-2.4c-2.7-3.1-2.4-4.6-2.2-8.6
		c7.3-4.4,14.5-6.9,22.7-8.9c0.9-0.2,1.8-0.4,2.7-0.7C1180.7,1151.5,1185.8,1151.1,1191.6,1151.3z"/>
	<path class="st6" d="M933.6,972.3c8.8,4,12.9,13.9,16.4,22.4c12.4,34.1,15.2,71.6,11.3,107.4c-0.1,1.1-0.2,2.2-0.4,3.3
		c-0.7,6.1-1.5,12.4-4.3,17.9c-3.7,2.5-6.7,2.8-11,2c-3-1.7-3-1.7-5-5c-0.9-6.6,0-13,1-19.4c5.2-36.4-2.1-73.3-15.1-107.2
		c-4.6-12.3-4.6-12.3-3.9-18.4C924.8,971.1,929.4,971.6,933.6,972.3z"/>
	<path class="st7" d="M734.6,971.3c2.7,4.6,3.4,7.7,3,13c-1.1,3.2-1.1,3.2-2.7,6.6c-4.1,9.4-6.2,19.3-8.3,29.4
		c-0.2,0.8-0.4,1.6-0.5,2.5c-2.5,11.5-2.7,23.1-2.6,34.8c0,0.7,0,1.5,0,2.3c0,17.1,1.3,33.9,4.3,50.8c0.9,5.3,1.8,10.8-1.4,15.5
		c-2.3,1.5-4.1,1.8-6.8,2.1c-1.3,0.2-1.3,0.2-2.6,0.3c-2.4-0.3-2.4-0.3-4.1-1.9c-3.1-5.6-4-12.2-5.3-18.4c-0.2-0.9-0.4-1.8-0.6-2.7
		c-5.9-29.9-5.5-61.5,0.6-91.3c0.2-0.8,0.3-1.6,0.5-2.5c1.6-8.2,3.9-16.3,6.5-24.3c0.2-0.8,0.5-1.5,0.7-2.3
		c1.8-5.3,4.1-9.2,8.5-12.8C727.7,970.9,730.5,971.1,734.6,971.3z"/>
	<path class="st8" d="M785.6,1160.3c2.2,1.6,4.1,3.2,6.1,5.1c10,9,20.8,14.6,33.9,17.9c1,0.3,1,0.3,2,0.6c13.9,3,28.2-2.6,40-9.6
		c4.1-2.8,7.8-5.8,11.3-9.2c5.9-5.6,5.9-5.6,10.4-6.6c4.2,1,5.7,2.3,8.2,5.8c1.2,4,1.4,6-0.3,9.9c-11.9,15.2-31.1,25.3-49.7,29.1
		c-4.2,0.4-8.4,0.5-12.7,0.5c-1.1,0-2.3,0-3.5,0c-19-0.4-34.5-8.2-48.9-20.5c-0.6-0.5-1.2-0.9-1.8-1.4c-3.8-3-7.1-6.3-9.2-10.6
		c-0.1-4.9,1.7-7.5,5-11C779.9,1158.7,782.2,1159.5,785.6,1160.3z"/>
	<path class="st4" d="M1397,1422.7c0-3.5,0-7.1-0.1-10.6c-1.1-14.8-8.9-29-19.6-39c-23.7-19.9-61.5-22.5-88.7-7.8
		c-14.4,9.1-24.5,21.8-29.4,38.2c-4.4,18-3.4,41,5.9,57.5c0.5,0.8,1,1.5,1.5,2.3c2.4,3.9,5,7.5,8,11c12.7,12.2,27.2,18.8,44.8,19.3
		c23.2,0.3,42.8-2.2,60-19c12.4-12.7,17.8-27.4,17.6-45.1C1397,1427.2,1397,1425,1397,1422.7z M1344.3,1450.1
		c-3.1,4.1-6.8,6.6-11.7,8.2c-5.6,0.6-10.5,0.6-15.3-2.6c-7-5.9-11.7-12.9-13-22.1c-0.2-2.8-0.2-5.5-0.1-8.3c0-0.9,0-1.9,0-2.8
		c0.1-9.8,3.8-18,10.5-25.1c6.6-5.9,13.5-6.8,21.7-3.5c7.7,5.2,12.1,12.6,14.9,21.3C1353.6,1427.7,1351.1,1439.4,1344.3,1450.1z"/>
	<path class="st4" d="M1237,1396.1c-6.3-14.2-16.8-25-31-31.5c-1.1-0.5-2.2-0.9-3.3-1.4c-19.2-8-45.7-8.1-65.6-2.2
		c-1.1,0.4-2.2,0.8-3.4,1.2c-7.4,2.6-14.3,5.5-20,11c-7.1,8.1-7.2,19.1-7.3,29.4c0,1.2,0,2.3,0,3.4c0,3.9,0,7.7,0,11.6
		c0,3.5,0,6.9,0,10.4c0,5.8,0,11.6,0,17.4c0,6.7,0,13.4,0,20.2c0,5.8,0,11.7,0,17.5c0,3.5,0,7,0,10.4c0,3.3,0,6.6,0,9.9
		c0,1.2,0,2.5,0,3.7c0,9.2-0.4,17.4,6.4,24.5c5.4,4.8,11.7,6.2,18.8,6.2c0.9,0,1.8,0,2.7-0.1c7.3,0.1,11.2-0.7,18.4-3.4
		c0.3-14.3,0.7-28.1,1-42c7,0.6,13.7,1.2,20.6,1.2c1.1,0,2.2,0,3.3,0c8.8,0.2,16.6-0.6,25.1-3.2c15.1-5.5,25.6-15.9,32.6-30.2
		C1243.6,1439.8,1244.3,1416.9,1237,1396.1z M1194,1428.2c0,9-0.8,16.3-7.4,23.1c-6.7,5-11.9,6.4-20.1,6.4c-0.8,0-1.6,0-2.4,0.1
		c-5.9,0-5.9,0-9-2.3c-2.3-3.2-2.6-5.1-2.7-9c0-1,0-2,0-3.1c0-4.7-0.1-9.4-0.1-14.1c0-2.5,0-4.9-0.1-7.4c-0.1-3.6-0.1-7.1-0.1-10.7
		c0-1.1,0-2.2-0.1-3.3c0-7.6,0-7.6,2.9-11.6c2.6-1.7,3.8-2.4,6.8-2.5c0.7,0,1.5,0,2.3,0c1.2,0,1.2,0,2.4,0.1c0.8,0,1.6,0,2.4,0
		c7.5,0.3,13.4,1.9,18.7,7.6c1.5,2,2.9,3.9,4.1,6c0.3,0.6,0.7,1.2,1.1,1.7c2,4.8,1.3,10.4,1.3,15.5
		C1194,1425.8,1194,1427,1194,1428.2z"/>
	<path class="st9" d="M1258.2,1112.7c7.4,5,11.6,11.9,13.4,20.6c0.8,6.5,1.4,14.3-1.6,20.3c-3.7,4.1-7.6,5.5-13,6.1
		c-1.2,0-2.5,0-3.7,0c-1,0-1,0-2,0c-1.4,0-2.8,0-4.2,0c-2.1,0-4.3,0-6.4,0c-1.4,0-2.7,0-4.1,0c-1.2,0-2.5,0-3.7,0
		c-4.5-0.5-7.1-2-10.1-5.4c-3.4-8.1-2.5-19.5-0.1-27.8c3.5-7.5,8.2-12.8,15.8-16C1246.1,1108,1251.4,1109,1258.2,1112.7z"/>
	<path class="st10" d="M1332.1,1551.8c2.5,0.5,2.5,0.5,4.4,2.3c0.6,0.9,1.2,1.8,1.8,2.7c0.7,1,1.4,2,2.1,3.1
		c0.4,0.6,0.7,1.1,1.1,1.7c1.2,1.8,2.4,3.6,3.7,5.4c2.7,4,5.4,7.9,8.1,11.9c1.4,2,2.7,4.1,4.1,6.1c0.8,1.3,1.7,2.5,2.5,3.8
		c3.5,5.2,7.2,10.4,10.8,15.6c0-0.6,0-1.2,0.1-1.9c0.2-6.5,0.5-12.9,0.7-19.4c0.1-2.4,0.2-4.8,0.3-7.3c0.1-3.5,0.3-6.9,0.4-10.4
		c0-1.1,0.1-2.2,0.1-3.3c0-1,0.1-2,0.1-3c0-0.9,0.1-1.8,0.1-2.7c0.2-2,0.2-2,1.2-3c2.5-0.1,2.5-0.1,5,0c1.8,1.8,1.1,4.7,1.1,7.2
		c0,1.3,0,2.6,0,4c0,1.4,0,2.9,0,4.3c0,1.5,0,3,0,4.4c0,3.1,0,6.2,0,9.3c0,4,0,8,0,11.9c0,3,0,6.1,0,9.1c0,1.5,0,2.9,0,4.4
		c0,2,0,4.1,0,6.1c0,1.2,0,2.3,0,3.5c-0.1,2.6-0.1,2.6-1.1,3.6c-2.6,0.6-2.6,0.6-6,0c-2.8-2.6-4.8-5.8-7-9c-0.8-1.2-1.6-2.4-2.5-3.6
		c-1.9-2.7-3.7-5.4-5.6-8.1c-3.1-4.5-6.2-8.9-9.3-13.3c-0.5-0.7-1-1.4-1.5-2.1c-2.5-3.5-4.9-6.9-7.5-10.4c-0.5-0.7-1-1.3-1.5-2
		c-1.2-1.7-1.2-1.7-3.3-2.6c0,16.8,0,33.7,0,51c-3.5,0.5-3.5,0.5-7,1c-0.8-8.4-1.2-16.7-1.2-25.1c0-1.2,0-2.4,0-3.6c0-2.5,0-5,0-7.5
		c0-3.8,0-7.7-0.1-11.5c0-2.4,0-4.9,0-7.3c0-1.1,0-2.3,0-3.5c0-1.1,0-2.1,0-3.2c0-0.9,0-1.9,0-2.8
		C1326.8,1553.9,1328.4,1552.5,1332.1,1551.8z"/>
	<path class="st10" d="M1038.6,1552.3c2.9-0.4,2.9-0.4,6,0c1.8,1.7,1.8,1.7,3.5,4.2c0.7,1,1.4,2,2.1,3c0.4,0.6,0.8,1.2,1.2,1.8
		c1.5,2.3,3,4.5,4.5,6.7c2.4,3.6,4.8,7.1,7.1,10.7c2.5,3.7,5,7.4,7.5,11.1c0.6,0.9,1.2,1.7,1.8,2.6c1.2,1.7,2.3,3.3,3.5,5
		c0.5,0.7,1,1.5,1.6,2.3c0.5,0.7,0.9,1.3,1.4,2c1,1.6,1,1.6,1,3.6c0.7-0.3,1.3-0.7,2-1c0.3-16.8,0.7-33.7,1-51c2,0,4,0,6,0
		c1.8,1.8,1.1,4.8,1.1,7.2c0,0.7,0,1.3,0,2c0,2.2,0,4.3,0,6.5c0,1.5,0,3,0,4.5c0,3.1,0,6.3,0,9.4c0,4,0,8.1,0,12.1
		c0,3.1,0,6.2,0,9.3c0,1.5,0,3,0,4.5c0,2.1,0,4.2,0,6.2c0,1.2,0,2.4,0,3.6c-0.2,2.8-0.2,2.8-2.2,4.8c-2.6-0.2-3.8-0.8-5.7-2.6
		c-8.4-10.8-15.8-22.2-23.4-33.5c-0.7-1-1.4-2-2-3c-1.3-2-2.6-3.9-3.9-5.9c-0.6-0.9-1.2-1.8-1.8-2.7c-0.5-0.8-1.1-1.6-1.6-2.4
		c-1.5-2.1-1.5-2.1-4.5-2.8c0,0.6,0,1.2,0,1.9c0,6.5,0,12.9,0,19.4c0,2.4,0,4.8,0,7.3c0,3.5,0,6.9,0,10.4c0,1.1,0,2.2,0,3.3
		c0,1,0,2,0,3c0,0.9,0,1.8,0,2.7c-0.1,2-0.1,2-1.1,3c-3,0.1-3,0.1-6,0c-1.8-1.8-1.1-4.6-1.1-7c0-1.3,0-2.6,0-3.9c0-1.4,0-2.8,0-4.3
		c0-1.4,0-2.9,0-4.3c0-3,0-6.1,0-9.1c0-3.9,0-7.8,0-11.7c0-3,0-6,0-9c0-1.4,0-2.9,0-4.3c0-2,0-4,0-6c0-1.1,0-2.3,0-3.5
		C1036.6,1555.3,1036.6,1555.3,1038.6,1552.3z"/>
	<path class="st11" d="M543.6,1553.3c4-0.1,7.9-0.2,11.9-0.2c2,0,4-0.1,6-0.1c7.6-0.1,13.5,0.4,20.1,4.4c0.8,0.4,1.6,0.9,2.4,1.4
		c7.2,5.2,12.1,12.9,13.6,21.6c0.8,11.6-0.4,20.9-8,30c-7.5,7.6-16.5,11.1-27.2,11.4c-2.1,0-4.2,0-6.4-0.1c-1.1,0-2.2,0-3.3,0
		c-8-0.1-8-0.1-9.1-1.2c-0.1-2.1-0.1-4.2-0.1-6.3c0-0.7,0-1.3,0-2c0-2.2,0-4.3,0-6.5c0-1.5,0-3,0-4.5c0-4,0-7.9,0-11.9
		c0-4,0-8.1,0-12.1C543.6,1569.1,543.6,1561.2,543.6,1553.3z M552.6,1560.3c0,17.8,0,35.6,0,54c15.5,0.6,15.5,0.6,28.4-6.1
		c6.2-6.7,8-11.8,8-20.7c0-1.2,0-1.2,0.1-2.3c0-6.8-1.9-11.9-6.3-17.1c-0.6-0.5-1.3-1.1-1.9-1.6c-0.6-0.5-1.3-1.1-1.9-1.6
		C569.6,1558.6,565,1560.3,552.6,1560.3z"/>
	<path class="st10" d="M1007.5,1556.9c6.7,4.4,11.4,11.3,14.5,18.6c1.9,11.9,0.7,21.6-5.2,32.1c-6.2,7.7-11.8,12.6-21.9,14.2
		c-8.2,0.4-14.4-2-20.5-7.4c-8.2-8.6-10.5-17.1-10.4-28.8c0.4-10,4.2-18.4,11.6-25.4C985.6,1552.5,996.1,1550.4,1007.5,1556.9z
		 M978.1,1569.3c-5.1,7.7-6.4,14.9-5.5,24c1.9,7.7,4.6,13.5,11.1,18.3c4.8,2.5,9.7,2.5,14.9,1.7c6.4-2.4,10.2-6.9,13-13
		c3.1-7.7,3.4-17,1.1-25.1c-2.5-5.5-6-9.7-11.1-12.9C991.9,1559.1,984.3,1561.3,978.1,1569.3z"/>
	<path class="st12" d="M1456.6,1553.3c12.9,0,25.7,0,39,0c1,5,1,5-0.1,6.8c-2.8,1.7-4.9,1.7-8.1,1.7c-1.2,0-2.4,0.1-3.7,0.1
		c-1.9,0-1.9,0-3.8,0.1c-1.3,0-2.5,0.1-3.9,0.1c-3.2,0.1-6.3,0.2-9.5,0.2c0,2.8,0,5.6-0.1,8.4c0,0.8,0,1.6,0,2.4c0,2,0,4.1,0.1,6.1
		c1.7,1.7,4.1,1.2,6.5,1.2c1.1,0,2.2,0.1,3.4,0.1c2.4,0.1,4.7,0.1,7.1,0.1c1.1,0,2.2,0.1,3.4,0.1c1,0,2.1,0,3.1,0.1
		c2.6,0.4,2.6,0.4,4.5,1.8c1.1,1.6,1.1,1.6,0.9,3.7c-0.8,1.9-0.8,1.9-1.8,2.9c-2,0.1-4,0.1-6,0.1c-1.2,0-2.4,0-3.7,0
		c-1.3,0-2.6,0-3.9,0c-1.3,0-2.6,0-3.9,0c-3.2,0-6.4,0-9.5,0c0,7.9,0,15.8,0,24c3.2,0,3.2,0,6.5-0.1c2.1,0,4.1,0,6.2,0
		c1.4,0,2.9,0,4.3,0c2.1,0,4.1,0,6.2,0c1.9,0,1.9,0,3.8,0c3,0.2,3,0.2,5,2.2c0.2,2.6,0.2,2.6,0,5c-1,1-1,1-4.9,1.1
		c-1.7,0-3.5,0-5.2,0c-0.8,0-1.6,0-2.4,0c-3,0-6,0-9.1,0c-10.1,0-10.1,0-20.4-0.1C1456.6,1598.9,1456.6,1576.4,1456.6,1553.3z"/>
	<path class="st10" d="M846.9,1555.4c9.5,5.4,14.1,12.6,17.4,22.9c2,10.7-0.2,20.1-5.6,29.4c-4.9,6.2-10.5,11.1-18.1,13.6
		c-9.3,0.9-16.2-1-23.7-6.5c-5.8-5.3-10-14.3-10.6-22.1c-0.4-11.4,1.2-20.5,8.3-29.8C823.4,1553.9,835.2,1550.1,846.9,1555.4z
		 M819,1570.4c-4.9,7-5.2,14.5-4.3,22.9c1.9,7.7,4.6,13.5,11.1,18.2c4.5,2.7,7.7,3.2,12.9,2.8c7.2-2.3,11.7-6.8,15.3-13.3
		c3.7-8.3,3.9-15.9,1.1-24.5c-2.5-6.1-5.7-10.3-11.1-14.2C833.2,1558.9,825.8,1561.8,819,1570.4z"/>
	<path class="st3" d="M621.8,1343.7c-16.2-14.3-37.1-19-58.2-19c-0.8,0-1.5,0-2.3,0c-16.6,0-38.5-0.3-52.7,9.5
		c-4.4,4.8-4.5,9-4.5,15.3c0,1.9,0,3.8,0,5.8c0,3.5,0,7.1,0,10.6c0,3.8,0,7.5,0,11.3c0,6.3,0,12.6,0,18.9c0,8.2,0.1,16.3,0.1,24.5
		c0,7.1,0,14.1,0,21.2c0,1.5,0,3,0,4.5c0,4.4,0,8.7,0,13.1c0,1.4,0,2.7,0,4c0,1.3,0,2.5,0,3.8c0,1.2,0,2.3,0,3.5c0,1,0,2,0,3
		c0.3,5.5,2.8,10.4,6.8,14c9.8,6.2,26.3,4.9,37.3,2.4c2.1-1.6,2.9-2.5,3.4-5c0-0.8,0-1.6,0-2.3c0-0.9,0-1.8,0.1-2.7c0-1,0-1.9,0-2.9
		c0.1-3,0.1-6.1,0.1-9.1c0-2.1,0.1-4.2,0.1-6.3c0.1-4.9,0.2-9.8,0.2-14.6c0-1.4,0-2.7,0-4c23.6-1.3,49.5-0.8,68-17.9
		c9.1-9.9,14.8-21.5,15.3-35C636.2,1373.4,634.1,1356.7,621.8,1343.7z M583,1399.1c-0.6,0.5-1.1,0.9-1.7,1.4c-0.6,0.5-1.1,1-1.7,1.5
		c-5.2,3.5-10,3.6-16,3.6c-0.8,0-1.6,0-2.5,0c-0.8,0-1.6,0-2.4,0c-0.7,0-1.4,0-2.1,0c-1.9-0.4-1.9-0.4-3.6-1.4
		c-2-3.2-1.7-6.6-1.6-10.3c0-0.8,0-1.6,0-2.5c0-1.7,0-3.4,0-5.1c0-2.6,0-5.3,0-7.9c0-1.7,0-3.3,0-5c0-0.8,0-1.6,0-2.4
		c0.1-8.8,3.9-8.2,11.4-8.2c0.8,0,1.7,0,2.5-0.1c7,0,12.2,1.6,17.4,6.3c0.7,0.9,0.7,0.9,1.4,1.8c0.5,0.6,0.9,1.2,1.4,1.8
		c2.5,3.6,2.3,6.5,2.4,10.8c0,1.3,0.1,2.6,0.1,4C587.5,1392.3,586.2,1395.5,583,1399.1z"/>
	<path class="st13" d="M655.8,1559.4c6.2,5.6,10.3,14.1,11.1,22.3c0.1,11.4-1.1,20.3-8.7,29.1c-6.1,6.2-11.9,10.4-20.9,10.9
		c-8-0.2-15.3-3.7-20.8-9.4c-5.6-8-8.4-15-8.4-24.8c0-0.8,0-1.6,0-2.4c0.1-6,1.1-10.6,4.4-15.8c0.6-1,1.2-2.1,1.8-3.1
		C625.6,1551.8,640.6,1549.3,655.8,1559.4z M620.9,1569.4c-5.1,7.7-5.1,15.8-4.3,24.9c1.8,7.2,5,12.8,11.1,17.2
		c4.6,2.7,8.7,3.4,13.9,2.8c6.7-2,10.6-6.1,14-12c3.7-7.4,4.3-15.7,2.3-23.7c-2.7-7.5-6.5-13.2-13.8-16.7
		C634.7,1558.2,626.9,1561.6,620.9,1569.4z"/>
	<path class="st14" d="M726.6,1557.3c0.7,0.7,1.3,1.3,2,2c-0.4,3.1-0.4,3.1-1,6c-3.7,1.3-5.5,0.6-9-0.9c-6.9-2.6-13.6-3.8-20.6-1
		c-6.1,3.7-8.8,8.1-11,14.7c-1.8,9.7-1.7,21.7,3.6,30.3c3.3,3.7,7.1,7.7,12.2,8.2c6.4,0.2,11.3-0.8,17.3-3.3c2.5-1,4.8-1.6,7.5-2
		c1,1,1,1,1.4,3.9c-0.2,1.5-0.2,1.5-0.4,3.1c-4.4,3.2-9.3,4.5-14.5,6c-2.7,0.7-2.7,0.7-3.5,3c0.8,0.3,1.5,0.5,2.3,0.8
		c4.1,1.8,4.1,1.8,5.7,4.2c0.6,3.4,0.6,3.4,0,7c-2.2,2.7-4.9,4.5-8,6c-1.5,0.1-3.1,0.1-4.6,0.1c-0.8,0-1.6,0-2.5,0
		c-0.6,0-1.3,0-1.9,0c0-1.7,0-3.3,0-5c5.4-0.5,5.4-0.5,11-1c-6.8-8.3-14.2-15-24-19.7c-4.6-3-6.7-7.4-8.7-12.4c-0.4-1-0.8-2-1.3-3.1
		c-3.6-9.9-3.5-21.7,0.7-31.4C689.1,1553.7,707,1548.3,726.6,1557.3z"/>
	<path class="st7" d="M1271.6,1553.3c5.4,0,10.8-0.1,16.1-0.1c1.8,0,3.7,0,5.5,0c2.6,0,5.3,0,7.9,0c1.2,0,1.2,0,2.5,0
		c2,0,4,0.1,6,0.2c2,2,2,2,2.2,4.6c-0.2,2.4-0.2,2.4-1.2,3.4c-2.2,0.1-4.4,0.1-6.7,0.1c-1,0-1,0-2,0c-2.1,0-4.3,0-6.4,0
		c-1.4,0-2.9,0-4.3,0c-3.5,0-7.1,0-10.6,0c0,6.6,0,13.2,0,20c2.8,0,2.8,0,5.6-0.1c2.4,0,4.8,0,7.3-0.1c1.2,0,2.4,0,3.7-0.1
		c1.2,0,2.3,0,3.5,0c1.1,0,2.2,0,3.3,0c2.6,0.2,2.6,0.2,4.6,2.2c0.2,2.6,0.2,2.6,0,5c-1.8,1.8-4.6,1.2-7,1.3c-1.2,0-2.4,0.1-3.7,0.1
		c-1.3,0-2.6,0.1-3.9,0.1c-1.3,0-2.6,0.1-3.9,0.1c-3.2,0.1-6.4,0.2-9.5,0.3c-0.3,7.6-0.7,15.2-1,23c2.3,0,4.6-0.1,6.9-0.1
		c2.2,0,4.4,0,6.6-0.1c1.5,0,3.1,0,4.6-0.1c2.2,0,4.4-0.1,6.6-0.1c1,0,1,0,2.1,0c1.9,0,1.9,0,5.1,0.3c2,3,2,3,1.7,5.1
		c-0.7,1.9-0.7,1.9-1.7,2.9c-2.9,0.1-5.7,0.1-8.6,0.1c-0.9,0-1.7,0-2.6,0c-1.8,0-3.7,0-5.5,0c-2.8,0-5.6,0-8.4,0c-1.8,0-3.5,0-5.3,0
		c-0.8,0-1.7,0-2.6,0c-5.9,0-5.9,0-7-1.1c-0.1-2.1-0.1-4.2-0.1-6.3c0-0.7,0-1.3,0-2c0-2.2,0-4.3,0-6.5c0-1.5,0-3,0-4.5
		c0-4,0-7.9,0-11.9c0-4,0-8.1,0-12.1C1271.6,1569.1,1271.6,1561.2,1271.6,1553.3z"/>
	<path class="st14" d="M1144.6,1557.3c1,1,1,1,1.1,3.6c0,0.8,0,1.6-0.1,2.4c-1.6,1.1-1.6,1.1-4,2c-0.9-0.3-1.8-0.6-2.7-0.9
		c-3.8-1.2-6.9-1.3-10.8-1.3c-1.3,0-2.5,0-3.8,0c-3.6,0.3-6.3,1-9.7,2.3c-0.6,2.9-1.1,5.1-1,8c4,6.1,11.3,7.7,17.9,10
		c7.3,2.5,12.6,4.8,16.4,11.9c1.9,5.4,1.3,10.5-0.6,15.8c-3.2,4.9-9.1,8.1-14.6,9.9c-9.5,1.6-18.4,0.3-27.1-3.6c-2-2-2-2-2.1-5.6
		c0-1.1,0.1-2.2,0.1-3.4c2.7-1.1,3.8-1.1,6.6,0c1.5,0.7,1.5,0.7,2.9,1.4c7.3,3.2,13.5,4,21,1.3c2.6-1.9,3.6-2.7,4.4-5.8
		c0.4-4.7,0.4-4.7-1.2-9.1c-2.4-2.5-4.4-3.1-7.7-4.2c-1.1-0.4-2.3-0.8-3.5-1.2c-2.4-0.8-4.8-1.6-7.2-2.4c-9.8-3.5-9.8-3.5-12.2-8.1
		c-1.7-4.7-2-9-1.2-14c2.7-5.6,7-9.8,12.8-12.1C1127.6,1551.7,1136.3,1552.9,1144.6,1557.3z"/>
	<path class="st10" d="M1209.6,1557.3c2,2,2,2,2.1,4.6c0,0.8-0.1,1.6-0.1,2.4c-2.9,1.2-4.1,1-7.2,0.1c-8-2.3-16.7-3.6-24.5-0.1
		c-5.6,3.4-7.1,7.1-9.6,13.1c-2.3,9.3-1.7,19.6,3.2,27.9c4.6,5.1,11.3,6.7,17.9,7.4c5.1-0.2,9.5-2.4,14.1-4.4c1.7-0.7,3.3-1.3,5-2
		c1,1,1,1,1.4,3.8c-0.5,4.3-2.1,5.5-5.4,8.2c-6.6,4.2-16.3,3.9-23.7,2.5c-9.3-2.6-15.4-7.4-20.5-15.5c-4.4-8.9-4-20.5-2.1-30.1
		c2.8-7.9,8.6-14.6,15.8-18.9C1185.6,1551.9,1200.2,1552.7,1209.6,1557.3z"/>
	<path class="st15" d="M932.5,1553c0.7,0,1.4,0,2.1,0c6.7,0.1,11.1,1.2,16.5,5.2c1.4,2.1,1.4,2.1,1.2,4.9c-0.2,0.7-0.5,1.5-0.8,2.2
		c-3.7,1.4-5.6,0.6-9.1-0.9c-6.7-2.6-12.9-3.5-19.7-0.8c-7,3.8-10.4,8.1-12.8,15.7c-1.7,8.8-0.5,17.1,3.6,25.1
		c3.9,5.2,8.8,7.4,15.1,8.3c5.6,0.3,10.1-1.3,15.3-3.4c2.8-1.1,5.5-1.6,8.5-2c0.5,3,0.5,3,1,6c-8.1,5.7-17,9.4-27,8
		c-7.3-1.6-14-3.3-19-9c-6.6-11-9.2-23.3-6.3-36c3.3-8.9,9.1-16.3,17.3-21C923.3,1553.4,927.5,1552.9,932.5,1553z"/>
	<path class="st16" d="M1390.6,1553.3c18.8,0,37.6,0,57,0c0,2.3,0,4.6,0,7c-5.4,5.4-15.3,1.7-23,2c-0.3,19.5-0.7,38.9-1,59
		c-4,1-6.1,0.8-10,0c0-5.5,0-11-0.1-16.5c0-1.9,0-3.7,0-5.6c-0.1-12.7,0.3-25.3,1.1-38c-0.7,0-1.4,0-2.1,0c-3.1,0-6.2,0-9.3,0
		c-1.1,0-2.2,0-3.3,0c-1,0-2.1,0-3.1,0c-1.4,0-1.4,0-2.9,0c-2.2-0.1-2.2-0.1-3.2-1.1C1390.6,1558,1390.6,1555.7,1390.6,1553.3z"/>
	<path class="st10" d="M1236.6,1553.1c0.7,0,1.5,0,2.2,0c2.2,0,4.4,0,6.6,0c1.4,0,2.8,0,4.2,0c1.3,0,2.6,0,3.9,0
		c3.1,0.2,3.1,0.2,5.1,2.2c-0.3,1.3-0.7,2.6-1,4c-3.6,0.7-7.3,1.3-11,2c-0.3,17.5-0.7,35-1,53c3.6,0,7.3,0,11,0c0.5,2.5,0.5,2.5,1,5
		c-3.2,1.9-5.7,2.3-9.4,2.3c-1,0-2.1,0-3.1,0c-1.1,0-2.2,0-3.3,0c-1.1,0-2.1,0-3.2,0c-5.7,0-10.6-0.3-16-2.3c0.3-1.7,0.7-3.3,1-5
		c4.3,0,8.6,0,13,0c0-1-0.1-2-0.1-3c-0.1-3.8-0.2-7.6-0.3-11.4c0-1.6-0.1-3.3-0.1-4.9c-0.3-11.2-0.5-22.4-0.4-33.7
		c-0.8-0.1-1.5-0.1-2.3-0.2c-0.9-0.1-1.7-0.2-2.6-0.2c-1.4-0.1-1.4-0.1-2.8-0.2c-2.3-0.3-2.3-0.3-3.3-1.3c-0.1-2.5-0.1-2.5,0-5
		C1227.1,1551.8,1233.2,1553.1,1236.6,1553.1z"/>
	<path class="st4" d="M706,1442.3c1.7-0.3,1.7-0.3,3.3-0.6c2.5-0.4,4.9-0.8,7.4-1.3c4.6-0.8,9.2-1.6,13.9-2.4
		c3.3-0.6,6.5-1.1,9.8-1.7c1.3-0.2,2.5-0.4,3.8-0.7c10.5-1.8,24.8-2.2,32.5-10.4c4.7-6,4.8-12.7,4-20c-3.6-15.2-12-27.7-24.3-37.1
		c-27.5-19-63.8-15.4-88.7,6.1c-12.1,12.4-17.9,28.5-18.5,45.6c-0.2,19.7,3.9,38.5,17.8,53.2c15.9,14.6,33.8,20.3,55.1,20.5
		c1.2,0,2.4,0,3.5,0c12.4,0,24.8-0.4,36.1-6.1c6.3-3.8,11-8,13-15.2c0.7-7.8-0.9-13.9-6-20c-3.4-1.3-5.2-1.3-8.6-0.2
		c-11.3,3.9-22.2,6.9-34.2,6.4c-1.1-0.1-2.1-0.2-3.2-0.2c-8.8-0.5-15.4-3.2-22.4-8.4c-1.8-1.8-2.2-3.1-2.6-5.6c2.9-1,2.9-1,5.4-1.5
		C704.1,1442.6,705,1442.5,706,1442.3z M693.6,1412.3c-0.3-0.3-0.7-0.7-1-1c0.4-8.1,4.2-14.3,10-19.7c5.7-3.8,13.1-3.3,19.6-2.1
		c6.2,2,10.4,6.8,14.4,11.7c-0.1,1.9-0.1,1.9-1,4c-4.2,1.7-8.5,2.5-12.9,3.3c-0.6,0.1-1.3,0.2-1.9,0.3c-1.4,0.2-2.7,0.4-4.1,0.7
		c-2.1,0.3-4.1,0.7-6.2,1c-1.3,0.2-2.6,0.4-4,0.7c-1.2,0.2-2.4,0.4-3.6,0.6C699.8,1412.3,696.8,1412.5,693.6,1412.3z"/>
	<path class="st15" d="M795.4,1612.8c-0.9-2.4-1.9-4.7-2.7-7.1c-0.3-1-0.7-1.9-1-2.8c-0.4-1-0.7-2-1.1-3c-1.2-3.3-2.3-6.5-3.5-9.8
		c-0.8-2.3-1.6-4.6-2.5-6.9c-1.2-3.5-2.4-6.9-3.7-10.4c-0.4-1.1-0.8-2.2-1.2-3.3c-2.2-6.2-4-12.1-8.2-17.2c-3.1-1-3.1-1-6-1
		c-2.9,2.9-4.6,6-6.2,9.7c-0.6,1.5-0.6,1.5-1.1,3c-0.6,1.7-0.6,1.7-1.3,3.4c-0.7,1.8-1.3,3.7-2,5.5c-1,2.6-1.9,5.2-2.9,7.8
		c-1.2,3.4-2.5,6.7-3.7,10.1c-1,2.6-1.9,5.3-2.9,7.9c-0.5,1.3-0.9,2.5-1.4,3.8c-0.5,1.2-0.9,2.4-1.3,3.6c-0.6,1.7-0.6,1.7-1.2,3.4
		c-1.5,3.9-2.4,7.7-3,11.8c2.3,0,4.7,0,7,0c1.1-1.1,1.1-1.1,3.4-5.8c1.2-2.5,2.5-4.9,3.8-7.3c1.8-2.2,1.8-2.2,4.8-2.3
		c1.2,0,2.4,0,3.6,0.1c2,0,4,0,6,0.1c1.4,0,2.8,0.1,4.2,0.1c4.1,0,8.2,0.1,12.2,0.2c0.3,0.8,0.5,1.5,0.8,2.3c0.4,1,0.7,2,1,3
		c1.3,3.7,2.5,6.8,5.2,9.8c2.7,0.2,2.7,0.2,5,0C796.8,1617.9,796.6,1616.3,795.4,1612.8z M779.6,1597.3c-7.9,0-15.8,0-24,0
		c0.7-5,1.3-8.4,3-12.9c0.4-1.1,0.8-2.1,1.2-3.2c0.4-1.1,0.8-2.2,1.3-3.3c0.4-1.1,0.8-2.2,1.3-3.3c3.1-8.1,3.1-8.1,4.2-9.3
		c3,1,3,1,4.4,3.6c0.5,1.1,0.9,2.3,1.4,3.5c0.2,0.6,0.5,1.2,0.7,1.9c0.5,1.3,1,2.6,1.5,3.9c0.8,2,1.6,4,2.3,6c0.5,1.3,1,2.5,1.5,3.8
		c0.4,1.2,0.9,2.3,1.4,3.5C780.6,1594.3,780.6,1594.3,779.6,1597.3z"/>
	<path class="st10" d="M529.9,1613.8c-0.5-1.3-0.5-1.3-1-2.6c-0.4-1-0.7-2-1.1-2.9c-0.7-1.9-1.5-3.9-2.2-5.8
		c-1.8-5.1-3.7-10.3-5.6-15.4c-0.8-2.3-1.6-4.5-2.5-6.8c-1.2-3.4-2.4-6.8-3.7-10.2c-0.4-1.1-0.8-2.1-1.2-3.2
		c-0.4-1.1-0.7-2.1-1.1-3.1c-0.4-1-0.7-1.9-1.1-2.9c-1.2-3.2-2.2-5.5-4.9-7.7c-6-0.6-8.6-0.1-11.2,5.5c-0.6,1.5-0.6,1.5-1.1,3
		c-0.4,1.1-0.8,2.3-1.3,3.4c-0.7,1.8-1.3,3.7-2,5.5c-1,2.6-1.9,5.2-2.9,7.8c-1.2,3.4-2.5,6.7-3.7,10.1c-1,2.6-1.9,5.2-2.9,7.9
		c-0.5,1.3-0.9,2.5-1.4,3.8c-2.6,7.1-5.1,13.6-5.6,21.1c1.4,0.1,1.4,0.1,2.8,0.2c3.2-0.2,3.2-0.2,6.2-3.2c1.4-4.1,2.7-8,4-12
		c10.2,0,20.1,0,30,0c2.2,5.1,4.5,10,7,15c2.4,0,4.7,0,7,0C530.8,1618.6,530.7,1616.4,529.9,1613.8z M490.6,1597.3
		c-1.3-4-0.2-5.7,1.3-9.6c0.2-0.6,0.5-1.3,0.7-1.9c0.8-2,1.6-4.1,2.4-6.1c0.5-1.4,1.1-2.8,1.6-4.2c1.3-3.4,2.6-6.8,4-10.2
		c1,0.3,2,0.7,3,1c1.4,2.7,1.4,2.7,2.7,6.4c0.2,0.6,0.5,1.3,0.7,1.9c0.5,1.3,1,2.7,1.5,4.1c0.8,2.1,1.5,4.1,2.3,6.2
		c3.8,10.1,3.8,10.1,3.8,12.4C506.7,1597.3,498.8,1597.3,490.6,1597.3z"/>
	<path class="st11" d="M762.3,1535c1.3,0,2.6,0,3.9,0c1.4,0,2.7,0.1,4.1,0.1c1.4,0,2.8,0,4.2,0c3.4,0,6.8,0.1,10.2,0.1
		c-0.8,5.8-0.8,5.8-2.8,7.9c-6.1,3.1-13.7,1-20-0.7c-3-0.2-4,1-6.2,2.9c-2.2-0.3-2.2-0.3-4-1c0.6-5.4,0.6-5.4,2.1-7.7
		C756.6,1534.6,758.9,1535,762.3,1535z"/>
	<g>
		<path class="st17" d="M1297.7,1119.2c0,0,73.2-6.8,111.3,38.6"/>
		<path class="st17" d="M1293.2,1156.7c0,0,73.2-6.8,111.3,38.6"/>
		<path class="st17" d="M1070,1169.9c0,0,46-57.4,105-53.2"/>
		<path class="st17" d="M1093.8,1199.2c0,0,46-57.4,105-53.2"/>
	</g>
</g>
</svg>
