<?xml version="1.0" encoding="utf-8"?>
<svg xmlns="http://www.w3.org/2000/svg" viewBox="0 0 30 30" width="48" height="48">
  <circle cx="15" cy="15" r="13.5" fill="#8bb7f0" stroke="#4e7ab5" />
  <path fill="#fff" d="M23.727,9.633c-0.641,0.284-1.454,0.551-2.182,0.64c0.74-0.439,1.915-1.354,2.182-2.182 c-0.692,0.407-1.943,0.841-2.759,0.998c-0.652-0.691-1.581-0.998-2.611-0.998C16.38,8.091,15,9.767,15,11.727v1.455 c-2.909,0-5.745-2.216-7.511-4.364c-0.311,0.524-0.485,1.138-0.485,1.787c0,1.323,1.215,2.665,2.177,3.304 C8.595,13.891,7.484,13.443,7,13.182c0,0.012,0,0.026,0,0.041c0,1.721,1.208,2.89,2.845,3.216 c-0.299,0.082-0.663,0.379-2.065,0.379c0.455,1.407,2.744,2.151,4.311,2.182C10.865,19.951,8.679,20.455,7,20.455 c-0.29,0-0.447,0.016-0.727-0.017c1.584,1.004,3.796,1.471,5.818,1.471c6.587,0,10.182-5.031,10.182-9.724 c0-0.154-0.005-0.671-0.013-0.822C22.964,10.868,23.249,10.348,23.727,9.633" />
</svg>